<?xml version="1.0" standalone="no"?>
<!DOCTYPE svg PUBLIC "-//W3C//DTD SVG 1.1//EN" "http://www.w3.org/Graphics/SVG/1.1/DTD/svg11.dtd" >
<svg xmlns="http://www.w3.org/2000/svg" xmlns:xlink="http://www.w3.org/1999/xlink" version="1.1">
<metadata></metadata>
<defs>
<font id="times_new_romanitalic" horiz-adv-x="1024" >
<font-face units-per-em="2048" ascent="1638" descent="-410" />
<missing-glyph horiz-adv-x="512" />
<glyph horiz-adv-x="0" />
<glyph horiz-adv-x="682" />
<glyph unicode=" "  horiz-adv-x="512" />
<glyph unicode="&#x09;" horiz-adv-x="512" />
<glyph unicode="&#xa0;" horiz-adv-x="512" />
<glyph unicode="!" horiz-adv-x="682" d="M154 69q0 43 30 73t72 30q43 0 73 -30t30 -73q0 -42 -30 -72t-73 -30q-42 0 -72 30t-30 72zM285 330q49 181 69 276.5t45 249.5q50 318 61 371q20 90 65 137q21 23 58 23q28 0 47.5 -22t19.5 -59q0 -41 -19 -104q-41 -138 -162 -453q-58 -149 -64 -166q-19 -56 -82 -253 h-38z" />
<glyph unicode="&#x22;" horiz-adv-x="860" d="M294 803l31 296q13 127 26 171q19 62 54.5 89.5t77.5 27.5q35 0 55.5 -20t20.5 -50q0 -24 -10 -53q-14 -42 -73 -166l-139 -295h-43zM661 803l29 292q12 114 16 134q14 64 34 98q16 25 46.5 42.5t65.5 17.5t54.5 -19t19.5 -50q0 -26 -14 -66q-38 -105 -63 -156l-141 -293 h-47z" />
<glyph unicode="#" d="M147 427v82h187l69 343h-256v80h275l91 455h83l-91 -455h337l97 455h83l-95 -455h170v-80h-185l-70 -343h255v-82h-272l-93 -455h-81l91 455h-339l-95 -455h-83l93 455h-171zM418 509h339l72 343h-341z" />
<glyph unicode="$" d="M86 95l82 283h41q-11 -64 -11 -107q0 -77 42.5 -138t118.5 -87l174 612q-134 105 -187 190.5t-53 182.5q0 150 111.5 240.5t241.5 90.5q33 0 89 -6l23 78h64l-26 -87q69 -20 110 -43.5t95 -71.5l-66 -241h-41q4 46 4 74q0 84 -39 149q-23 38 -79 70l-139 -480 q156 -123 219 -230q44 -76 44 -171q0 -112 -64.5 -217t-170.5 -155.5t-270 -48.5l-32 -117h-66l35 117q-80 16 -133.5 40t-116.5 73zM415 37q30 -3 45 -3q68 0 144.5 38t118 108t41.5 148q0 66 -38.5 131.5t-140.5 153.5zM440 1083q0 -56 31 -109.5t118 -130.5l131 459 q-45 7 -70 7q-86 0 -148 -64.5t-62 -161.5z" />
<glyph unicode="%" horiz-adv-x="1706" d="M144 -54l1434 1441h95l-1434 -1441h-95zM151 934q0 181 125.5 317t264.5 136q94 0 163 -75t69 -197q0 -186 -122 -320t-259 -134q-101 0 -171 76.5t-70 196.5zM280 818q0 -54 30 -86.5t72 -32.5q43 0 75 30q71 66 130.5 213.5t59.5 279.5q0 56 -29.5 89t-69.5 33 q-49 0 -90 -39q-72 -66 -125 -214t-53 -273zM1048 209q0 185 124.5 322.5t259.5 137.5q97 0 167 -75.5t70 -200.5q0 -114 -57.5 -221t-149 -167t-175.5 -60q-100 0 -169.5 74t-69.5 190zM1174 106q0 -55 29.5 -88t69.5 -33q48 0 82 33q71 67 128 216t57 266q0 61 -28.5 94.5 t-67.5 33.5q-51 0 -89 -36q-68 -63 -124.5 -214t-56.5 -272z" />
<glyph unicode="&#x26;" horiz-adv-x="1593" d="M98 308q0 179 151 315q99 88 403 191q-5 38 -7.5 71.5t-2.5 61.5q0 204 107 322t258 118q102 0 161.5 -56.5t59.5 -141.5q0 -107 -86 -205t-308 -170q72 -298 177 -499q155 187 155 299q0 24 -19 40t-70 19v38h405v-38q-88 -12 -143 -48t-130 -144q-99 -144 -164 -229 q119 -201 257 -201q85 0 154 73h45q-60 -82 -127 -118.5t-159 -36.5q-96 0 -166 35.5t-139 119.5q-111 -83 -211.5 -119t-222.5 -36q-181 0 -279.5 94t-98.5 245zM299 358q0 -126 80.5 -208.5t209.5 -82.5q71 0 127.5 21.5t155.5 91.5q-64 100 -123.5 261t-86.5 310 q-193 -72 -278 -176.5t-85 -216.5zM801 1048q0 -34 5 -76.5t15 -93.5q152 65 205 124q73 82 73 179q0 64 -35 101t-91 37q-72 0 -122 -63t-50 -208z" />
<glyph unicode="'" horiz-adv-x="438" d="M269 803l31 296q13 126 26 170q19 63 53.5 90.5t77.5 27.5q36 0 57 -20t21 -51q0 -23 -10 -51q-13 -38 -74 -167l-138 -295h-44z" />
<glyph unicode="(" horiz-adv-x="682" d="M140 237q0 322 149 577q183 312 593 608l24 -35q-185 -137 -302 -307q-146 -212 -239 -512t-93 -546q0 -188 113 -444l-34 -16q-119 227 -171 401q-40 136 -40 274z" />
<glyph unicode=")" horiz-adv-x="682" d="M-223 -407q185 138 302 307q146 212 239 512.5t93 546.5q0 188 -113 444l34 19q119 -226 170 -400q41 -136 41 -274q0 -323 -149 -577q-184 -313 -593 -609z" />
<glyph unicode="*" d="M290 839q0 25 20.5 52.5t61.5 45.5q27 12 123 32q62 13 121 38q-54 27 -129 42q-123 26 -152 47q-45 33 -45 80q0 27 22.5 49.5t52.5 22.5q33 0 70 -21t92 -84.5t112 -98.5q-4 69 -28 137q-34 98 -34 135q0 52 24.5 79t60.5 27q31 0 54 -27t23 -77q0 -45 -26.5 -125.5 t-32.5 -148.5q55 35 99 85q68 79 101 98t67 19q33 0 55.5 -22.5t22.5 -53.5q0 -37 -33 -66t-165 -58q-77 -17 -128 -39q52 -27 127 -41q121 -22 158.5 -55t37.5 -72q0 -30 -22.5 -52t-52.5 -22t-66.5 21t-98.5 94q-41 49 -102 92q2 -57 23 -124q36 -118 36 -161 q0 -40 -24 -67.5t-51 -27.5q-37 0 -67 29q-21 21 -21 67q0 48 23 115.5t29 93t11 75.5q-59 -39 -103 -87q-73 -82 -110 -104q-26 -16 -54 -16q-34 0 -58 23t-24 51z" />
<glyph unicode="+" horiz-adv-x="1382" d="M190 640v82h497v497h82v-497h499v-82h-499v-499h-82v499h-497z" />
<glyph unicode="," horiz-adv-x="512" d="M-21 -225q75 34 122 86q36 40 36 77q0 18 -6 33q-4 8 -28 32t-27 33q-7 17 -7 39q0 43 29.5 74t69.5 31q41 0 72.5 -33t31.5 -83q0 -89 -70 -180t-203 -141z" />
<glyph unicode="-" horiz-adv-x="682" d="M54 378l41 133h518l-41 -133h-518z" />
<glyph unicode="." horiz-adv-x="512" d="M69 78q0 42 29.5 71.5t71.5 29.5q43 0 72.5 -29.5t29.5 -71.5t-30 -71.5t-72 -29.5t-71.5 29.5t-29.5 71.5z" />
<glyph unicode="/" horiz-adv-x="569" d="M-69 -31l767 1453h83l-762 -1453h-88z" />
<glyph unicode="0" d="M122 422q0 229 88 460q103 270 263 410q105 92 235 92q128 0 215.5 -107t87.5 -338q0 -198 -65 -404t-183 -357q-94 -119 -197 -172q-60 -30 -139 -30q-130 0 -217.5 107t-87.5 339zM272 220q0 -104 45 -155.5t109 -51.5q61 0 104 40q115 108 197 369q133 427 133 694 q0 111 -45 163.5t-106 52.5q-58 0 -117.5 -45.5t-123 -189.5t-121.5 -371q-75 -297 -75 -506z" />
<glyph unicode="1" d="M125 0l14 37q82 2 108 13q42 18 63 48q33 46 67 165l232 805q21 73 23 84q3 20 3 39q0 35 -19 55t-52 20q-26 0 -81 -12l-13 36l337 94h48l-322 -1121q-28 -99 -28 -143q0 -37 25.5 -56.5t119.5 -26.5l-10 -37h-515z" />
<glyph unicode="2" d="M32 0v37q516 452 682 709q77 119 77 250q0 104 -64 169.5t-166 65.5q-141 0 -232 -135l-35 16q51 129 149 200.5t212 71.5q129 0 217 -88.5t88 -214.5q0 -88 -31 -163q-48 -117 -177 -262q-196 -222 -523 -511h340q82 0 135 34t76 91h40l-113 -270h-675z" />
<glyph unicode="3" d="M68 90q0 35 25.5 60t62.5 25q26 0 52 -8q16 -5 78.5 -40t97.5 -46.5t72 -11.5q90 0 148.5 104.5t58.5 222.5q0 96 -39.5 171t-124.5 121.5t-186 52.5v29q242 37 361 144q86 76 86 181q0 79 -50 130.5t-121 51.5q-112 0 -199 -139l-37 11q52 116 133.5 175.5t178.5 59.5 q118 0 191 -70.5t73 -178.5q0 -92 -68.5 -177t-235.5 -152q104 -43 157 -123.5t53 -193.5q0 -125 -72 -250.5t-197.5 -194t-263.5 -68.5q-126 0 -191 44q-43 30 -43 70z" />
<glyph unicode="4" d="M64 340l42 140l815 876h76l-259 -892h162l-36 -124h-164l-105 -364h-147l106 364h-490zM192 464h401l182 634z" />
<glyph unicode="5" d="M73 96q0 36 26 61.5t64 25.5q53 0 118 -53q40 -33 66 -44q21 -9 50 -9q113 0 208 112.5t95 292.5q0 125 -50.5 213t-128.5 124t-208 50l215 487h453l-46 -165h-407l-75 -167q162 -26 252 -101q139 -117 139 -327q0 -139 -51.5 -251.5t-126 -188.5t-159.5 -120 q-116 -60 -234 -60q-101 0 -160 44q-40 30 -40 76z" />
<glyph unicode="6" d="M129 372q0 205 95 404.5t257.5 342.5t337.5 211q104 40 257 54v-39q-171 -40 -332 -168.5t-282 -329.5q108 46 176 46q127 0 216.5 -92t89.5 -248q0 -239 -154 -408t-332 -169q-162 0 -245.5 119.5t-83.5 276.5zM271 251q0 -107 54 -168.5t124 -61.5q115 0 214.5 167.5 t99.5 388.5q0 118 -58 182t-140 64q-35 0 -66.5 -11.5t-84.5 -48.5q-143 -305 -143 -512z" />
<glyph unicode="7" d="M232 13l665 1184h-322q-133 0 -181.5 -23.5t-112.5 -114.5h-41l157 297h675v-34l-760 -1346z" />
<glyph unicode="8" d="M78 306q0 113 83.5 222t315.5 210q-89 109 -120.5 180t-31.5 141q0 133 99.5 229t250.5 96q144 0 235 -83t91 -194q0 -110 -73.5 -200t-236.5 -148q96 -104 140.5 -195t44.5 -182q0 -163 -124 -284.5t-306 -121.5q-163 0 -265.5 99t-102.5 231zM212 265 q0 -109 67.5 -175.5t177.5 -66.5q114 0 192 80t78 191q0 84 -45.5 176.5t-167.5 226.5q-149 -62 -225.5 -179.5t-76.5 -252.5zM472 1133q0 -67 29 -124q42 -84 151 -208q108 37 167.5 121t59.5 193q0 102 -57.5 160.5t-150.5 58.5q-89 0 -144 -56t-55 -145z" />
<glyph unicode="9" d="M59 8q103 22 179 64q135 74 242.5 183t191.5 253q-61 -30 -95 -39t-76 -9q-151 0 -231 103t-80 240q0 239 155.5 410t330.5 171q159 0 244 -119.5t85 -279.5q0 -203 -94 -401t-255 -341t-338 -212q-105 -41 -259 -55v32zM372 774q0 -120 55.5 -181.5t139.5 -61.5 q38 0 70 11.5t85 48.5q141 286 141 511q0 109 -53.5 169t-124.5 60q-118 0 -215.5 -165t-97.5 -392z" />
<glyph unicode=":" horiz-adv-x="682" d="M122 81q0 42 29.5 71.5t71.5 29.5t71 -29.5t29 -71.5q0 -41 -29.5 -70.5t-70.5 -29.5q-42 0 -71.5 29.5t-29.5 70.5zM333 805q0 42 30 71.5t72 29.5t72 -29.5t30 -71.5t-30 -72t-72 -30t-72 30t-30 72z" />
<glyph unicode=";" horiz-adv-x="682" d="M36 -222q105 60 130 93.5t25 65.5q0 20 -7 35q-3 9 -25.5 34.5t-26.5 36.5q-8 17 -8 37q0 42 30 73t69 31q42 0 73 -33t31 -86q0 -67 -37.5 -131.5t-103.5 -116.5q-24 -18 -133 -74zM336 802q0 43 29.5 72.5t72.5 29.5q42 0 72 -29.5t30 -72.5q0 -42 -30 -72t-72 -30 t-72 30t-30 72z" />
<glyph unicode="&#x3c;" horiz-adv-x="1382" d="M150 657v49l1076 466v-87l-926 -402l926 -406v-90z" />
<glyph unicode="=" horiz-adv-x="1382" d="M200 475v82h1079v-82h-1079zM200 801v82h1079v-82h-1079z" />
<glyph unicode="&#x3e;" horiz-adv-x="1382" d="M150 187v86l927 402l-927 406v91l1076 -470v-49z" />
<glyph unicode="?" d="M198 70q0 43 29.5 72.5t72.5 29.5q42 0 72 -29.5t30 -72.5q0 -42 -30 -71.5t-72 -29.5t-72 29.5t-30 71.5zM277 1155q0 88 85.5 160t233.5 72q154 0 248.5 -86.5t94.5 -197.5q0 -89 -44 -155q-58 -86 -220 -197.5t-223 -196.5t-92 -221h-38q14 127 61 219t184 237.5 t181 234.5q31 63 31 130q0 79 -56 133.5t-144 54.5q-85 0 -138 -36q-30 -20 -30 -49q0 -20 16.5 -55t16.5 -58q0 -34 -24 -57t-59 -23t-59.5 25t-24.5 66z" />
<glyph unicode="@" horiz-adv-x="1884" d="M97 444q0 264 124 492.5t347.5 357t474.5 128.5q207 0 373.5 -85.5t253.5 -250t87 -349.5q0 -183 -81.5 -362.5t-207.5 -261.5t-263 -82q-76 0 -114.5 36t-38.5 101q0 56 18 147q-148 -179 -237 -232t-157 -53q-71 0 -126 63.5t-55 169.5q0 145 94.5 325t250.5 293 q115 83 206 83q67 0 111.5 -34.5t60.5 -103.5l33 110l157 22l-117 -399q-65 -224 -79 -284t-14 -96q0 -32 21.5 -54t53.5 -22q73 0 175.5 73t175.5 237t73 342q0 171 -82.5 316t-233 222.5t-332.5 77.5q-231 0 -429 -122.5t-313.5 -352.5t-115.5 -478q0 -230 101.5 -418 t285.5 -284.5t396 -96.5q263 0 475.5 141t328.5 412h58q-90 -274 -327 -444t-540 -170q-238 0 -442 112.5t-317 319t-113 454.5zM653 293q0 -63 35.5 -102.5t79.5 -39.5q58 0 122 44t134 135.5t102 183.5q56 159 56 259q0 66 -36.5 105t-88.5 39q-75 0 -152 -79 q-113 -116 -193 -313q-59 -144 -59 -232z" />
<glyph unicode="A" horiz-adv-x="1251" d="M-100 0l11 37q74 3 130.5 49.5t168.5 198.5l810 1102h35l-103 -1128q-8 -79 -8 -104q0 -40 15 -61q19 -29 51.5 -43t109.5 -14l-11 -37h-534l11 37h23q65 0 106 28q29 19 45 63q11 31 21 146l16 172h-388l-138 -187q-47 -63 -59 -90.5t-12 -51.5q0 -32 26 -55t86 -25 l-11 -37h-401zM464 519h341l52 535z" />
<glyph unicode="B" horiz-adv-x="1251" d="M-47 0l13 37q78 2 106 15q40 17 57 45q24 38 64 174l243 821q31 104 31 146q0 37 -27.5 58.5t-104.5 21.5q-17 0 -32 1l14 37h484q122 0 217.5 -38t143 -106t47.5 -144q0 -117 -84.5 -211.5t-275.5 -139.5q123 -46 181 -122t58 -167q0 -101 -52 -193t-133.5 -143 t-196.5 -75q-82 -17 -256 -17h-497zM309 88q108 -14 169 -14q156 0 276.5 94t120.5 255q0 123 -74.5 192t-240.5 69q-32 0 -78 -3zM506 756q65 -2 94 -2q208 0 309.5 90.5t101.5 226.5q0 103 -62 160.5t-198 57.5q-36 0 -92 -12z" />
<glyph unicode="C" horiz-adv-x="1366" d="M138 505q0 222 119 432t326.5 330t418.5 120q99 0 222 -47q54 -20 78 -20t42 10t60 57h37l-101 -439h-36l-4 110q-5 60 -23 107t-54 81.5t-91 54t-122 19.5q-179 0 -313 -98q-171 -125 -268 -353q-80 -188 -80 -381q0 -197 115 -314.5t299 -117.5q139 0 247.5 62 t201.5 191h47q-110 -175 -244 -257.5t-321 -82.5q-166 0 -294 69.5t-195 195.5t-67 271z" />
<glyph unicode="D" horiz-adv-x="1479" d="M-61 0l13 37q79 2 106 14q40 17 59 46q29 42 65 169l240 820q28 97 28 152q0 39 -26 60t-102 21h-22l12 37h433q275 0 407.5 -63t211.5 -198.5t79 -290.5q0 -133 -45.5 -258.5t-103 -201t-176.5 -166.5t-258 -134.5t-347 -43.5h-574zM328 125q0 -16 10.5 -31t28.5 -20 q26 -9 84 -9q157 0 291.5 32.5t220.5 96.5q122 93 195 256t73 371q0 235 -112 349.5t-327 114.5q-53 0 -137 -4l-294 -1015q-33 -114 -33 -141z" />
<glyph unicode="E" horiz-adv-x="1251" d="M-46 0l13 37q78 2 105 14q40 18 58 46q27 41 64 172l238 818q28 99 28 151q0 38 -26.5 59.5t-103.5 21.5h-21l12 37h974l-84 -327h-37q7 46 7 77q0 53 -26 89q-34 46 -99 70q-48 18 -221 18h-172l-155 -536h127q136 0 197 41.5t105 153.5h37l-139 -492h-40q18 62 18 106 q0 43 -17.5 69t-48 38.5t-128.5 12.5h-129l-131 -449q-19 -65 -19 -99q0 -26 25 -46q17 -14 85 -14h120q195 0 312.5 69t210.5 240h37l-128 -377h-1048z" />
<glyph unicode="F" horiz-adv-x="1251" d="M-50 0l13 37q78 2 104 14q40 17 59 46q27 41 64 169l239 817q29 99 29 155q0 26 -13 44.5t-38.5 27.5t-101.5 9l12 37h1052l-100 -343h-38q11 62 11 102q0 66 -36.5 104.5t-93.5 54.5q-40 10 -179 10h-267l-160 -537h178q120 0 179.5 37t122.5 158h38l-141 -494h-40 q15 60 15 99q0 61 -40.5 94.5t-151.5 33.5h-180l-118 -409q-32 -109 -32 -145q0 -37 27.5 -57t134.5 -27l-12 -37h-536z" />
<glyph unicode="G" horiz-adv-x="1479" d="M142 525q0 176 74 334.5t184.5 268t240.5 172.5q179 87 376 87q145 0 262 -48q47 -19 69 -19q25 0 42.5 11.5t45.5 55.5h38l-101 -427h-38q9 75 9 111q0 98 -86.5 173.5t-238.5 75.5q-311 0 -508 -292q-157 -231 -157 -517q0 -190 97 -328t299 -138q50 0 94.5 9t134.5 40 l99 349q21 72 21 115q0 36 -26 55q-42 29 -136 29h-28l11 39h564l-10 -39q-77 -1 -112 -18t-60 -58q-17 -27 -55 -157l-100 -343q-137 -59 -221 -78.5t-177 -19.5q-214 0 -347 80.5t-196.5 213t-63.5 263.5z" />
<glyph unicode="H" horiz-adv-x="1479" d="M-54 0l13 37q79 2 105 14q40 18 59 46q26 41 64 170l240 819q29 100 29 152q0 26 -12.5 44.5t-39 27.5t-103.5 9l12 37h535l-11 -37h-8q-61 0 -91 -14q-47 -20 -69 -53q-30 -44 -66 -166l-98 -335h626l99 335q28 98 28 152q0 26 -12.5 44.5t-38.5 27.5t-102 9l10 37h546 l-12 -37h-8q-63 0 -95 -14q-48 -21 -71 -54q-33 -47 -67 -165l-239 -819q-30 -102 -30 -146q0 -38 26.5 -57.5t126.5 -26.5l-11 -37h-528l14 37q78 2 104 14q40 18 58 46q26 39 64 170l122 415h-629l-123 -415q-29 -100 -29 -146q0 -38 26 -57.5t126 -26.5l-8 -37h-532z" />
<glyph unicode="I" horiz-adv-x="682" d="M-64 0l14 37q84 2 111 14q44 17 65 47q33 47 68 168l236 818q30 102 30 154q0 26 -13 44t-39.5 27.5t-103.5 9.5l12 37h524l-11 -37h-8q-58 0 -87 -14q-45 -20 -68.5 -57t-60.5 -164l-235 -818q-32 -113 -32 -144q0 -25 12.5 -42.5t40 -27t114.5 -15.5l-11 -37h-558z" />
<glyph unicode="J" horiz-adv-x="909" d="M-70 152q0 60 37.5 100t89.5 40q45 0 73.5 -27t28.5 -66q0 -32 -26 -62q-33 -38 -33 -52q0 -21 19 -38t51 -17q46 0 95.5 22t93 67t76 108t66.5 172l49 173l149 514q33 113 33 141q0 38 -30 62t-127 30l11 37h534l-11 -37q-103 -1 -145 -37.5t-88 -195.5l-172 -597 q-49 -169 -99 -258q-67 -120 -180.5 -191t-254.5 -71q-116 0 -178 53.5t-62 129.5z" />
<glyph unicode="K" horiz-adv-x="1366" d="M-55 0l13 37q78 2 105 14q40 18 59 46q26 41 64 170l239 819q27 94 27 151q0 40 -25.5 61t-99.5 21h-20l12 37h509l-10 -37h-8q-57 0 -86 -14q-43 -21 -63 -54t-59 -165l-105 -348l482 363q96 72 126 114q18 26 18 47q0 18 -18.5 35t-56.5 22l10 37h434l-9 -37 q-71 -12 -119.5 -31.5t-99.5 -53.5q-15 -10 -195 -148l-415 -315l336 -519q90 -138 149 -176.5t155 -38.5l-11 -37h-578l9 37q69 7 97.5 33t28.5 59q0 30 -10 58q-8 20 -58 98l-275 431l-133 -449q-33 -108 -33 -145q0 -38 28 -58t138 -27l-16 -37h-536z" />
<glyph unicode="L" horiz-adv-x="1139" d="M-66 0l14 37q80 2 107 13q42 18 62 47q31 46 66 166l239 825q30 102 30 150q0 38 -27.5 59t-103.5 21q-17 0 -27 1l12 37h553l-8 -37q-93 0 -132 -18t-65 -59q-18 -27 -59 -168l-235 -811q-27 -92 -27 -128q0 -24 27 -46q17 -15 77 -15h131q143 0 227 36q62 27 114 81 q28 30 99 149l26 45h37l-132 -385h-1005z" />
<glyph unicode="M" horiz-adv-x="1706" d="M-67 0l11 37h27q99 0 143 50q32 36 67 156l295 1011q-33 34 -63 46t-111 19l10 37h337l125 -1092l787 1092h331v-37q-108 -7 -127 -14q-33 -13 -60.5 -52t-59.5 -150l-251 -860q-22 -75 -22 -118q0 -39 27 -59q38 -29 120 -29h24l-9 -37h-571l10 37h27q76 0 116 22 q31 16 55.5 60.5t68.5 197.5l224 786l-791 -1103h-40l-127 1103l-242 -839q-31 -107 -31 -144t27 -56.5t131 -26.5l-11 -37h-447z" />
<glyph unicode="N" horiz-adv-x="1366" d="M-57 0l14 37q80 2 107 14q41 18 61 47q29 44 65 170l269 943q-39 60 -83.5 82.5t-138.5 25.5l11 37h339l419 -1063l227 794q28 98 28 152q0 37 -26 58t-97 21q-12 0 -25 1l11 37h436l-12 -37h-8q-62 0 -93 -14q-47 -21 -70 -54q-32 -47 -65 -164l-319 -1118h-36 l-451 1144l-241 -845q-27 -96 -27 -147q0 -38 24.5 -57.5t116.5 -26.5l-10 -37h-426z" />
<glyph unicode="O" horiz-adv-x="1479" d="M122 443q0 190 91.5 375.5t218.5 310t271 191.5t306 67q135 0 239 -58.5t163 -173t59 -237.5q0 -218 -126.5 -457.5t-330.5 -365.5t-422 -126q-157 0 -262.5 69.5t-156 183.5t-50.5 221zM329 394q0 -142 73 -251.5t224 -109.5q91 0 178.5 45t182.5 154q119 137 200 349.5 t81 396.5q0 136 -73 240.5t-220 104.5q-100 0 -195.5 -49.5t-189.5 -162t-169 -294.5q-92 -224 -92 -423z" />
<glyph unicode="P" horiz-adv-x="1251" d="M-49 0l11 37q106 0 147.5 36.5t89.5 201.5l224 772q40 139 40 186q0 35 -28.5 58t-125.5 28l11 37h534q210 0 314 -90.5t104 -220.5q0 -103 -66 -200t-196 -157.5t-281 -60.5q-94 0 -239 34l-108 -370q-38 -132 -38 -174q0 -32 27 -53t129 -27l-10 -37h-539zM507 724 q113 -29 182 -29q109 0 198.5 45t140 135t50.5 187q0 101 -62 160t-188 59q-68 0 -165 -17z" />
<glyph unicode="Q" horiz-adv-x="1479" d="M97 -349l410 324q-190 26 -288 167t-98 301q0 219 132.5 453t339 362.5t405.5 128.5q148 0 252.5 -60t161.5 -174.5t57 -234.5q0 -230 -131 -466t-325.5 -357.5t-413.5 -125.5l-258 -209q61 11 113 11q50 0 92.5 -6t182 -37.5t243.5 -31.5q111 0 188.5 38.5t150.5 128.5 l33 -16q-103 -148 -243 -213.5t-297 -65.5q-87 0 -238 34q-231 51 -323 51q-35 0 -57 -5t-66 -24zM329 394q0 -142 73 -251.5t224 -109.5q90 0 178 45t182 153q120 138 201 351t81 396q0 135 -73 240t-221 105q-100 0 -195.5 -49.5t-189.5 -162t-169 -294.5 q-91 -224 -91 -423z" />
<glyph unicode="R" horiz-adv-x="1251" d="M-47 0l11 37q74 3 100 15q41 17 60 46q32 47 67 166l237 819q24 82 24 127q0 46 -38 78q-36 31 -103 31h-4l12 37h442q222 0 320 -84t98 -221q0 -131 -100.5 -239.5t-275.5 -137.5l132 -397q48 -146 96 -190t155 -50l-11 -37h-324l-217 659h-9q-72 0 -147 15l-117 -410 q-23 -80 -23 -135q0 -42 29 -66q22 -18 120 -26l-9 -37h-525zM495 731q64 -9 114 -9q172 0 272 95.5t100 237.5q0 111 -62.5 170t-187.5 59q-32 0 -76 -8z" />
<glyph unicode="S" d="M14 -31l112 503h34q-7 -73 -7 -121q0 -137 87.5 -223t228.5 -86q131 0 199 80.5t68 185.5q0 68 -31 124q-47 83 -251 292q-99 100 -127 149q-46 81 -46 170q0 142 106 243t272 101q56 0 106 -11q31 -6 113 -40q58 -23 64 -25q14 -3 31 -3q29 0 50 15t49 64h38l-104 -450 h-34q4 60 4 97q0 121 -80 198t-211 77q-104 0 -169 -61t-65 -141q0 -70 41.5 -133.5t191 -207t193.5 -224t44 -171.5q0 -103 -54.5 -199.5t-156.5 -149.5t-223 -53q-60 0 -112 11t-166 54q-39 15 -65 15q-59 0 -92 -80h-38z" />
<glyph unicode="T" horiz-adv-x="1139" d="M143 0l11 37h26q78 0 120 25q29 17 52.5 61.5t65.5 188.5l281 963h-81q-117 0 -188.5 -30t-115.5 -87t-72 -162h-37l95 360h1030l-111 -360h-38q19 79 19 141q0 73 -45 110q-34 28 -175 28h-107l-268 -934q-51 -176 -51 -217q0 -38 32 -62.5t113 -24.5h46l-12 -37h-590z " />
<glyph unicode="U" horiz-adv-x="1479" d="M218 349q0 59 11 126q8 44 39 152l134 461q28 100 28 147q0 37 -28.5 57.5t-143.5 26.5l10 37h573l-11 -37q-88 -2 -125.5 -16.5t-64 -51.5t-55.5 -137l-139 -480q-37 -128 -44 -168q-12 -64 -12 -119q0 -121 90 -204.5t241 -83.5q99 0 177 37.5t133.5 105t101.5 183 t81 233.5l120 414q45 155 45 202q0 33 -30.5 56.5t-123.5 28.5l11 37h431l-11 -37q-76 0 -109.5 -14.5t-58.5 -52t-56 -145.5l-147 -503q-71 -245 -134 -361.5t-182.5 -195t-296.5 -78.5q-204 0 -329 115.5t-125 264.5z" />
<glyph unicode="V" horiz-adv-x="1251" d="M256 1319l10 37h535l-11 -37q-87 -1 -119.5 -18t-51.5 -58q-10 -22 -21 -125l-80 -809l529 722q86 117 108 163q15 31 15 54q0 27 -23 47t-86 24l12 37h408l-10 -37q-49 -4 -78 -19q-55 -26 -109.5 -79t-172.5 -214l-764 -1038h-36l112 1129q8 86 8 116q0 45 -33.5 75 t-105.5 30h-36z" />
<glyph unicode="W" horiz-adv-x="1706" d="M249 1319l11 37h508l-11 -37h-5q-98 -1 -134 -37q-38 -38 -52 -183l-75 -732l515 795q1 20 1 34q0 56 -33 86t-142 37l8 37h549l-11 -37q-95 -1 -128 -16q-24 -11 -40.5 -35.5t-26.5 -83.5q-3 -17 -24.5 -232t-64.5 -585l429 652q70 107 88 150t18 73q0 28 -24 49.5 t-82 27.5l8 37h402l-10 -37q-53 -4 -94 -26t-97 -84q-32 -36 -132 -190l-681 -1050h-37l110 1050l-681 -1050h-34l117 1130q7 65 7 100q0 58 -33 88t-119 32z" />
<glyph unicode="X" horiz-adv-x="1251" d="M-137 0l11 37q85 8 139 39q79 47 218 187l394 396l-108 391q-49 180 -85.5 221.5t-127.5 47.5l10 37h485l-12 -37q-67 0 -90.5 -8.5t-36 -26t-12.5 -39.5q0 -24 24 -112l92 -334l213 212q126 126 173 203q17 27 17 48q0 23 -19 36q-27 18 -101 21l11 37h459l-11 -37 q-97 -14 -169.5 -58.5t-197.5 -177.5l-352 -360l99 -363q14 -52 52 -161q24 -70 48 -99t60.5 -44.5t110.5 -18.5l-11 -37h-532l11 37q82 3 118 31q27 20 27 52q0 28 -26 123l-95 341l-318 -321q-93 -95 -111 -125q-11 -18 -11 -35q0 -30 30 -49q14 -8 85 -17l-10 -37h-451z " />
<glyph unicode="Y" horiz-adv-x="1139" d="M184 0l12 37q85 2 113 14q45 18 67 48q34 46 70 165l119 396l-145 468q-39 124 -71.5 154t-113.5 37l10 37h501l-12 -37q-94 -7 -107 -12q-22 -7 -36 -28t-14 -49q0 -41 29 -140l110 -369l258 361q100 141 100 180q0 22 -21.5 36.5t-122.5 20.5l10 37h426l-8 -37 q-62 -8 -85 -17q-36 -15 -71 -47q-47 -42 -136 -165l-332 -458l-100 -335q-37 -126 -37 -174q0 -31 11.5 -47t40.5 -26q38 -12 116 -13l-10 -37h-571z" />
<glyph unicode="Z" horiz-adv-x="1139" d="M-4 0v29l1007 1254h-281q-184 0 -259 -16.5t-128.5 -67t-90.5 -152.5h-35l101 309h941v-37l-1007 -1254h157q254 0 358.5 25t174 87t116.5 176h38l-117 -353h-975z" />
<glyph unicode="[" horiz-adv-x="797" d="M13 -408l526 1795h426l-22 -69h-279l-484 -1654h278l-20 -72h-425z" />
<glyph unicode="\" horiz-adv-x="569" d="M218 1422h71l185 -1453h-74z" />
<glyph unicode="]" horiz-adv-x="797" d="M-205 -408l21 69h280l483 1654h-277l20 72h425l-526 -1795h-426z" />
<glyph unicode="^" horiz-adv-x="864" d="M56 671l431 716h30l425 -716h-92l-350 586l-350 -586h-94z" />
<glyph unicode="_" d="M-17 -358h1059v-84h-1059v84z" />
<glyph unicode="`" horiz-adv-x="682" d="M360 1402h221l109 -344h-32z" />
<glyph unicode="a" d="M48 203q0 159 95.5 335.5t242.5 282.5q115 84 217 84q61 0 101.5 -32t61.5 -106l36 114l159 24l-195 -678l-22 -91q-3 -13 -3 -22q0 -16 10 -28q8 -9 20 -9q13 0 34 16q39 29 104 120l34 -24q-69 -104 -142 -158.5t-135 -54.5q-43 0 -64.5 21.5t-21.5 62.5q0 49 22 129 l21 75q-131 -171 -241 -239q-79 -49 -155 -49q-73 0 -126 60.5t-53 166.5zM208 239q0 -68 34 -107.5t78 -39.5q109 0 237 161q171 214 171 439q0 85 -33 123t-90 38q-64 0 -136 -60q-102 -85 -181.5 -252t-79.5 -302z" />
<glyph unicode="b" d="M54 89l304 1047q35 121 35 142q0 26 -16 39q-23 18 -68 18q-21 0 -64 -7v38l346 56l-197 -691q96 100 167.5 137t149.5 37q110 0 180 -73t70 -198q0 -161 -92 -320.5t-231 -248.5t-274 -89q-151 0 -310 113zM204 78q100 -55 176 -55q88 0 182.5 64.5t164 217.5t69.5 309 q0 92 -45.5 144t-107.5 52q-93 0 -182 -74.5t-127 -207.5z" />
<glyph unicode="c" horiz-adv-x="909" d="M56 271q0 153 85.5 301t230 240.5t283.5 92.5q109 0 163 -45.5t54 -111.5q0 -62 -38 -106q-28 -34 -69 -34q-31 0 -51.5 20t-20.5 50q0 19 7.5 35t31 38.5t28.5 32.5t5 21q0 21 -19 35q-29 20 -82 20q-98 0 -194 -69t-164 -196q-82 -154 -82 -308q0 -102 58 -161.5 t158 -59.5q77 0 152.5 38.5t169.5 139.5l29 -26q-104 -125 -210 -183.5t-224 -58.5q-142 0 -221.5 80t-79.5 215z" />
<glyph unicode="d" d="M39 227q0 149 95 318t251 275q123 85 226 85q54 0 93 -22t77 -73l98 348q11 37 18 59q12 40 12 66q0 21 -15 35q-21 17 -54 17q-23 0 -76 -7v37l344 57l-344 -1180q-28 -96 -28 -126q0 -10 8.5 -19t17.5 -9q13 0 31 13q34 24 114 120l34 -21q-72 -100 -145.5 -162 t-137.5 -62q-34 0 -56 24t-22 68q0 57 30 153l39 124q-145 -224 -264 -310q-82 -59 -157 -59q-76 0 -132.5 67.5t-56.5 183.5zM207 248q0 -75 33 -114.5t79 -39.5q104 0 261 225t157 393q0 64 -37 103t-94 39q-126 0 -262.5 -208t-136.5 -398z" />
<glyph unicode="e" horiz-adv-x="909" d="M64 271q0 149 92 305t231 242.5t286 86.5q106 0 157 -43t51 -102q0 -83 -66 -159q-87 -99 -256 -160q-112 -41 -315 -64q-7 -50 -7 -83q0 -89 63 -151.5t153 -62.5q72 0 138.5 29.5t197.5 130.5l21 -29q-237 -235 -452 -235q-146 0 -220 92t-74 203zM251 426 q148 17 241 58q123 55 184.5 131.5t61.5 145.5q0 42 -26.5 68t-75.5 26q-102 0 -216.5 -108.5t-168.5 -320.5z" />
<glyph unicode="f" horiz-adv-x="569" d="M-357 -341q0 32 25.5 55.5t62.5 23.5q27 0 45.5 -17t18.5 -39t-21 -41q-16 -14 -16 -21q0 -9 7 -14q9 -7 28 -7q43 0 90.5 27t84.5 80.5t70 154.5q14 42 75 277l174 677h-174l14 66q83 0 116 11.5t60.5 44t71.5 121.5q59 120 113 186q74 89 155.5 133.5t153.5 44.5 q76 0 122 -38.5t46 -83.5q0 -35 -23 -59t-59 -24q-31 0 -50.5 18t-19.5 43q0 16 13 39.5t13 31.5q0 14 -9 21q-13 10 -38 10q-63 0 -113 -40q-67 -53 -120 -166q-27 -59 -99 -293h147l-18 -66h-146l-110 -437q-73 -289 -147 -447q-105 -223 -226 -308q-92 -65 -184 -65 q-60 0 -102 36q-31 25 -31 65z" />
<glyph unicode="g" d="M-55 -230q0 43 28.5 89.5t71.5 76.5q27 19 153 90q-46 36 -46 79q0 40 40.5 85t171.5 99q-110 21 -174.5 92t-64.5 158q0 142 124.5 254t331.5 112q75 0 123 -15t93 -47h270l-29 -104h-167q19 -54 19 -101q0 -132 -112 -235q-113 -103 -310 -114q-106 -32 -159 -76 q-20 -16 -20 -33q0 -20 18 -36.5t91 -33.5l194 -45q161 -38 213 -90q51 -53 51 -122q0 -82 -60.5 -150t-177 -106.5t-257.5 -38.5q-124 0 -226 29.5t-146 79.5t-44 103zM77 -209q0 -66 60 -109q86 -62 252 -62q143 0 244.5 48.5t101.5 125.5q0 39 -37.5 74t-145.5 57 q-59 12 -311 75q-81 -37 -122.5 -95t-41.5 -114zM299 508q0 -77 47 -126t114 -49q53 0 102.5 29t83.5 80t54 130t20 114q0 80 -44.5 126t-116.5 46q-113 0 -186.5 -113.5t-73.5 -236.5z" />
<glyph unicode="h" d="M41 0l329 1144l35 124q0 26 -21.5 46t-52.5 20q-18 0 -55 -6l-21 -3v39l346 58l-281 -971q182 274 284 364t195 90q48 0 80 -33t32 -88q0 -66 -28 -160l-122 -419q-23 -76 -23 -84q0 -14 8.5 -23t19.5 -9q13 0 30 13q57 44 113 122l31 -19q-34 -53 -94.5 -116.5t-104 -88 t-77.5 -24.5q-37 0 -60.5 23.5t-23.5 60.5q0 44 35 164l115 400q22 75 22 118q0 20 -12.5 32t-32.5 12q-29 0 -66 -22q-68 -42 -157 -156q-24 -31 -160 -250q-42 -70 -69 -153l-64 -205h-150z" />
<glyph unicode="i" horiz-adv-x="569" d="M88 62q0 37 25 123l130 448q32 110 32 138q0 22 -15.5 36t-42.5 14q-22 0 -91 -11v39l345 56l-198 -701q-20 -71 -20 -85q0 -16 9.5 -26t22.5 -10q15 0 36 16q57 45 115 128l35 -23q-68 -104 -160 -175q-68 -53 -130 -53q-41 0 -67 24.5t-26 61.5zM358 1202q0 42 29 71 t71 29t71 -29t29 -71q0 -41 -29.5 -70.5t-70.5 -29.5t-70.5 29.5t-29.5 70.5z" />
<glyph unicode="j" horiz-adv-x="569" d="M-352 -344q0 31 24.5 54.5t56.5 23.5q29 0 51 -19q18 -15 18 -34q0 -26 -25 -45q-14 -11 -14 -18l2 -5q3 -4 9 -6t18 -2q81 0 138.5 51.5t102.5 205.5l224 768q33 113 33 125q0 24 -21.5 43t-54.5 19q-13 0 -30 -3q-13 -2 -38 -6v35l343 62l-259 -895 q-69 -240 -189.5 -346t-260.5 -106q-63 0 -95.5 29t-32.5 69zM368 1200q0 42 29.5 71.5t71.5 29.5t71.5 -29.5t29.5 -71.5t-29.5 -71.5t-71.5 -29.5t-71.5 29.5t-29.5 71.5z" />
<glyph unicode="k" horiz-adv-x="909" d="M20 0l332 1141l28 97q5 25 5 44q0 24 -18.5 40t-53.5 16q-23 0 -73 -10v35l346 59l-284 -983l114 97q187 158 243 234q18 25 18 38q0 9 -6 17t-23.5 13t-61.5 5h-35l11 38h437l-10 -38q-75 -4 -129.5 -23.5t-105.5 -57.5q-101 -75 -133 -104l-86 -76q22 -72 54 -201 q54 -214 73 -254t39 -40q17 0 40 17q52 38 111 121l35 -25q-109 -137 -167 -180.5t-106 -43.5q-42 0 -65 33q-40 59 -133 465l-137 -119l-103 -355h-156z" />
<glyph unicode="l" horiz-adv-x="569" d="M79 62q0 36 32 148l271 938q33 115 33 132q0 24 -19 39.5t-59 15.5q-23 0 -70 -7v37l342 57l-342 -1190q-25 -89 -25 -109q0 -15 9.5 -25t23.5 -10q19 0 41 17q52 41 109 127l30 -31q-95 -134 -175 -187q-59 -38 -112 -38q-38 0 -63.5 26t-25.5 60z" />
<glyph unicode="m" horiz-adv-x="1479" d="M35 0l185 648l24 84q7 19 7 28q0 22 -20 39.5t-51 17.5q-13 0 -72 -12l-9 37l345 63l-130 -451q87 159 148 239q95 124 185 180q53 32 111 32q50 0 83 -32t33 -82q0 -49 -23 -128l-71 -254q163 305 309 428q81 68 160 68q46 0 75.5 -31.5t29.5 -97.5q0 -58 -18 -123 l-110 -389q-36 -127 -36 -141t9 -24q6 -7 16 -7t35 19q57 44 107 116l33 -21q-25 -40 -88.5 -110t-108.5 -95t-83 -25q-35 0 -58.5 24t-23.5 59q0 48 41 193l91 321q31 111 33 123q3 19 3 37q0 25 -11 39q-12 14 -27 14q-42 0 -89 -43q-138 -127 -258 -356 q-79 -151 -148 -387h-151l171 605q28 98 28 131q0 27 -11 40t-27 13q-33 0 -70 -24q-60 -39 -154.5 -167t-146.5 -245q-25 -55 -119 -353h-148z" />
<glyph unicode="n" d="M39 0l182 626q32 113 32 136q0 22 -17.5 38.5t-43.5 16.5q-12 0 -42 -4l-38 -6l-6 36l346 62l-133 -455q187 279 286.5 367t191.5 88q50 0 82.5 -33t32.5 -86q0 -60 -29 -160l-122 -421q-21 -73 -21 -89q0 -14 8 -23.5t17 -9.5q12 0 29 13q53 42 116 128l31 -19 q-93 -133 -176 -190q-58 -39 -104 -39q-37 0 -59 22.5t-22 60.5q0 48 34 165l116 402q22 75 22 117q0 20 -13 32.5t-32 12.5q-28 0 -67 -24q-74 -45 -154 -148.5t-169 -264.5q-47 -85 -78 -186l-50 -165h-150z" />
<glyph unicode="o" d="M60 290q0 147 84.5 295t226 234t273.5 86t217.5 -87t85.5 -226q0 -150 -79.5 -297t-221.5 -233t-276 -86q-137 0 -223.5 87.5t-86.5 226.5zM224 224q0 -95 48 -146.5t121 -51.5q141 0 264.5 209.5t123.5 425.5q0 93 -45.5 142.5t-117.5 49.5q-147 0 -270.5 -210.5 t-123.5 -418.5z" />
<glyph unicode="p" d="M-226 -438l10 37q93 4 125.5 32t68.5 155l253 876q23 83 23 103q0 27 -15.5 42t-47.5 15q-29 0 -81 -7v39l343 51l-69 -230q109 128 194.5 179t174.5 51t152 -70.5t63 -183.5q0 -220 -179 -447.5t-417 -227.5q-50 0 -88.5 11t-86.5 39l-73 -258q-22 -76 -22 -99 q0 -22 11.5 -37.5t37.5 -24t103 -8.5l-9 -37h-471zM220 105q62 -74 167 -74q52 0 106 29t105.5 86t92.5 131.5t73.5 175.5t32.5 200q0 80 -36.5 122.5t-85.5 42.5q-108 0 -213.5 -124t-154.5 -290z" />
<glyph unicode="q" d="M45 233q0 151 93 317t245 272q118 83 214 83q71 0 117 -34.5t69 -110.5l31 112l157 33l-327 -1130q-22 -78 -22 -100q0 -23 11.5 -39.5t31.5 -24.5q31 -12 81 -12l-10 -37h-479l10 37q98 8 122 17q38 15 62.5 49t54.5 143l138 493q-132 -193 -246 -271q-81 -55 -151 -55 q-100 0 -151 81.5t-51 176.5zM216 250q0 -75 33.5 -114t81.5 -39q61 0 138 68q117 103 195.5 264.5t78.5 280.5q0 64 -39 105t-96 41q-122 0 -257 -210t-135 -396z" />
<glyph unicode="r" horiz-adv-x="797" d="M42 0l185 621q32 108 32 154q0 18 -15 30q-20 16 -53 16q-21 0 -77 -9l-7 37l345 56l-144 -486q175 299 318 418q81 68 132 68q33 0 52 -19.5t19 -56.5q0 -66 -34 -126q-24 -45 -69 -45q-23 0 -39.5 15t-20.5 46q-2 19 -9 25q-8 8 -19 8q-17 0 -32 -8q-26 -14 -79 -78 q-83 -98 -180 -254q-42 -66 -72 -149q-42 -114 -48 -137l-32 -126h-153z" />
<glyph unicode="s" horiz-adv-x="797" d="M-19 -24l61 324h37q6 -152 63 -215t156 -63q76 0 120.5 42.5t44.5 104.5q0 40 -16 74q-28 60 -117.5 166t-115 159t-25.5 106q0 97 70.5 164t181.5 67q32 0 58 -5q14 -3 65.5 -22.5t68.5 -19.5q43 0 72 47h38l-61 -307h-37q-5 134 -57 195t-129 61q-62 0 -98.5 -34 t-36.5 -82q0 -33 14.5 -63t63.5 -84q130 -142 168 -214t38 -136q0 -104 -86.5 -184.5t-218.5 -80.5q-72 0 -166 34q-33 12 -51 12q-45 0 -68 -46h-37z" />
<glyph unicode="t" horiz-adv-x="569" d="M84 74q0 54 32 165l167 579h-151l10 39q110 30 183 89.5t163 206.5h44l-78 -272h157l-17 -63h-156l-172 -590q-28 -95 -28 -123q0 -17 8 -26t19 -9q25 0 66 35q24 20 107 123l33 -25q-92 -134 -174 -189q-56 -38 -113 -38q-44 0 -72 27.5t-28 70.5z" />
<glyph unicode="u" d="M60 691q75 116 159 171q64 43 118 43q37 0 60.5 -23.5t23.5 -60.5q0 -54 -40 -193l-94 -323q-39 -132 -39 -167q0 -19 12.5 -30.5t33.5 -11.5q33 0 86 33t141.5 146.5t146 213t122.5 316.5l22 76h152l-174 -596q-39 -133 -39 -168q0 -18 6.5 -26.5t17.5 -8.5 q17 0 37.5 15.5t103.5 123.5l30 -23q-79 -125 -162 -184q-55 -38 -106 -38q-39 0 -61 22t-22 57q0 34 13 90q16 74 91 322q-170 -279 -284.5 -385t-212.5 -106q-46 0 -78 32t-32 81q0 75 44 230l87 309q32 111 32 138q0 12 -8.5 20.5t-18.5 8.5q-21 0 -42 -15t-95 -111z" />
<glyph unicode="v" horiz-adv-x="909" d="M44 843l289 62q31 -74 50 -151q27 -113 44 -268q8 -78 22 -330q125 138 149 171q132 179 152 210q33 53 46 93q11 30 11 57q0 26 -46.5 60t-46.5 76q0 32 25.5 57t60.5 25q42 0 74 -34.5t32 -85.5t-16 -98q-26 -76 -97 -185.5t-229 -293.5q-20 -23 -222 -232h-37 q-24 633 -100 790q-25 51 -83 51q-25 0 -71 -9z" />
<glyph unicode="w" horiz-adv-x="1366" d="M35 802v36l287 67q60 -167 78 -513q6 -131 10 -165l411 678h37l69 -750q174 204 278 383q61 105 61 152q0 22 -10 39q-4 9 -31.5 26.5t-38.5 36t-11 39.5q0 31 23 52.5t59 21.5q41 0 69.5 -30.5t28.5 -81.5q0 -52 -15 -97q-30 -86 -117 -222q-106 -163 -218.5 -302.5 t-167.5 -195.5h-37l-65 692l-413 -692h-44q-7 427 -43 674q-15 103 -50 135q-25 23 -76 23q-29 0 -74 -6z" />
<glyph unicode="x" horiz-adv-x="909" d="M-72 64q0 33 22 55t54 22t68 -32q26 -23 40 -23q12 0 31 16q47 38 128 164t106 182q-62 243 -67 257q-23 65 -60 92t-109 27q-23 0 -53 -2v36l267 47q49 -52 74 -104q18 -36 59 -189l88 132q35 48 85 91.5t88 59.5q24 10 53 10q43 0 68.5 -23t25.5 -56q0 -38 -15 -52 q-28 -25 -64 -25q-21 0 -45 9q-47 16 -63 16q-24 0 -57 -28q-62 -52 -148 -201l82 -344q19 -79 32 -94.5t26 -15.5q21 0 49 23q55 46 94 120l35 -18q-63 -118 -160 -196q-55 -44 -93 -44q-56 0 -89 63q-21 39 -87 336q-156 -271 -250 -349q-61 -50 -118 -50q-40 0 -73 29 q-24 22 -24 59z" />
<glyph unicode="y" horiz-adv-x="909" d="M-164 -364q0 39 32.5 71t70.5 32q20 0 33 -9q8 -5 17.5 -28.5t17.5 -31.5q5 -5 12 -5q6 0 21 10q55 34 128 108q96 98 142 160l-56 634q-14 157 -42 191t-94 34q-21 0 -75 -6l-9 37l293 72q34 -58 47 -108.5t26 -198.5l44 -492q60 72 174 228q55 76 136 207q49 80 60 112 q6 16 6 33q0 11 -7 18t-36.5 16.5t-49 35t-19.5 58.5q0 41 24 66t60 25q44 0 75 -36.5t31 -100.5q0 -79 -54 -180.5t-208 -311.5t-373 -458q-151 -171 -224 -215.5t-125 -44.5q-31 0 -54.5 23.5t-23.5 54.5z" />
<glyph unicode="z" horiz-adv-x="797" d="M-57 0v29l692 720h-288q-91 0 -110 -5q-28 -6 -55.5 -31.5t-56.5 -84.5h-38l85 253h635v-25l-692 -720h293q104 0 132 8t51.5 34t52.5 94h37l-87 -272h-651z" />
<glyph unicode="{" horiz-adv-x="819" d="M141 470l12 41q103 13 177 67t104 123q20 47 28 185.5t63 242.5t178.5 189t268.5 104l-10 -35q-113 -26 -183 -80t-102 -129q-22 -52 -29.5 -181.5t-43 -210.5t-131 -163.5t-243.5 -129.5q102 -43 154 -115t52 -158q0 -87 -78 -233.5t-78 -213.5q0 -65 38 -110t130 -70 l-11 -35q-131 19 -204.5 100t-73.5 193q0 102 77.5 248t77.5 203q0 64 -43.5 110t-129.5 58z" />
<glyph unicode="|" horiz-adv-x="563" d="M237 -442v1864h83v-1864h-83z" />
<glyph unicode="}" horiz-adv-x="819" d="M-153 -442l10 35q113 27 183 80.5t102 128.5q22 53 29.5 182.5t38.5 199.5q39 91 135 173.5t244 130.5q-102 42 -154 114.5t-52 158.5q0 87 78 233.5t78 212.5t-38 111t-130 69l10 35q131 -18 205 -99t74 -193q0 -103 -78 -248.5t-78 -202.5q0 -64 44 -110t130 -58 l-12 -41q-102 -13 -176 -67t-105 -123q-20 -46 -28 -185.5t-63.5 -243.5t-178.5 -189t-268 -104z" />
<glyph unicode="~" horiz-adv-x="1108" d="M20 400q6 135 74 206.5t160 71.5q44 0 90 -14q104 -30 273.5 -102.5t238.5 -72.5q75 0 126 48t60 138h45q-4 -130 -74 -203.5t-171 -73.5q-46 0 -99 15.5t-274 105.5q-154 64 -219 64q-70 0 -118 -43t-68 -140h-44z" />
<glyph unicode="&#xa2;" d="M114 267q0 223 158.5 411.5t375.5 226.5l120 398h56l-116 -398q117 0 168.5 -44.5t51.5 -117.5q0 -60 -31 -97t-72 -37q-33 0 -52.5 18.5t-19.5 48.5q0 21 8 37t36 46t28 50q0 11 -9 21q-13 16 -35.5 23t-85.5 7l-236 -791l41 -3q168 0 324 180l26 -25 q-87 -120 -186 -177t-232 -68l-108 -353h-58l107 353q-121 13 -190 91t-69 200zM284 291q0 -83 34 -138q26 -39 87 -71l229 766q-90 -39 -147 -92q-98 -93 -150.5 -215.5t-52.5 -249.5z" />
<glyph unicode="&#xa3;" d="M49 89q0 67 56.5 118t140.5 51q15 0 34.5 -1t42.5 -4q20 106 51 404h-231l25 85h219q84 380 224 525q113 117 270 117q87 0 140 -48t53 -111q0 -41 -25 -66.5t-61 -25.5q-40 0 -68 31q-15 17 -28.5 71.5t-23.5 66.5q-22 25 -51 25q-38 0 -69 -32q-47 -48 -89 -185 q-18 -61 -83 -368h270l-25 -85h-265q-55 -244 -136 -432q39 -15 96 -40q91 -41 142 -55t93 -14q43 0 81 20t70 60h44q-57 -113 -135 -170t-177 -57q-63 0 -119.5 25t-160.5 107q-44 -66 -89.5 -99t-92.5 -33q-53 0 -88 33.5t-35 86.5zM102 88q0 -30 19 -51t45 -21 q33 0 65.5 28.5t59.5 100.5q-29 16 -52.5 24t-41.5 8q-39 0 -67 -26.5t-28 -62.5z" />
<glyph unicode="&#xa5;" d="M-14 377l20 66h433l63 209h-453l19 67h416l-123 403q-36 117 -66 151.5t-85 44.5l9 38h445l-10 -38q-88 0 -118 -23.5t-30 -61.5q0 -42 25 -127l114 -387l275 379q90 126 90 168q0 17 -20 31q-28 18 -110 21l9 38h386l-11 -38q-58 -6 -107 -41t-131 -148l-300 -410h395 l-20 -67h-424l-13 -18l-57 -191h452l-21 -66h-451l-30 -100q-32 -108 -32 -160q0 -35 24 -53q31 -23 129 -27l-14 -37h-515l10 37q84 5 107 16q38 19 62 56q17 25 54 149l36 119h-432z" />
<glyph unicode="&#xa8;" horiz-adv-x="682" d="M268 1232q0 45 31.5 76.5t75.5 31.5q45 0 76.5 -31.5t31.5 -76.5q0 -44 -31.5 -75.5t-76.5 -31.5q-44 0 -75.5 31.5t-31.5 75.5zM624 1232q0 45 31 76.5t76 31.5t76 -31.5t31 -76.5q0 -44 -31 -75.5t-76 -31.5q-44 0 -75.5 31.5t-31.5 75.5z" />
<glyph unicode="&#xa9;" horiz-adv-x="1556" d="M139 678q0 185 95.5 355.5t265.5 262t348 91.5q179 0 349 -91.5t265.5 -262t95.5 -355.5q0 -184 -94 -353t-263 -262.5t-353 -93.5t-352.5 93.5t-262.5 262.5t-94 353zM201 678q0 -168 85.5 -322t239.5 -240t322 -86t322.5 86t240 240t85.5 322q0 169 -87 324.5 t-242 239.5t-319 84q-163 0 -318 -84t-242 -239.5t-87 -324.5zM390 672q0 192 140 327.5t358 135.5q46 0 76.5 -6t108.5 -32q25 -8 37 -8q16 0 27 8.5t22 36.5h40l20 -280h-39q-36 119 -114.5 177.5t-188.5 58.5q-82 0 -146 -34t-105 -91q-30 -43 -50 -114t-20 -150 q0 -212 91 -312.5t240 -100.5q195 0 312 162l37 -19q-139 -203 -383 -203q-200 0 -331.5 129.5t-131.5 314.5z" />
<glyph unicode="&#xab;" d="M84 442l469 478h53l-340 -478l109 -473h-44zM467 442l467 478h54l-340 -478l111 -473h-44z" />
<glyph unicode="&#xad;" horiz-adv-x="682" d="M54 378l41 133h518l-41 -133h-518z" />
<glyph unicode="&#xae;" horiz-adv-x="1556" d="M139 678q0 185 95.5 355.5t265.5 262t348 91.5q179 0 349 -91.5t265.5 -262t95.5 -355.5q0 -184 -94 -353t-263 -262.5t-353 -93.5t-352.5 93.5t-262.5 262.5t-94 353zM201 678q0 -168 85.5 -322t239.5 -240t322 -86t322.5 86t240 240t85.5 322q0 169 -87 324.5 t-242 239.5t-319 84q-163 0 -318 -84t-242 -239.5t-87 -324.5zM444 249v33q48 0 68 11.5t29 33.5q7 16 7 93v523q0 74 -3 87q-7 23 -25.5 35.5t-63.5 12.5v36h386q145 0 221 -65.5t76 -158.5q0 -76 -51.5 -133.5t-170.5 -88.5l209 -298q38 -53 68 -73q19 -12 53 -15v-33 h-184l-294 405h-76v-309q6 -33 28.5 -48t89.5 -15v-33h-367zM693 697q118 0 172.5 23t83.5 64.5t29 94.5q0 81 -56.5 136t-144.5 55q-38 0 -84 -16v-357z" />
<glyph unicode="&#xb4;" horiz-adv-x="682" d="M409 1059l103 343h225l-294 -343h-34z" />
<glyph unicode="&#xb8;" horiz-adv-x="682" d="M-37 -348l12 33q50 -12 86 -12q64 0 99.5 30.5t35.5 73.5q0 37 -21 55q-28 23 -84 24l110 174h59l-45 -76q59 -13 91 -52t32 -94q0 -67 -56 -115q-76 -63 -178 -63q-55 0 -141 22z" />
<glyph unicode="&#xbb;" d="M37 -31l339 477l-110 474h44l248 -474l-468 -477h-53zM418 -31l341 477l-110 474h44l248 -474l-469 -477h-54z" />
<glyph unicode="&#x2c6;" horiz-adv-x="682" d="M254 1071l311 316h150l75 -316h-21l-169 202l-319 -202h-27z" />
<glyph unicode="&#x2da;" horiz-adv-x="682" d="M381 1232q0 79 55 134t134 55t134 -55t55 -134q0 -78 -55.5 -133.5t-133.5 -55.5t-133.5 55.5t-55.5 133.5zM446 1232q0 -51 36.5 -87.5t88.5 -36.5q51 0 87.5 36.5t36.5 87.5q0 52 -36 88.5t-88 36.5t-88.5 -36.5t-36.5 -88.5z" />
<glyph unicode="&#x2dc;" horiz-adv-x="682" d="M198 1106q7 140 60 200t128 60q73 0 178.5 -70t144.5 -70q35 0 57 26q29 33 39 112h30q3 -126 -53 -194t-131 -68q-73 0 -168.5 61t-117.5 71q-17 8 -39 8q-37 0 -59.5 -26t-36.5 -110h-32z" />
<glyph unicode="&#x400;" horiz-adv-x="1251" d="M-46 0l13 37q78 2 105 14q40 18 58 46q27 41 64 172l238 818q28 99 28 151q0 38 -26.5 59.5t-103.5 21.5h-21l12 37h974l-84 -327h-37q7 46 7 77q0 53 -26 89q-34 46 -99 70q-48 18 -221 18h-172l-155 -536h127q136 0 197 41.5t105 153.5h37l-139 -492h-40q18 62 18 106 q0 43 -17.5 69t-48 38.5t-128.5 12.5h-129l-131 -449q-19 -65 -19 -99q0 -26 25 -46q17 -14 85 -14h120q195 0 312.5 69t210.5 240h37l-128 -377h-1048zM724 1809h221l109 -344h-32z" />
<glyph unicode="&#x401;" horiz-adv-x="1251" d="M-46 0l13 37q78 2 105 14q40 18 58 46q27 41 64 172l238 818q28 99 28 151q0 38 -26.5 59.5t-103.5 21.5h-21l12 37h974l-84 -327h-37q7 46 7 77q0 53 -26 89q-34 46 -99 70q-48 18 -221 18h-172l-155 -536h127q136 0 197 41.5t105 153.5h37l-139 -492h-40q18 62 18 106 q0 43 -17.5 69t-48 38.5t-128.5 12.5h-129l-131 -449q-19 -65 -19 -99q0 -26 25 -46q17 -14 85 -14h120q195 0 312.5 69t210.5 240h37l-128 -377h-1048zM672 1632q0 45 31.5 76.5t75.5 31.5q45 0 76.5 -31.5t31.5 -76.5q0 -44 -31.5 -75.5t-76.5 -31.5q-44 0 -75.5 31.5 t-31.5 75.5zM1028 1632q0 45 31 76.5t76 31.5t76 -31.5t31 -76.5q0 -44 -31 -75.5t-76 -31.5q-44 0 -75.5 31.5t-31.5 75.5z" />
<glyph unicode="&#x402;" horiz-adv-x="1632" d="M193 0l12 37q119 8 158.5 45t94.5 223l286 982h-81q-131 0 -202 -25.5t-120.5 -80.5t-86.5 -136h-37l87 311h1115l-86 -311h-37q-2 127 -67.5 184.5t-227.5 57.5h-77l-166 -572q220 190 442 190q113 0 193 -45.5t123 -111.5t43 -174q0 -222 -172 -406t-361 -184 q-90 0 -152 35l24 32q48 -24 96 -24q129 0 242 206.5t113 351.5q0 105 -63.5 163t-160.5 58q-91 0 -178.5 -44.5t-226.5 -164.5l-87 -300q-39 -138 -39 -176q0 -82 176 -84l-12 -37h-565z" />
<glyph unicode="&#x403;" horiz-adv-x="1165" d="M-74 0l12 37q130 1 168.5 46.5t78.5 179.5l239 799q34 113 34 164q0 55 -32.5 71.5t-135.5 21.5l12 37h1057l-105 -358h-37q10 84 10 118q0 105 -52 138t-189 33h-320l-301 -1024q-32 -106 -32 -134q0 -52 37.5 -69.5t140.5 -22.5l-10 -37h-575zM759 1440l103 343h225 l-294 -343h-34z" />
<glyph unicode="&#x404;" horiz-adv-x="1370" d="M142 506q0 233 126.5 442.5t329 324t396.5 114.5q111 0 234 -47q54 -20 77 -20q46 0 103 67h37l-101 -439h-36q-3 147 -26.5 216t-93.5 112.5t-181 43.5q-227 0 -394.5 -177.5t-229.5 -417.5h482l-20 -69h-477q-15 -80 -15 -156q0 -203 111.5 -323.5t306.5 -120.5 q267 0 445 253h47q-206 -340 -565 -340q-251 0 -403.5 151.5t-152.5 385.5z" />
<glyph unicode="&#x405;" d="M14 -31l112 503h34q-7 -73 -7 -121q0 -137 87.5 -223t228.5 -86q131 0 199 80.5t68 185.5q0 68 -31 124q-47 83 -251 292q-99 100 -127 149q-46 81 -46 170q0 142 106 243t272 101q56 0 106 -11q31 -6 113 -40q58 -23 64 -25q14 -3 31 -3q29 0 50 15t49 64h38l-104 -450 h-34q4 60 4 97q0 121 -80 198t-211 77q-104 0 -169 -61t-65 -141q0 -70 41.5 -133.5t191 -207t193.5 -224t44 -171.5q0 -103 -54.5 -199.5t-156.5 -149.5t-223 -53q-60 0 -112 11t-166 54q-39 15 -65 15q-59 0 -92 -80h-38z" />
<glyph unicode="&#x406;" horiz-adv-x="682" d="M-64 0l14 37q84 2 111 14q44 17 65 47q33 47 68 168l236 818q30 102 30 154q0 26 -13 44t-39.5 27.5t-103.5 9.5l12 37h524l-11 -37q-64 1 -95 -14q-45 -20 -68.5 -57t-60.5 -164l-235 -818q-32 -113 -32 -144q0 -25 12.5 -42.5t40 -27t114.5 -15.5l-11 -37h-558z" />
<glyph unicode="&#x407;" horiz-adv-x="682" d="M-64 0l14 37q84 2 111 14q44 17 65 47q33 47 68 168l236 818q30 102 30 154q0 26 -13 44t-39.5 27.5t-103.5 9.5l12 37h524l-11 -37q-64 1 -95 -14q-45 -20 -68.5 -57t-60.5 -164l-235 -818q-32 -113 -32 -144q0 -25 12.5 -42.5t40 -27t114.5 -15.5l-11 -37h-558z M344 1604q0 45 31.5 76.5t75.5 31.5q45 0 76.5 -31.5t31.5 -76.5q0 -44 -31.5 -75.5t-76.5 -31.5q-44 0 -75.5 31.5t-31.5 75.5zM700 1604q0 45 31 76.5t76 31.5t76 -31.5t31 -76.5q0 -44 -31 -75.5t-76 -31.5q-44 0 -75.5 31.5t-31.5 75.5z" />
<glyph unicode="&#x408;" horiz-adv-x="909" d="M-70 152q0 60 37.5 100t89.5 40q45 0 73.5 -27t28.5 -66q0 -32 -26 -62q-33 -38 -33 -52q0 -21 19 -38t51 -17q46 0 95.5 22t93 67t76 108t66.5 172l49 173l149 514q33 113 33 141q0 38 -30 62t-127 30l11 37h534l-11 -37q-103 -1 -145 -37.5t-88 -195.5l-172 -597 q-49 -169 -99 -258q-67 -120 -180.5 -191t-254.5 -71q-116 0 -178 53.5t-62 129.5z" />
<glyph unicode="&#x409;" horiz-adv-x="1899" d="M-69 139q0 51 30.5 83t75.5 32q85 0 109 -127q8 -45 36 -45q17 0 43 20t84.5 144.5t127.5 342.5l129 409q59 191 59 226q0 93 -155 95l11 37h1065l-11 -37q-108 -2 -148.5 -38.5t-77.5 -162.5l-108 -366h136q173 0 260 -36t143.5 -122t56.5 -185q0 -145 -125 -277 t-435 -132h-605l11 37q108 2 148.5 35.5t82.5 176.5l307 1038h-456q-25 -117 -167 -573t-232.5 -593t-211.5 -137q-78 0 -130.5 45.5t-52.5 109.5zM1007 88q78 -14 171 -14q197 0 303 98.5t106 239.5q0 87 -47 153.5t-119.5 91.5t-194.5 25h-44z" />
<glyph unicode="&#x40a;" horiz-adv-x="1886" d="M-62 0l12 37q108 2 147.5 27.5t96.5 217.5l219 741q46 158 46 212q0 31 -24 56.5t-143 27.5l9 37h549l-12 -37q-99 -2 -143.5 -39.5t-84.5 -178.5l-101 -349h501l92 311q38 131 38 172q0 84 -137 84l11 37h529l-10 -37q-114 -3 -157 -43.5t-99 -227.5l-89 -296h137 q173 0 260 -36t143.5 -122t56.5 -185q0 -145 -125 -277t-435 -132h-605l10 37q110 2 150 36.5t82 175.5l128 433h-500l-126 -420q-26 -88 -26 -132q0 -52 36.5 -72.5t115.5 -20.5l-12 -37h-540zM995 88q78 -14 171 -14q212 0 310.5 104.5t98.5 233.5q0 87 -47.5 153.5 t-119.5 91.5t-194 25h-44z" />
<glyph unicode="&#x40b;" horiz-adv-x="1636" d="M198 0l12 37q122 1 159.5 39.5t90.5 220.5l287 990h-84q-122 0 -201 -30.5t-123.5 -79.5t-85.5 -132h-37l89 311h1117l-88 -311h-38q0 114 -52.5 178t-211.5 64h-109l-168 -583q88 85 192.5 143t250.5 58q137 0 212 -60t75 -160q0 -61 -33 -178l-73 -254 q-25 -87 -25 -122q0 -51 32.5 -71.5t107.5 -22.5l-10 -37h-500l10 37q104 4 135.5 36t77.5 191l72 249q28 95 28 139q0 80 -51 118t-124 38q-180 0 -409 -218l-101 -346q-24 -82 -24 -118q0 -85 176 -89l-11 -37h-565z" />
<glyph unicode="&#x40c;" horiz-adv-x="1360" d="M-57 0l13 37q78 0 110 14t58 38.5t65 161.5l242 852q26 92 26 122q0 55 -35 74.5t-119 19.5l13 37h562l-9 -37q-130 0 -175 -41t-97 -225l-87 -308q47 -1 68 -1q154 0 212.5 25t117.5 94.5t143 254.5q82 179 148 216.5t129 37.5q72 0 112 -36.5t40 -80.5q0 -42 -26 -77.5 t-74 -35.5q-31 0 -47.5 11.5t-46.5 52.5q-25 33 -54 33q-30 0 -50.5 -24t-64.5 -119q-95 -205 -167 -289.5t-175 -114.5q45 -17 94 -125l165 -361q45 -97 86.5 -129t141.5 -40l-8 -37h-314l-207 459q-59 130 -96.5 172t-107.5 42q-14 0 -42 -3l-120 -419q-26 -92 -26 -130 q0 -73 154 -84l-8 -37h-544zM856 1459l103 343h225l-294 -343h-34z" />
<glyph unicode="&#x40d;" horiz-adv-x="1479" d="M-52 0l12 37q105 0 144 37t74 159l236 798q43 145 43 214q0 30 -23.5 51t-126.5 23l9 37h539l-13 -37q-108 -4 -148 -45t-88 -200l-238 -789l892 923q0 65 -26.5 86.5t-125.5 24.5l12 37h543l-10 -37q-116 -8 -156.5 -49t-86.5 -196l-232 -789q-38 -128 -38 -167 q0 -81 149 -81l-10 -37h-526l11 37q110 0 147.5 41t91.5 224l227 772l-894 -929q-1 -10 -1 -19q0 -49 32.5 -69t121.5 -20l-12 -37h-529zM744 1809h221l109 -344h-32z" />
<glyph unicode="&#x40e;" horiz-adv-x="1378" d="M225 142q0 41 27 71.5t70 30.5q82 0 102 -105q18 -94 81 -94q81 0 168 144l-237 889q-41 158 -81 196.5t-114 44.5l11 37h505l-11 -37q-163 0 -163 -92q0 -23 15 -82l198 -765l464 765q55 90 55 115q0 59 -142 59l11 37h406l-11 -37q-80 -3 -128.5 -40t-127.5 -167 l-460 -757q-115 -190 -203 -288t-205 -98q-105 0 -167.5 56t-62.5 117zM674 1655q0 36 21.5 59.5t54.5 23.5q35 0 55 -21.5t47 -89.5q47 -118 143 -118q52 0 85.5 28t68.5 99q51 102 109 102q30 0 48.5 -21.5t18.5 -48.5q0 -79 -108 -141t-252 -62q-118 0 -204.5 62 t-86.5 128z" />
<glyph unicode="&#x40f;" horiz-adv-x="1479" d="M-51 0l12 37q82 0 119.5 19.5t58 66t73.5 226.5l217 730q30 101 30 158q0 45 -33.5 62.5t-119.5 19.5l12 37h535l-12 -37q-88 -2 -117.5 -20.5t-55 -56t-69.5 -186.5l-229 -776q-25 -84 -25 -123q0 -50 38 -69t144 -19h196q141 0 185 33.5t86 177.5l233 791 q33 114 33 167q0 43 -26.5 60t-125.5 21l12 37h542l-10 -37q-116 -5 -160 -52.5t-93 -216.5l-223 -762q-38 -131 -38 -166q0 -84 153 -85l-11 -37h-343q-100 0 -174 -30.5t-141 -121.5t-113 -250h-37q26 110 26 193q0 128 -60 168.5t-202 40.5h-287z" />
<glyph unicode="&#x410;" horiz-adv-x="1251" d="M-100 0l11 37q74 3 130.5 49.5t168.5 198.5l810 1102h35l-103 -1128q-8 -79 -8 -104q0 -40 15 -61q19 -29 51.5 -43t109.5 -14l-11 -37h-534l11 37h23q65 0 106 28q29 19 45 63q11 31 21 146l16 172h-388l-138 -187q-47 -63 -59 -90.5t-12 -51.5q0 -32 26 -55t86 -25 l-11 -37h-401zM464 519h341l52 535z" />
<glyph unicode="&#x411;" horiz-adv-x="1208" d="M-58 0l10 37q109 2 149.5 36.5t82.5 175.5l238 809q39 134 39 181q0 42 -30.5 60t-107.5 20l11 37h953l-103 -354h-37q11 65 11 118q0 69 -27 107t-73.5 49t-182.5 11h-209l-156 -535h136q174 0 261 -36t143 -122t56 -185q0 -119 -81.5 -227t-199.5 -145t-278 -37h-605z M317 88q78 -14 171 -14q212 0 310.5 104.5t98.5 233.5q0 87 -47.5 153.5t-119.5 91.5t-194 25h-45z" />
<glyph unicode="&#x412;" horiz-adv-x="1251" d="M-47 0l13 37q78 2 106 15q40 17 57 45q24 38 64 174l243 821q31 104 31 146q0 37 -27.5 58.5t-104.5 21.5q-17 0 -32 1l14 37h484q122 0 217.5 -38t143 -106t47.5 -144q0 -117 -84.5 -211.5t-275.5 -139.5q123 -46 181 -122t58 -167q0 -101 -52 -193t-133.5 -143 t-196.5 -75q-82 -17 -256 -17h-497zM309 88q108 -14 169 -14q156 0 276.5 94t120.5 255q0 123 -74.5 192t-240.5 69q-32 0 -78 -3zM506 756q65 -2 94 -2q208 0 309.5 90.5t101.5 226.5q0 103 -62 160.5t-198 57.5q-36 0 -92 -12z" />
<glyph unicode="&#x413;" horiz-adv-x="1165" d="M-74 0l12 37q130 1 168.5 46.5t78.5 179.5l239 799q34 113 34 164q0 55 -32.5 71.5t-135.5 21.5l12 37h1057l-105 -358h-37q10 84 10 118q0 105 -52 138t-189 33h-320l-301 -1024q-32 -106 -32 -134q0 -52 37.5 -69.5t140.5 -22.5l-10 -37h-575z" />
<glyph unicode="&#x414;" horiz-adv-x="1303" d="M-211 -396l122 433q114 15 177.5 70t158 224t197 481.5t102.5 415.5q0 53 -31 69t-123 22l13 37h1075l-13 -37q-99 -3 -142 -44.5t-83 -178.5l-245 -841q-26 -89 -26 -128q0 -84 155 -90l-116 -433h-37q28 98 28 168q0 80 -37.5 138t-84.5 74t-145 16h-452 q-108 0 -191 -36.5t-152.5 -128.5t-112.5 -231h-37zM168 69h412q127 0 167.5 36.5t106.5 262.5l264 919h-474q-189 -842 -476 -1218z" />
<glyph unicode="&#x415;" horiz-adv-x="1251" d="M-46 0l13 37q78 2 105 14q40 18 58 46q27 41 64 172l238 818q28 99 28 151q0 38 -26.5 59.5t-103.5 21.5h-21l12 37h974l-84 -327h-37q7 46 7 77q0 53 -26 89q-34 46 -99 70q-48 18 -221 18h-172l-155 -536h127q136 0 197 41.5t105 153.5h37l-139 -492h-40q18 62 18 106 q0 43 -17.5 69t-48 38.5t-128.5 12.5h-129l-131 -449q-19 -65 -19 -99q0 -26 25 -46q17 -14 85 -14h120q195 0 312.5 69t210.5 240h37l-128 -377h-1048z" />
<glyph unicode="&#x416;" horiz-adv-x="1876" d="M-112 0l11 37q57 0 109 33.5t140 140.5l273 332q71 87 121.5 120t130.5 40q-112 55 -112 198q0 32 8 119q7 76 7 104q0 104 -41 104q-21 0 -52 -32q-49 -51 -92 -51q-35 0 -67.5 30.5t-32.5 76.5q0 52 47 86t110 34q80 0 138.5 -59t58.5 -175q0 -38 -9 -118 q-9 -79 -9 -112q0 -88 51 -127.5t162 -39.5h88l87 295q40 135 40 193q0 54 -39.5 72t-108.5 18l8 37h535l-9 -37q-102 0 -146 -43.5t-81 -169.5l-108 -365h70q117 0 181.5 33t111.5 99.5t111 206.5q77 171 132 231.5t141 60.5q65 0 104.5 -35.5t39.5 -89.5q0 -45 -27 -75 t-70 -30q-46 0 -100 54q-27 26 -48 26q-27 0 -44.5 -25t-55.5 -116q-77 -182 -149.5 -273t-169.5 -121q47 -22 81 -108l12 -26l133 -291q66 -143 101.5 -181t118.5 -44l-12 -37h-280l-230 511q-46 102 -80 129.5t-92 28.5l-128 -453q-21 -72 -21 -99q0 -73 154 -80l-12 -37 h-528l8 37q108 3 148 43t88 203l113 386h-28q-92 0 -117.5 -13.5t-109.5 -112.5l-464 -543h-300z" />
<glyph unicode="&#x417;" horiz-adv-x="1014" d="M-2 126l27 26q151 -120 315 -120q163 0 260.5 137.5t97.5 275.5q0 91 -61 163.5t-253 72.5l20 65q114 0 196.5 33t145.5 133.5t63 226.5q0 174 -177 174q-235 0 -362 -286h-36l113 359h37q9 -41 46 -41q14 0 36 6q135 36 222 36q160 0 240 -85.5t80 -195.5 q0 -123 -89 -229t-234 -157q95 -28 158 -103t63 -169q0 -175 -142.5 -327t-383.5 -152q-124 0 -207.5 38t-174.5 119z" />
<glyph unicode="&#x418;" horiz-adv-x="1479" d="M-52 0l12 37q105 0 144 37t74 159l236 798q43 145 43 214q0 30 -23.5 51t-126.5 23l9 37h539l-13 -37q-108 -4 -148 -45t-88 -200l-238 -789l892 923q0 65 -26.5 86.5t-125.5 24.5l12 37h543l-10 -37q-116 -8 -156.5 -49t-86.5 -196l-232 -789q-38 -128 -38 -167 q0 -81 149 -81l-10 -37h-526l11 37q110 0 147.5 41t91.5 224l227 772l-894 -929q-1 -10 -1 -19q0 -49 32.5 -69t121.5 -20l-12 -37h-529z" />
<glyph unicode="&#x419;" horiz-adv-x="1479" d="M-52 0l12 37q105 0 144 37t74 159l236 798q43 145 43 214q0 30 -23.5 51t-126.5 23l9 37h539l-13 -37q-108 -4 -148 -45t-88 -200l-238 -789l892 923q0 65 -26.5 86.5t-125.5 24.5l12 37h543l-10 -37q-116 -8 -156.5 -49t-86.5 -196l-232 -789q-38 -128 -38 -167 q0 -81 149 -81l-10 -37h-526l11 37q110 0 147.5 41t91.5 224l227 772l-894 -929q-1 -10 -1 -19q0 -49 32.5 -69t121.5 -20l-12 -37h-529zM761 1655q0 36 22 59.5t54 23.5q35 0 55 -21.5t47 -89.5q47 -118 143 -118q34 0 73 21t81 106q51 102 109 102q30 0 48.5 -21.5 t18.5 -48.5q0 -79 -108 -141t-252 -62q-118 0 -204.5 62t-86.5 128z" />
<glyph unicode="&#x41a;" horiz-adv-x="1360" d="M-57 0l13 37q78 0 110 14t58 38.5t65 161.5l242 852q26 92 26 122q0 55 -35 74.5t-119 19.5l13 37h562l-9 -37q-130 0 -175 -41t-97 -225l-87 -308q47 -1 68 -1q154 0 212.5 25t117.5 94.5t143 254.5q82 179 148 216.5t129 37.5q72 0 112 -36.5t40 -80.5q0 -42 -26 -77.5 t-74 -35.5q-31 0 -47.5 11.5t-46.5 52.5q-25 33 -54 33q-30 0 -50.5 -24t-64.5 -119q-95 -205 -167 -289.5t-175 -114.5q45 -17 94 -125l165 -361q45 -97 86.5 -129t141.5 -40l-8 -37h-314l-207 459q-59 130 -96.5 172t-107.5 42q-14 0 -42 -3l-120 -419q-26 -92 -26 -130 q0 -73 154 -84l-8 -37h-544z" />
<glyph unicode="&#x41b;" horiz-adv-x="1387" d="M-71 154q0 41 28.5 69.5t70.5 28.5q87 0 111 -117q13 -63 45 -63q48 0 107.5 93.5t193 531.5t133.5 530q0 46 -26.5 66.5t-123.5 25.5l10 37h1081l-10 -37q-87 -2 -135.5 -35.5t-93.5 -189.5l-235 -803q-36 -124 -36 -171q0 -78 152 -83l-13 -37h-517l12 37q102 5 138 44 t82 198l298 1008h-484q-38 -215 -172 -646.5t-217.5 -544t-195.5 -112.5q-91 0 -147 51t-56 119z" />
<glyph unicode="&#x41c;" horiz-adv-x="1706" d="M-67 0l11 37h27q99 0 143 50q32 36 67 156l295 1011q-33 34 -63 46t-111 19l10 37h337l125 -1092l787 1092h331v-37q-108 -7 -127 -14q-33 -13 -60.5 -52t-59.5 -150l-251 -860q-22 -75 -22 -118q0 -39 27 -59q38 -29 120 -29h24l-9 -37h-571l10 37h27q76 0 116 22 q31 16 55.5 60.5t68.5 197.5l224 786l-791 -1103h-40l-127 1103l-242 -839q-31 -107 -31 -144t27 -56.5t131 -26.5l-11 -37h-447z" />
<glyph unicode="&#x41d;" horiz-adv-x="1479" d="M-54 0l13 37q79 2 105 14q40 18 59 46q26 41 64 170l240 819q29 100 29 152q0 26 -12.5 44.5t-39 27.5t-103.5 9l12 37h535l-11 -37q-67 1 -99 -14q-47 -20 -69 -53q-30 -44 -66 -166l-98 -335h626l99 335q28 98 28 152q0 26 -12.5 44.5t-38.5 27.5t-102 9l10 37h546 l-12 -37q-69 1 -103 -14q-48 -21 -71 -54q-33 -47 -67 -165l-239 -819q-30 -102 -30 -146q0 -38 26.5 -57.5t126.5 -26.5l-11 -37h-528l14 37q78 2 104 14q40 18 58 46q26 39 64 170l122 415h-629l-123 -415q-29 -100 -29 -146q0 -38 26 -57.5t126 -26.5l-8 -37h-532z" />
<glyph unicode="&#x41e;" horiz-adv-x="1479" d="M122 443q0 190 91.5 375.5t218.5 310t271 191.5t306 67q135 0 239 -58.5t163 -173t59 -237.5q0 -218 -126.5 -457.5t-330.5 -365.5t-422 -126q-157 0 -262.5 69.5t-156 183.5t-50.5 221zM329 394q0 -142 73 -251.5t224 -109.5q91 0 178.5 45t182.5 154q119 137 200 349.5 t81 396.5q0 136 -73 240.5t-220 104.5q-100 0 -195.5 -49.5t-189.5 -162t-169 -294.5q-92 -224 -92 -423z" />
<glyph unicode="&#x41f;" horiz-adv-x="1479" d="M-59 0l12 37q74 1 107 13t61 49t53 122l263 883q22 75 22 109q0 61 -40 82.5t-130 23.5l9 37h1352l-12 -37q-88 -1 -133 -31.5t-95 -201.5l-229 -783q-40 -138 -40 -177q0 -47 30.5 -66.5t115.5 -22.5l-13 -37h-523l10 37q102 0 146 46t87 191l298 1013h-624l-290 -999 q-32 -111 -32 -160q0 -91 153 -91l-12 -37h-546z" />
<glyph unicode="&#x420;" horiz-adv-x="1251" d="M-49 0l11 37q106 0 147.5 36.5t89.5 201.5l224 772q40 139 40 186q0 35 -28.5 58t-125.5 28l11 37h534q210 0 314 -90.5t104 -220.5q0 -103 -66 -200t-196 -157.5t-281 -60.5q-94 0 -239 34l-108 -370q-38 -132 -38 -174q0 -32 27 -53t129 -27l-10 -37h-539zM507 724 q113 -29 182 -29q109 0 198.5 45t140 135t50.5 187q0 101 -62 160t-188 59q-68 0 -165 -17z" />
<glyph unicode="&#x421;" horiz-adv-x="1366" d="M138 505q0 222 119 432t326.5 330t418.5 120q99 0 222 -47q54 -20 78 -20t42 10t60 57h37l-101 -439h-36l-4 110q-5 60 -23 107t-54 81.5t-91 54t-122 19.5q-179 0 -313 -98q-171 -125 -268 -353q-80 -188 -80 -381q0 -197 115 -314.5t299 -117.5q139 0 247.5 62 t201.5 191h47q-110 -175 -244 -257.5t-321 -82.5q-166 0 -294 69.5t-195 195.5t-67 271z" />
<glyph unicode="&#x422;" horiz-adv-x="1139" d="M143 0l11 37h26q78 0 120 25q29 17 52.5 61.5t65.5 188.5l281 963h-81q-117 0 -188.5 -30t-115.5 -87t-72 -162h-37l95 360h1030l-111 -360h-38q19 79 19 141q0 73 -45 110q-34 28 -175 28h-107l-268 -934q-51 -176 -51 -217q0 -38 32 -62.5t113 -24.5h46l-12 -37h-590z " />
<glyph unicode="&#x423;" horiz-adv-x="1378" d="M225 142q0 41 27 71.5t70 30.5q82 0 102 -105q18 -94 81 -94q81 0 168 144l-237 889q-41 158 -81 196.5t-114 44.5l11 37h505l-11 -37q-163 0 -163 -92q0 -23 15 -82l198 -765l464 765q55 90 55 115q0 59 -142 59l11 37h406l-11 -37q-80 -3 -128.5 -40t-127.5 -167 l-460 -757q-115 -190 -203 -288t-205 -98q-105 0 -167.5 56t-62.5 117z" />
<glyph unicode="&#x424;" horiz-adv-x="1647" d="M149 581q0 157 100.5 290t281 207.5t402.5 74.5q12 54 12 85q0 42 -32.5 60.5t-121.5 20.5l10 37h537l-11 -37q-103 0 -148 -43.5t-66 -122.5q244 0 376 -107.5t132 -278.5q0 -225 -198 -390t-585 -182q-13 -52 -13 -78q0 -39 33.5 -59t118.5 -21l-13 -37h-525l14 37 q105 1 139 34.5t60 123.5q-169 1 -273 47t-167 134.5t-63 204.5zM334 541q0 -116 81.5 -205t253.5 -90l248 852q-295 -18 -439 -194t-144 -363zM850 246q261 6 422.5 181t161.5 386q0 277 -336 287z" />
<glyph unicode="&#x425;" horiz-adv-x="1251" d="M-137 0l11 37q85 8 139 39q79 47 218 187l394 396l-108 391q-49 180 -85.5 221.5t-127.5 47.5l10 37h485l-12 -37q-67 0 -90.5 -8.5t-36 -26t-12.5 -39.5q0 -24 24 -112l92 -334l213 212q126 126 173 203q17 27 17 48q0 23 -19 36q-27 18 -101 21l11 37h459l-11 -37 q-97 -14 -169.5 -58.5t-197.5 -177.5l-352 -360l99 -363q14 -52 52 -161q24 -70 48 -99t60.5 -44.5t110.5 -18.5l-11 -37h-532l11 37q82 3 118 31q27 20 27 52q0 28 -26 123l-95 341l-318 -321q-93 -95 -111 -125q-11 -18 -11 -35q0 -30 30 -49q14 -8 85 -17l-10 -37h-451z " />
<glyph unicode="&#x426;" horiz-adv-x="1479" d="M-52 0l11 37q107 0 146.5 38t86.5 202l225 759q45 151 45 195q0 49 -31.5 68.5t-112.5 19.5l10 37h526l-10 -37q-105 0 -147.5 -46t-88.5 -199l-234 -784q-28 -94 -28 -132q0 -49 36.5 -69t126.5 -20h243q89 0 126 15.5t64 60.5t65 171l213 726q38 128 38 195 q0 46 -32.5 63t-119.5 19l11 37h547l-12 -37q-104 -1 -150.5 -42.5t-93.5 -202.5l-242 -820q-24 -82 -24 -114q0 -101 171 -103l-127 -439h-37q19 106 19 170q0 79 -38.5 138t-92.5 76.5t-166 17.5h-923z" />
<glyph unicode="&#x427;" horiz-adv-x="1411" d="M231 1319l10 37h534l-10 -37q-104 -3 -140 -35.5t-69 -143.5l-63 -215q-24 -82 -24 -132q0 -165 248 -165q180 0 338 81l109 380q29 100 29 147t-36 65t-133 18l10 37h543l-10 -37q-105 -3 -145.5 -49t-87.5 -211l-227 -783q-31 -105 -31 -144q0 -95 151 -95l-10 -37 h-532l12 37q98 2 142.5 39.5t87.5 184.5l107 366q-211 -92 -407 -92q-176 0 -254.5 73.5t-78.5 185.5q0 49 33 169l43 156q20 72 20 105q0 51 -32.5 73t-126.5 22z" />
<glyph unicode="&#x428;" horiz-adv-x="2136" d="M-28 0l10 37q94 0 129 43t85 210l231 783q33 110 33 159q0 45 -26 64.5t-113 22.5l11 37h504l-9 -37q-95 -4 -137 -51t-89 -206l-219 -738q-38 -131 -38 -175q0 -26 20 -53t115 -27h172q137 0 178.5 21t101.5 223l221 755q33 115 33 159q0 87 -100 92l11 37h468l-11 -37 q-74 0 -118.5 -32.5t-81.5 -157.5l-243 -819q-38 -125 -38 -161q0 -41 34.5 -60.5t125.5 -19.5h197q103 0 140.5 30t80.5 175l236 799q30 103 30 155q0 45 -20.5 66.5t-78.5 24.5l11 37h466l-11 -37q-99 -8 -138 -56t-84 -201l-223 -761q-42 -142 -42 -168q0 -92 171 -96 l-11 -37h-1984z" />
<glyph unicode="&#x429;" horiz-adv-x="2136" d="M-28 0l10 37q94 0 129 43t85 210l231 783q33 110 33 159q0 45 -26 64.5t-113 22.5l11 37h504l-9 -37q-95 -4 -137 -51t-89 -206l-219 -738q-38 -130 -38 -176q0 -43 31 -61t110 -18h166q115 0 151 11t60.5 48t68.5 185l221 755q33 115 33 159q0 87 -100 92l11 37h468 l-11 -37q-74 0 -118.5 -32.5t-81.5 -157.5l-243 -819q-38 -125 -38 -161q0 -41 34.5 -60.5t125.5 -19.5h197q103 0 140.5 30t80.5 175l236 799q30 103 30 155q0 45 -20.5 66.5t-78.5 24.5l11 37h466l-11 -37q-99 -8 -138 -56t-84 -201l-223 -761q-40 -134 -40 -166 q0 -95 169 -98l-129 -439h-32q17 80 17 143q0 98 -35 162.5t-82 80.5t-162 16h-1572z" />
<glyph unicode="&#x42a;" horiz-adv-x="1384" d="M118 0l10 37q109 2 149.5 35.5t82.5 176.5l307 1038q-135 -1 -203 -18t-124.5 -79t-99.5 -188h-37l102 354h727l-11 -37q-108 -2 -148.5 -38.5t-77.5 -162.5l-109 -366h136q174 0 261 -36t143 -122t56 -185q0 -119 -81.5 -227t-199.5 -145t-278 -37h-605zM493 88 q78 -14 171 -14q212 0 310.5 104.5t98.5 233.5q0 87 -47.5 153.5t-119.5 91.5t-194 25h-45z" />
<glyph unicode="&#x42b;" horiz-adv-x="1786" d="M-58 0l10 37q110 2 150 36.5t82 175.5l240 814q38 131 38 172q0 84 -137 84l11 37h529l-11 -37q-113 -3 -156 -43.5t-99 -227.5l-89 -296h136q174 0 261 -36t143 -122t56 -185q0 -119 -81.5 -227t-199.5 -145t-278 -37h-605zM317 88q78 -14 171 -14q212 0 310.5 104.5 t98.5 233.5q0 87 -47.5 153.5t-119.5 91.5t-194 25h-45zM1056 0l14 37q89 2 123.5 16.5t62.5 62t58 150.5l236 818q30 102 30 148q0 49 -31.5 68t-124.5 19l12 37h524l-11 -37q-87 0 -130 -29.5t-93 -205.5l-236 -818q-31 -109 -31 -146q0 -40 32 -59t134 -24l-11 -37h-558z " />
<glyph unicode="&#x42c;" horiz-adv-x="1208" d="M-58 0l10 37q110 2 150 36.5t82 175.5l240 814q38 131 38 172q0 84 -137 84l11 37h529l-11 -37q-113 -3 -156 -43.5t-99 -227.5l-89 -296h136q174 0 261 -36t143 -122t56 -185q0 -119 -81.5 -227t-199.5 -145t-278 -37h-605zM317 88q78 -14 171 -14q212 0 310.5 104.5 t98.5 233.5q0 87 -47.5 153.5t-119.5 91.5t-194 25h-45z" />
<glyph unicode="&#x42d;" horiz-adv-x="1341" d="M30 304l32 21q228 -269 475 -269q194 0 348.5 156.5t203.5 443.5h-484l20 69h474q7 76 7 124q0 200 -99 335.5t-280 135.5q-289 0 -459 -319h-40l114 386h32q6 -62 62 -62q30 0 81 15q172 47 282 47q238 0 376.5 -160t138.5 -406q0 -225 -109.5 -423.5t-278 -313.5 t-370.5 -115q-160 0 -286 76t-240 259z" />
<glyph unicode="&#x42e;" horiz-adv-x="2114" d="M-66 0l14 37q88 2 123 16.5t63 62t58 150.5l236 818q30 102 30 148q0 49 -31.5 68t-124.5 19l12 37h524l-11 -37q-86 0 -129.5 -29t-94.5 -206l-106 -371h311q104 293 339.5 483.5t486.5 190.5q233 0 353.5 -141t120.5 -329q0 -239 -135.5 -472.5t-329 -354.5 t-412.5 -121q-233 0 -352 147t-119 340q0 89 27 188h-310l-109 -378q-31 -109 -31 -146q0 -32 26 -55t140 -28l-11 -37h-558zM967 393q0 -145 74.5 -252.5t226.5 -107.5q162 0 314 154.5t238.5 380t86.5 406.5q0 153 -79.5 251t-220.5 98q-250 0 -445 -307.5t-195 -622.5z " />
<glyph unicode="&#x42f;" horiz-adv-x="1346" d="M-111 0l10 37q76 16 110 38.5t99 95.5l310 351q77 87 116.5 114.5t108.5 47.5q-113 23 -194.5 105t-81.5 189q0 159 149.5 268.5t397.5 109.5h613l-9 -37q-108 -2 -156.5 -52t-95.5 -212l-214 -744q-42 -144 -42 -186q0 -47 30.5 -63.5t125.5 -24.5l-15 -37h-518l15 37 q105 4 138.5 41t85.5 219l106 372q-68 -9 -132 -9q-48 0 -81 3l-577 -663h-299zM577 953q0 -121 80 -178t204 -57q55 0 135 16l155 540q-94 24 -177 24q-182 0 -289.5 -96.5t-107.5 -248.5z" />
<glyph unicode="&#x430;" d="M48 203q0 159 95.5 335.5t242.5 282.5q115 84 217 84q61 0 101.5 -32t61.5 -106l36 114l159 24l-195 -678l-22 -91q-3 -13 -3 -22q0 -16 10 -28q8 -9 20 -9q13 0 34 16q39 29 104 120l34 -24q-69 -104 -142 -158.5t-135 -54.5q-43 0 -64.5 21.5t-21.5 62.5q0 49 22 129 l21 75q-131 -171 -241 -239q-79 -49 -155 -49q-73 0 -126 60.5t-53 166.5zM208 239q0 -68 34 -107.5t78 -39.5q109 0 237 161q171 214 171 439q0 85 -33 123t-90 38q-64 0 -136 -60q-102 -85 -181.5 -252t-79.5 -302z" />
<glyph unicode="&#x431;" horiz-adv-x="1030" d="M73 308q0 196 98.5 453t205 381.5t207 162.5t278.5 48q88 6 115 17t45 52h41q-15 -74 -63.5 -130t-102 -74t-175.5 -26q-119 -9 -180.5 -28.5t-121 -74t-120.5 -170.5t-120 -291q210 277 475 277q128 0 213 -85t85 -236q0 -238 -173 -423t-403 -185q-147 0 -225.5 96 t-78.5 236zM229 228q0 -108 55 -157.5t124 -49.5q158 0 271.5 225t113.5 447q0 88 -42.5 128t-103.5 40q-166 0 -292 -206.5t-126 -426.5z" />
<glyph unicode="&#x432;" horiz-adv-x="889" d="M63 300q0 236 171 420.5t403 184.5q115 0 169.5 -42t54.5 -106q0 -157 -356 -282q130 -6 195 -66.5t65 -147.5q0 -116 -111.5 -200.5t-272.5 -84.5q-318 0 -318 324zM217 199q0 -96 46.5 -139t114.5 -43q94 0 154 76.5t60 180.5q0 68 -44 114t-112 46q-85 0 -190 -43 q-29 -90 -29 -192zM266 451q239 58 347 138.5t108 175.5q0 34 -25 64.5t-76 30.5q-211 0 -354 -409z" />
<glyph unicode="&#x433;" horiz-adv-x="799" d="M2 157q0 74 55 141t281 151q179 67 235 126.5t56 132.5q0 59 -45 92.5t-122 33.5q-126 0 -264 -100l-30 25q166 146 350 146q133 0 201 -52t68 -131q0 -58 -42 -113t-258 -147q-211 -90 -264.5 -155t-53.5 -119q0 -58 46.5 -102.5t143.5 -44.5q137 0 300 132l27 -26 q-174 -171 -413 -171q-135 0 -203 51t-68 130z" />
<glyph unicode="&#x434;" horiz-adv-x="1036" d="M61 295q0 232 186.5 421t371.5 189q104 0 183 -76q-20 427 -365 555l20 38q231 -76 372 -278t141 -452q0 -294 -179.5 -505t-424.5 -211q-138 0 -221.5 90t-83.5 229zM224 231q0 -100 48 -153t129 -53q131 0 255.5 207t124.5 418q0 202 -164 202q-145 0 -269 -208.5 t-124 -412.5z" />
<glyph unicode="&#x435;" horiz-adv-x="909" d="M64 271q0 149 92 305t231 242.5t286 86.5q106 0 157 -43t51 -102q0 -83 -66 -159q-87 -99 -256 -160q-112 -41 -315 -64q-7 -50 -7 -83q0 -89 63 -151.5t153 -62.5q72 0 138.5 29.5t197.5 130.5l21 -29q-237 -235 -452 -235q-146 0 -220 92t-74 203zM251 426 q148 17 241 58q123 55 184.5 131.5t61.5 145.5q0 42 -26.5 68t-75.5 26q-102 0 -216.5 -108.5t-168.5 -320.5z" />
<glyph unicode="&#x436;" horiz-adv-x="1905" d="M-1 142q0 57 32.5 90.5t73.5 33.5q35 0 54.5 -22t19.5 -48q0 -27 -29 -60q-26 -29 -26 -57q0 -26 21 -44.5t51 -18.5q135 0 259.5 181t124.5 389q0 112 -52.5 172t-122.5 60q-144 0 -279 -164l-27 19q154 232 380 232q124 0 194.5 -83t70.5 -219q0 -66 -16 -137h150 l118 415h151l-118 -415h155q51 172 199 305.5t310 133.5q94 0 148.5 -47t54.5 -126q0 -52 -29 -84.5t-72 -32.5q-76 0 -76 77q0 30 27 68q18 25 18 42q0 59 -76 59q-133 0 -253.5 -193t-120.5 -366q0 -114 52 -177t129 -63q143 0 270 163l31 -15q-171 -234 -373 -234 q-131 0 -202 89.5t-71 225.5q0 60 17 125h-152l-119 -416h-149l118 416h-153q-78 -218 -220 -329t-297 -111q-95 0 -145.5 47.5t-50.5 118.5z" />
<glyph unicode="&#x437;" horiz-adv-x="799" d="M-50 163l34 15q32 -51 98 -89.5t140 -38.5q113 0 192 73.5t79 170.5q0 77 -58 128t-168 51q-10 0 -29 -1l11 45q180 0 263.5 52.5t83.5 146.5q0 57 -39.5 95t-109.5 38q-185 0 -278 -198h-39l74 254h34q8 -41 45 -41q14 0 44 9q96 32 178 32q108 0 181 -58t73 -139 q0 -189 -339 -222q237 -66 237 -227q0 -69 -49.5 -136t-138.5 -107t-196 -40q-218 0 -323 187z" />
<glyph unicode="&#x438;" d="M60 691q75 116 159 171q64 43 118 43q37 0 60.5 -23.5t23.5 -60.5q0 -54 -40 -193l-94 -323q-39 -132 -39 -167q0 -19 12.5 -30.5t33.5 -11.5q33 0 86 33t141.5 146.5t146 213t122.5 316.5l22 76h152l-174 -596q-39 -133 -39 -168q0 -18 6.5 -26.5t17.5 -8.5 q17 0 37.5 15.5t103.5 123.5l30 -23q-79 -125 -162 -184q-55 -38 -106 -38q-39 0 -61 22t-22 57q0 34 13 90q16 74 91 322q-170 -279 -284.5 -385t-212.5 -106q-46 0 -78 32t-32 81q0 75 44 230l87 309q32 111 32 138q0 12 -8.5 20.5t-18.5 8.5q-21 0 -42 -15t-95 -111z" />
<glyph unicode="&#x439;" d="M60 691q139 214 277 214q37 0 60.5 -23.5t23.5 -61.5q0 -53 -40 -192l-94 -323q-39 -132 -39 -167q0 -42 47 -42q36 0 94 39t161.5 179t146.5 232t93 259l22 76h152l-174 -596q-39 -134 -39 -171q0 -32 24 -32q16 0 39.5 17t101.5 122l30 -23q-142 -222 -273 -222 q-32 0 -54.5 21t-22.5 59q0 67 103 411q-288 -491 -492 -491q-55 0 -85 34t-30 85q0 69 44 224l87 309q32 112 32 133q0 34 -30 34q-38 0 -134 -126zM433 1288q0 39 22.5 66t60.5 27q35 0 57.5 -20t48.5 -73q38 -79 111 -79q67 0 126 56.5t83 115.5h47q-116 -258 -329 -258 q-98 0 -162.5 48t-64.5 117z" />
<glyph unicode="&#x43a;" horiz-adv-x="958" d="M37 0l198 676q19 63 19 88q0 53 -71 53q-22 0 -78 -8v35l308 61h39l-128 -436q37 -2 42 -2q162 0 254 206q51 114 71.5 149.5t55 59t78.5 23.5q54 0 90.5 -34t36.5 -80q0 -39 -26 -66.5t-60 -27.5q-42 0 -75 49q-23 35 -41 35q-27 0 -65 -91q-82 -197 -183 -238 q43 -21 75.5 -67t126.5 -224q42 -82 79.5 -100t90.5 -24l-12 -37h-239q-87 188 -148 292t-87.5 119t-75.5 15l-125 -426h-150z" />
<glyph unicode="&#x43b;" horiz-adv-x="893" d="M-91 54q0 32 19.5 54.5t51.5 22.5q30 0 63 -27q21 -17 38 -17q30 0 65.5 52t122.5 321t87 310q0 64 -126 73l10 38h589l-197 -669q-22 -77 -22 -102q0 -34 29 -34q25 0 53.5 28.5t85.5 107.5l34 -22q-81 -111 -144 -162.5t-133 -51.5q-86 0 -86 88q0 45 41 183l169 574 h-120q-73 0 -91.5 -8.5t-33 -42.5t-55.5 -171q-118 -392 -188.5 -507.5t-162.5 -115.5q-99 0 -99 78z" />
<glyph unicode="&#x43c;" horiz-adv-x="1307" d="M-92 51q0 33 23.5 56.5t55.5 23.5q28 0 69 -28q19 -14 33 -14q24 0 65.5 64t126 325.5t84.5 299.5q0 46 -65 46q-35 0 -92 -13l15 32l307 62h42l40 -731l467 707h163l-185 -655q-29 -101 -29 -113q0 -32 29 -32q48 0 141 133l29 -20q-57 -92 -140.5 -155t-134.5 -63 q-83 0 -83 94q0 42 32 156l156 548l-527 -798h-45l-57 835q-184 -626 -261 -730.5t-168 -104.5t-91 75z" />
<glyph unicode="&#x43d;" horiz-adv-x="1016" d="M41 0l194 666q22 76 22 97q0 54 -67 54q-16 0 -80 -7v33l307 62h36l-119 -419h345l114 395h154l-201 -690q-16 -57 -16 -73q0 -25 22 -25q44 0 147 132l34 -18q-159 -231 -283 -231q-78 0 -78 93q0 46 38 178l55 189h-346l-127 -436h-151z" />
<glyph unicode="&#x43e;" d="M60 290q0 147 84.5 295t226 234t273.5 86t217.5 -87t85.5 -226q0 -150 -79.5 -297t-221.5 -233t-276 -86q-137 0 -223.5 87.5t-86.5 226.5zM224 224q0 -95 48 -146.5t121 -51.5q141 0 264.5 209.5t123.5 425.5q0 93 -45.5 142.5t-117.5 49.5q-147 0 -270.5 -210.5 t-123.5 -418.5z" />
<glyph unicode="&#x43f;" d="M39 0l182 626q32 113 32 136q0 22 -17.5 38.5t-43.5 16.5q-12 0 -42 -4l-38 -6l-6 36l346 62l-133 -455q187 279 286.5 367t191.5 88q50 0 82.5 -33t32.5 -86q0 -60 -29 -160l-122 -421q-21 -73 -21 -89q0 -14 8 -23.5t17 -9.5q12 0 29 13q53 42 116 128l31 -19 q-93 -133 -176 -190q-58 -39 -104 -39q-37 0 -59 22.5t-22 60.5q0 48 34 165l116 402q22 75 22 117q0 20 -13 32.5t-32 12.5q-28 0 -67 -24q-74 -45 -154 -148.5t-169 -264.5q-47 -85 -78 -186l-50 -165h-150z" />
<glyph unicode="&#x440;" d="M-226 -438l10 37q93 4 125.5 32t68.5 155l253 876q23 83 23 103q0 27 -15.5 42t-47.5 15q-29 0 -81 -7v39l343 51l-69 -230q109 128 194.5 179t174.5 51t152 -70.5t63 -183.5q0 -220 -179 -447.5t-417 -227.5q-50 0 -88.5 11t-86.5 39l-73 -258q-22 -76 -22 -99 q0 -22 11.5 -37.5t37.5 -24t103 -8.5l-9 -37h-471zM220 105q62 -74 167 -74q52 0 106 29t105.5 86t92.5 131.5t73.5 175.5t32.5 200q0 80 -36.5 122.5t-85.5 42.5q-108 0 -213.5 -124t-154.5 -290z" />
<glyph unicode="&#x441;" horiz-adv-x="909" d="M56 271q0 153 85.5 301t230 240.5t283.5 92.5q109 0 163 -45.5t54 -111.5q0 -62 -38 -106q-28 -34 -69 -34q-31 0 -51.5 20t-20.5 50q0 19 7.5 35t31 38.5t28.5 32.5t5 21q0 21 -19 35q-29 20 -82 20q-98 0 -194 -69t-164 -196q-82 -154 -82 -308q0 -102 58 -161.5 t158 -59.5q77 0 152.5 38.5t169.5 139.5l29 -26q-104 -125 -210 -183.5t-224 -58.5q-142 0 -221.5 80t-79.5 215z" />
<glyph unicode="&#x442;" horiz-adv-x="1479" d="M35 0l185 648l24 84q7 19 7 28q0 22 -20 39.5t-51 17.5q-13 0 -72 -12l-9 37l345 63l-130 -451q87 159 148 239q95 124 185 180q53 32 111 32q50 0 83 -32t33 -82q0 -49 -23 -128l-71 -254q163 305 309 428q81 68 160 68q46 0 75.5 -31.5t29.5 -97.5q0 -58 -18 -123 l-110 -389q-36 -127 -36 -141t9 -24q6 -7 16 -7t35 19q57 44 107 116l33 -21q-25 -40 -88.5 -110t-108.5 -95t-83 -25q-35 0 -58.5 24t-23.5 59q0 48 41 193l91 321q31 111 33 123q3 19 3 37q0 25 -11 39q-12 14 -27 14q-42 0 -89 -43q-138 -127 -258 -356 q-79 -151 -148 -387h-151l171 605q28 98 28 131q0 27 -11 40t-27 13q-33 0 -70 -24q-60 -39 -154.5 -167t-146.5 -245q-25 -55 -119 -353h-148z" />
<glyph unicode="&#x443;" horiz-adv-x="909" d="M-164 -364q0 39 32.5 71t70.5 32q20 0 33 -9q8 -5 17.5 -28.5t17.5 -31.5q5 -5 12 -5q6 0 21 10q55 34 128 108q96 98 142 160l-56 634q-14 157 -42 191t-94 34q-21 0 -75 -6l-9 37l293 72q34 -58 47 -108.5t26 -198.5l44 -492q60 72 174 228q55 76 136 207q49 80 60 112 q6 16 6 33q0 11 -7 18t-36.5 16.5t-49 35t-19.5 58.5q0 41 24 66t60 25q44 0 75 -36.5t31 -100.5q0 -79 -54 -180.5t-208 -311.5t-373 -458q-151 -171 -224 -215.5t-125 -44.5q-31 0 -54.5 23.5t-23.5 54.5z" />
<glyph unicode="&#x444;" horiz-adv-x="1454" d="M60 288q0 209 157.5 413t362.5 204q129 0 164 -114l116 403q18 63 18 89q0 50 -65 50q-29 0 -82 -10v40l307 59h40l-188 -644q106 127 234 127q110 0 182 -84.5t72 -231.5q0 -225 -157.5 -419t-350.5 -194q-140 0 -178 117l-93 -318q-23 -79 -23 -101q0 -41 30 -57 t127 -18l-13 -37h-473l11 37q91 3 125 33t72 161l83 287q-101 -104 -223 -104t-188.5 91t-66.5 221zM217 206q0 -93 35.5 -138t90.5 -45q155 0 257 286t102 417q0 127 -110 127q-72 0 -137.5 -54.5t-151.5 -247t-86 -345.5zM736 176q0 -68 32.5 -108.5t91.5 -40.5 q144 0 254 244.5t110 413.5q0 168 -129 168q-82 0 -157 -85t-138.5 -296t-63.5 -296z" />
<glyph unicode="&#x445;" horiz-adv-x="909" d="M-72 64q0 33 22 55t54 22t68 -32q26 -23 40 -23q12 0 31 16q47 38 128 164t106 182q-62 243 -67 257q-23 65 -60 92t-109 27q-23 0 -53 -2v36l267 47q49 -52 74 -104q18 -36 59 -189l88 132q35 48 85 91.5t88 59.5q24 10 53 10q43 0 68.5 -23t25.5 -56q0 -38 -15 -52 q-28 -25 -64 -25q-21 0 -45 9q-47 16 -63 16q-24 0 -57 -28q-62 -52 -148 -201l82 -344q19 -79 32 -94.5t26 -15.5q21 0 49 23q55 46 94 120l35 -18q-63 -118 -160 -196q-55 -44 -93 -44q-56 0 -89 63q-21 39 -87 336q-156 -271 -250 -349q-61 -50 -118 -50q-40 0 -73 29 q-24 22 -24 59z" />
<glyph unicode="&#x446;" d="M60 691q139 214 277 214q37 0 60.5 -23.5t23.5 -61.5q0 -53 -40 -192l-94 -323q-39 -132 -39 -167q0 -42 47 -42q36 0 94 39t161.5 179t146.5 232t93 259l22 76h152l-174 -596q-39 -134 -39 -171q0 -32 24 -32q16 0 39.5 17t101.5 122l31 -23q-10 -16 -34 -49 q-21 -30 -70 -105q-30 -47 -56 -80q-42 -52 -42 -68q0 -5 9 -33q9 -26 9 -49q0 -75 -64 -132.5t-154 -82.5l-18 35q111 59 111 150q0 12 -5 29q-4 19 -4 26q0 23 9 36t45 43q84 69 95 92q-53 -34 -101 -34q-81 0 -81 80q0 67 103 411q-288 -491 -492 -491q-55 0 -85 34 t-30 85q0 69 44 224l87 309q32 112 32 133q0 34 -30 34q-38 0 -134 -126z" />
<glyph unicode="&#x447;" horiz-adv-x="977" d="M86 810l11 40l283 55h37l-97 -341q-21 -72 -21 -93q0 -84 118 -84q96 0 219 80l121 414h153l-203 -696q-16 -58 -16 -71q0 -26 24 -26q40 0 146 134l33 -20q-171 -226 -280 -226q-81 0 -81 86q0 53 34 167l51 174q-129 -87 -258 -87q-84 0 -146 44t-62 111q0 40 23 118 l27 92q16 55 16 80q0 54 -68 54q-30 0 -64 -5z" />
<glyph unicode="&#x448;" horiz-adv-x="1546" d="M64 688q106 142 165.5 179.5t111.5 37.5q85 0 85 -95q0 -40 -15 -94.5t-126 -443.5q-27 -97 -27 -129q0 -50 48 -50q76 0 237 195.5t246 491.5l29 101h152l-181 -629q-24 -81 -24 -107q0 -49 47 -49q42 0 100 39.5t162 180t156.5 258.5t102.5 307h152l-191 -656 q-22 -75 -22 -106q0 -37 29 -37q19 0 60 41.5t75 96.5l33 -23q-139 -221 -274 -221q-78 0 -78 89q0 73 102 400q-281 -489 -498 -489q-47 0 -76.5 33.5t-29.5 90.5q0 93 90 365q-277 -489 -497 -489q-56 0 -82 38t-26 85q0 85 96 406q63 215 63 254q0 35 -26 35 q-42 0 -136 -128z" />
<glyph unicode="&#x449;" horiz-adv-x="1546" d="M64 688q106 142 165.5 179.5t111.5 37.5q85 0 85 -95q0 -40 -15 -94.5t-126 -443.5q-27 -97 -27 -129q0 -50 48 -50q76 0 237 195.5t246 491.5l29 101h152l-181 -629q-24 -81 -24 -107q0 -49 47 -49q42 0 100 39.5t162 180t156.5 258.5t102.5 307h152l-191 -656 q-22 -75 -22 -106q0 -37 29 -37q43 0 135 138l33 -23q-12 -20 -77 -112q-21 -29 -42 -63q-21 -33 -41 -58q-41 -51 -41 -68q0 -5 9 -33q8 -26 8 -49q0 -66 -56 -124.5t-161 -90.5l-18 35q110 59 110 150q0 12 -4 29q-4 19 -4 26q0 23 9 36t45 43q83 69 93 91 q-56 -33 -104 -33q-78 0 -78 89q0 73 102 400q-281 -489 -498 -489q-47 0 -76.5 33.5t-29.5 90.5q0 93 90 365q-277 -489 -497 -489q-56 0 -82 38t-26 85q0 85 96 406q63 215 63 254q0 35 -26 35q-42 0 -136 -128z" />
<glyph unicode="&#x44a;" horiz-adv-x="1063" d="M60 650l79 231h429l-133 -452q144 152 299 152q88 0 159.5 -58.5t71.5 -165.5q0 -150 -131.5 -265.5t-313.5 -115.5q-148 0 -218 70.5t-70 160.5q0 44 30 143l121 410h-81q-96 0 -129 -18t-76 -92h-37zM376 181q0 -69 43.5 -117.5t109.5 -48.5q102 0 183.5 102.5 t81.5 229.5q0 68 -38 105.5t-91 37.5q-106 0 -197.5 -95.5t-91.5 -213.5z" />
<glyph unicode="&#x44b;" horiz-adv-x="1387" d="M102 207q0 45 29 143l103 343q13 45 13 78q0 49 -57 49q-24 0 -85 -11l10 35l298 61h32l-140 -476q144 152 298 152q96 0 164 -62t68 -162q0 -150 -131.5 -265.5t-313.5 -115.5q-148 0 -218 70.5t-70 160.5zM246 181q0 -68 44 -117t109 -49q101 0 183 101t82 231 q0 68 -38 105.5t-92 37.5q-106 0 -197 -95.5t-91 -213.5zM901 64q0 35 25 121l131 448q32 110 32 136q0 52 -63 52q-22 0 -86 -11v39l314 56h30l-198 -701q-20 -70 -20 -90q0 -31 30 -31q50 0 153 144l35 -23q-163 -228 -289 -228q-46 0 -70 27t-24 61z" />
<glyph unicode="&#x44c;" horiz-adv-x="932" d="M102 207q0 45 29 143l103 343q13 45 13 78q0 49 -57 49q-24 0 -85 -11l10 35l298 61h32l-140 -476q144 152 298 152q96 0 164 -62t68 -162q0 -150 -131.5 -265.5t-313.5 -115.5q-148 0 -218 70.5t-70 160.5zM246 181q0 -68 44 -117t109 -49q101 0 183 101t82 231 q0 68 -38 105.5t-92 37.5q-106 0 -197 -95.5t-91 -213.5z" />
<glyph unicode="&#x44d;" horiz-adv-x="903" d="M15 232l36 14q93 -192 244 -192q236 0 335 382h-333l14 50h329q7 46 7 84q0 121 -54.5 200.5t-155.5 79.5q-182 0 -286 -225h-36l78 280h36q12 -40 53 -40q17 0 51 11q84 29 156 29q137 0 231.5 -93.5t94.5 -263.5q0 -213 -144.5 -392.5t-333.5 -179.5q-117 0 -202 71.5 t-120 184.5z" />
<glyph unicode="&#x44e;" horiz-adv-x="1444" d="M42 0l205 709q11 39 11 56q0 49 -71 49q-37 0 -77 -6v35l313 62h32l-121 -419h183q74 186 230 302.5t318 116.5q134 0 218.5 -88.5t84.5 -228.5q0 -235 -179 -423.5t-402 -188.5q-142 0 -224.5 93.5t-82.5 213.5q0 56 21 153h-182l-127 -436h-150zM645 227 q0 -97 47.5 -149t123.5 -52q143 0 264.5 215t121.5 406q0 206 -164 206q-145 0 -269 -209.5t-124 -416.5z" />
<glyph unicode="&#x44f;" horiz-adv-x="952" d="M-124 0l10 37q50 4 100 38t139 143q185 227 247 241q-218 33 -218 195q0 100 98.5 175.5t321.5 75.5h314l-209 -745q-9 -33 -9 -46q0 -32 28 -32q50 0 157 138l33 -23q-152 -221 -298 -221q-44 0 -66 24.5t-22 54.5q0 29 25 115l74 265q-29 3 -40 3q-46 0 -81 -28 t-125 -132l-240 -278h-239zM323 630q0 -144 228 -144q28 0 65 2l101 355q-53 13 -115 13q-147 0 -213 -72.5t-66 -153.5z" />
<glyph unicode="&#x450;" horiz-adv-x="909" d="M64 271q0 149 92 305t231 242.5t286 86.5q106 0 157 -43t51 -102q0 -83 -66 -159q-87 -99 -256 -160q-112 -41 -315 -64q-7 -50 -7 -83q0 -89 63 -151.5t153 -62.5q72 0 138.5 29.5t197.5 130.5l21 -29q-237 -235 -452 -235q-146 0 -220 92t-74 203zM251 426 q148 17 241 58q123 55 184.5 131.5t61.5 145.5q0 42 -26.5 68t-75.5 26q-102 0 -216.5 -108.5t-168.5 -320.5zM487 1402h221l109 -344h-32z" />
<glyph unicode="&#x451;" horiz-adv-x="909" d="M64 271q0 149 92 305t231 242.5t286 86.5q106 0 157 -43t51 -102q0 -83 -66 -159q-87 -99 -256 -160q-112 -41 -315 -64q-7 -50 -7 -83q0 -89 63 -151.5t153 -62.5q72 0 138.5 29.5t197.5 130.5l21 -29q-237 -235 -452 -235q-146 0 -220 92t-74 203zM251 426 q148 17 241 58q123 55 184.5 131.5t61.5 145.5q0 42 -26.5 68t-75.5 26q-102 0 -216.5 -108.5t-168.5 -320.5zM388 1232q0 45 31.5 76.5t75.5 31.5q45 0 76.5 -31.5t31.5 -76.5q0 -44 -31.5 -75.5t-76.5 -31.5q-44 0 -75.5 31.5t-31.5 75.5zM744 1232q0 45 31 76.5t76 31.5 t76 -31.5t31 -76.5q0 -44 -31 -75.5t-76 -31.5q-44 0 -75.5 31.5t-31.5 75.5z" />
<glyph unicode="&#x452;" horiz-adv-x="981" d="M40 0l325 1125h-122l13 50h126q23 82 23 106q0 51 -61 51q-32 0 -88 -10v41l313 59h32l-70 -247h313l-13 -50h-316l-191 -660q267 440 447 440q63 0 97.5 -47.5t34.5 -120.5q0 -252 -165.5 -611t-514.5 -568l-20 33q254 161 394.5 581.5t140.5 550.5q0 63 -44 63 q-90 0 -241 -214.5t-216 -425.5l-46 -146h-151z" />
<glyph unicode="&#x453;" horiz-adv-x="772" d="M-86 0l11 37q87 4 118.5 38t65.5 152l126 442q26 91 26 115q0 59 -105 59l10 38h663l-69 -239h-36q7 42 7 65q0 65 -40 89.5t-135 24.5h-125l-169 -585q-30 -105 -30 -130q0 -26 24 -46.5t116 -22.5l-14 -37h-444zM497 1059l103 343h225l-294 -343h-34z" />
<glyph unicode="&#x454;" horiz-adv-x="893" d="M54 269q0 234 187 435t415 201q55 0 138 -19q33 -7 48 -7q28 0 42 26h37l-78 -281h-39q3 26 3 47q0 92 -47.5 138t-114.5 46q-105 0 -220.5 -105t-165.5 -264h328l-14 -50h-330q-21 -69 -21 -137q0 -102 52.5 -169t162.5 -67q156 0 323 177l31 -25q-187 -239 -432 -239 q-159 0 -232 87.5t-73 205.5z" />
<glyph unicode="&#x455;" horiz-adv-x="797" d="M-19 -24l61 324h37q6 -152 63 -215t156 -63q76 0 120.5 42.5t44.5 104.5q0 40 -16 74q-28 60 -117.5 166t-115 159t-25.5 106q0 97 70.5 164t181.5 67q32 0 58 -5q14 -3 65.5 -22.5t68.5 -19.5q43 0 72 47h38l-61 -307h-37q-5 134 -57 195t-129 61q-62 0 -98.5 -34 t-36.5 -82q0 -33 14.5 -63t63.5 -84q130 -142 168 -214t38 -136q0 -104 -86.5 -184.5t-218.5 -80.5q-72 0 -166 34q-33 12 -51 12q-45 0 -68 -46h-37z" />
<glyph unicode="&#x456;" horiz-adv-x="569" d="M88 62q0 37 25 123l130 448q32 110 32 138q0 22 -15.5 36t-42.5 14q-22 0 -91 -11v39l345 56l-198 -701q-20 -71 -20 -85q0 -16 9.5 -26t22.5 -10q15 0 36 16q57 45 115 128l35 -23q-68 -104 -160 -175q-68 -53 -130 -53q-41 0 -67 24.5t-26 61.5zM358 1202q0 42 29 71 t71 29t71 -29t29 -71q0 -41 -29.5 -70.5t-70.5 -29.5t-70.5 29.5t-29.5 70.5z" />
<glyph unicode="&#x457;" horiz-adv-x="569" d="M88 62q0 37 25 123l130 448q32 110 32 138q0 22 -15.5 36t-42.5 14q-22 0 -91 -11v39l345 56l-198 -701q-20 -71 -20 -85q0 -16 9.5 -26t22.5 -10q15 0 36 16q57 45 115 128l35 -23q-68 -104 -160 -175q-68 -53 -130 -53q-41 0 -67 24.5t-26 61.5zM182 1232 q0 45 31.5 76.5t75.5 31.5q45 0 76.5 -31.5t31.5 -76.5q0 -44 -31.5 -75.5t-76.5 -31.5q-44 0 -75.5 31.5t-31.5 75.5zM538 1232q0 45 31 76.5t76 31.5t76 -31.5t31 -76.5q0 -44 -31 -75.5t-76 -31.5q-44 0 -75.5 31.5t-31.5 75.5z" />
<glyph unicode="&#x458;" horiz-adv-x="569" d="M-352 -344q0 31 24.5 54.5t56.5 23.5q29 0 51 -19q18 -15 18 -34q0 -26 -25 -45q-14 -11 -14 -18l2 -5q3 -4 9 -6t18 -2q81 0 138.5 51.5t102.5 205.5l224 768q33 113 33 125q0 24 -21.5 43t-54.5 19q-13 0 -30 -3q-13 -2 -38 -6v35l343 62l-259 -895 q-69 -240 -189.5 -346t-260.5 -106q-63 0 -95.5 29t-32.5 69zM368 1200q0 42 29.5 71.5t71.5 29.5t71.5 -29.5t29.5 -71.5t-29.5 -71.5t-71.5 -29.5t-71.5 29.5t-29.5 71.5z" />
<glyph unicode="&#x459;" horiz-adv-x="1391" d="M-90 58q0 36 23.5 58t57.5 22q25 0 61 -21q30 -18 45 -18q50 0 118 195q84 239 145 355t170.5 186t260.5 70q50 0 111 -11l-139 -465q144 152 298 152q89 0 160.5 -58.5t71.5 -165.5q0 -150 -131.5 -265.5t-313.5 -115.5q-148 0 -218 70.5t-70 160.5q0 45 29 143l60 199 h-1l89 304q-145 -9 -246.5 -109.5t-193.5 -365.5q-53 -153 -79.5 -220.5t-83.5 -124.5t-127 -57q-47 0 -72 24t-25 58zM704 181q0 -69 43.5 -117.5t109.5 -48.5q102 0 183.5 102.5t81.5 229.5q0 68 -38 105.5t-92 37.5q-106 0 -197 -95.5t-91 -213.5z" />
<glyph unicode="&#x45a;" horiz-adv-x="1458" d="M42 0l197 689q16 58 16 75q0 54 -64 54q-27 0 -81 -11v36l312 62h32l-123 -419h367l62 207q13 45 13 78q0 49 -56 49q-27 0 -86 -11l10 35l298 61h32l-140 -476q144 152 299 152q95 0 163 -62t68 -162q0 -150 -131.5 -265.5t-313.5 -115.5q-148 0 -218 70.5t-70 160.5 q0 45 30 143l25 86h-367l-125 -436h-149zM772 181q0 -69 43.5 -117.5t109.5 -48.5q102 0 183.5 102.5t81.5 229.5q0 68 -38 105.5t-91 37.5q-105 0 -197 -94t-92 -215z" />
<glyph unicode="&#x45b;" d="M41 0l310 1074h-169l22 82h170q30 105 30 127q0 50 -64 50q-20 0 -85 -8v39l316 58h30l-77 -266h304l-22 -82h-306l-180 -623q192 292 295.5 373t178.5 81q54 0 85.5 -34t31.5 -94q0 -59 -28 -153l-122 -419q-22 -75 -22 -86q0 -30 25 -30q48 0 145 135l31 -19 q-159 -229 -276 -229q-42 0 -63 27t-21 61q0 41 35 160l115 400q22 75 22 115q0 47 -45 47q-92 0 -248 -215.5t-209 -384.5l-59 -186h-150z" />
<glyph unicode="&#x45c;" horiz-adv-x="958" d="M37 0l198 676q19 63 19 88q0 53 -71 53q-22 0 -78 -8v35l308 61h39l-128 -436q37 -2 42 -2q162 0 254 206q51 114 71.5 149.5t55 59t78.5 23.5q54 0 90.5 -34t36.5 -80q0 -39 -26 -66.5t-60 -27.5q-42 0 -75 49q-23 35 -41 35q-27 0 -65 -91q-82 -197 -183 -238 q43 -21 75.5 -67t126.5 -224q42 -82 79.5 -100t90.5 -24l-12 -37h-239q-87 188 -148 292t-87.5 119t-75.5 15l-125 -426h-150zM547 1059l103 343h225l-294 -343h-34z" />
<glyph unicode="&#x45d;" d="M60 691q75 116 159 171q64 43 118 43q37 0 60.5 -23.5t23.5 -60.5q0 -54 -40 -193l-94 -323q-39 -132 -39 -167q0 -19 12.5 -30.5t33.5 -11.5q33 0 86 33t141.5 146.5t146 213t122.5 316.5l22 76h152l-174 -596q-39 -133 -39 -168q0 -18 6.5 -26.5t17.5 -8.5 q17 0 37.5 15.5t103.5 123.5l30 -23q-79 -125 -162 -184q-55 -38 -106 -38q-39 0 -61 22t-22 57q0 34 13 90q16 74 91 322q-170 -279 -284.5 -385t-212.5 -106q-46 0 -78 32t-32 81q0 75 44 230l87 309q32 111 32 138q0 12 -8.5 20.5t-18.5 8.5q-21 0 -42 -15t-95 -111z M407 1402h221l109 -344h-32z" />
<glyph unicode="&#x45e;" horiz-adv-x="909" d="M-164 -363q0 38 32 70t71 32q40 0 54 -45q9 -28 21 -28q30 0 127 90t169 187l-56 634q-13 142 -37 183.5t-99 41.5q-20 0 -75 -6l-9 37l293 72q30 -48 44.5 -96.5t28.5 -210.5l44 -492q102 123 238.5 322t136.5 254q0 24 -41 38q-70 25 -70 94q0 38 23 64.5t62 26.5 q48 0 76.5 -40.5t28.5 -99.5q0 -141 -222 -435t-429 -533t-331 -239q-31 0 -55.5 22.5t-24.5 56.5zM353 1288q0 37 21.5 65t62.5 28q34 0 56.5 -20t48.5 -73q38 -79 111 -79q68 0 126.5 56.5t83.5 115.5h47q-117 -258 -330 -258q-101 0 -164 49t-63 116z" />
<glyph unicode="&#x45f;" d="M37 -359q111 44 111 134q0 12 -4 57q-2 11 -2 18q0 30 37 60q63 49 90 78q-31 -12 -61 -12q-57 0 -86 34.5t-29 84.5q0 69 43 224l88 309q31 112 31 133q0 34 -29 34q-38 0 -135 -126l-31 22q139 214 278 214q36 0 59.5 -23.5t23.5 -61.5q0 -53 -40 -192l-94 -323 q-38 -132 -38 -167q0 -42 47 -42q36 0 94 39t161.5 179t146 232t92.5 259l22 76h152l-174 -596q-39 -134 -39 -171q0 -32 24 -32q22 0 45 21t96 118l30 -23q-141 -222 -272 -222q-33 0 -55.5 21t-22.5 59q0 67 103 411q-117 -192 -179 -269.5t-220 -232.5q-42 -41 -42 -64 q0 -11 9 -46q6 -21 6 -38q0 -73 -62.5 -130t-154.5 -81z" />
<glyph unicode="&#x460;" horiz-adv-x="2326" d="M122 525q0 353 262 608q259 254 613 254q279 0 279 -135q0 -64 -41 -109.5t-105 -45.5q-73 0 -74 57q0 29 21.5 67t21.5 50q0 49 -100 49q-296 0 -490 -263q-175 -239 -175 -546q0 -466 346 -466q186 0 329 107l82 291q21 75 21 115q0 84 -162 84h-28l11 39h564l-10 -39 q-126 -2 -172 -76q-17 -28 -55 -157l-75 -257q109 -107 264 -107q344 0 522 272q154 236 154 613q0 390 -322 390q-126 0 -140 -65q-1 -6 -1 -16v-36q0 -47 -37.5 -76.5t-85.5 -29.5q-83 0 -83 73q0 37 26 82q78 135 362 135q226 0 349.5 -126t123.5 -354 q0 -449 -230.5 -694t-657.5 -245q-199 0 -335 116q-170 -116 -415 -116q-261 0 -409 147t-148 410z" />
<glyph unicode="&#x461;" horiz-adv-x="1303" d="M164 707q-9 91 15 174h164q-26 -90 -19 -174l39 -499l302 432l-6 67q-9 91 15 174h164q-28 -96 -19 -174l53 -486l165 252q40 62 62 137q9 32 13.5 98t13.5 98q28 99 135 99q65 0 65 -53q0 -16 -6 -37q-12 -43 -209 -340l-333 -503h-41l-62 587l-404 -587h-37z" />
<glyph unicode="&#x462;" horiz-adv-x="1382" d="M116 0l10 37q117 2 162 50q33 35 70 162l249 846h-75q-214 0 -304 -117q-44 -57 -72 -162h-37l95 360h414q8 38 8 59q0 84 -137 84l11 37h529l-11 -37q-114 -3 -156 -43q-24 -23 -55 -100h427l-111 -360h-38q19 79 19 141q0 73 -45 110q-34 28 -175 28h-106 q-5 -15 -15 -47l-89 -296h136q148 0 227 -24q113 -35 177 -134q56 -86 56 -185q0 -122 -81.5 -228.5t-199.5 -143.5t-278 -37h-605zM491 88q78 -14 171 -14q171 0 283 81q126 92 126 257q0 84 -44.5 151t-122.5 94q-72 25 -194 25h-45z" />
<glyph unicode="&#x463;" horiz-adv-x="1366" d="M39 0l198 688q16 56 16 74q0 55 -78 55q-35 0 -59 -4l10 37l330 55l-76 -253q83 116 137 160q84 69 191 69h294q-18 -100 -87 -225q-11 -20 -116 -185q127 129 256 129q96 0 160 -58q67 -61 67 -157q0 -162 -135 -282q-130 -115 -295 -115q-117 0 -200 63q-91 69 -91 180 q0 113 111 255q81 103 197 266h-208q-102 0 -199.5 -79.5t-126.5 -180.5l-142 -492h-154zM719 199q0 -68 33 -115q38 -53 102 -53q107 0 186 127q70 113 70 229q0 54 -31.5 90.5t-83.5 36.5q-82 0 -156 -67q-64 -59 -98 -144q-22 -56 -22 -104z" />
<glyph unicode="&#x464;" horiz-adv-x="1970" d="M-64 0l14 37q81 2 111 14q45 18 65 47q33 47 68 168l236 818q30 104 30 154q0 53 -52 72q-25 9 -104 9l12 37h524l-11 -37q-117 2 -163 -71q-25 -40 -61 -164l-103 -359h269q31 113 98 224q116 192 308 312q201 126 417 126q110 0 234 -47q53 -20 77 -20q46 0 103 67h37 l-101 -439h-36q-3 130 -17 184q-25 96 -103 145q-69 43 -181 43q-229 0 -407 -189q-155 -165 -217 -406h482l-20 -69h-477q-15 -80 -15 -156q0 -200 108 -319q113 -125 310 -125q267 0 445 253h47q-206 -340 -565 -340q-243 0 -398 146q-158 149 -158 391q0 74 14 150h-274 l-112 -390q-32 -111 -32 -144q0 -51 53 -69q29 -10 114 -16l-11 -37h-558z" />
<glyph unicode="&#x465;" horiz-adv-x="1380" d="M-58 0l13 34q54 1 73 9q28 12 42 31q23 32 45 110l146 509q19 66 19 101t-34 47q-17 6 -68 6l11 34h381l-10 -34q-41 1 -62 -9q-50 -23 -85 -145l-59 -207h230q47 113 144 218q187 201 415 201q53 0 138 -19q31 -7 48 -7q28 0 42 26h37l-78 -281h-39q3 26 3 47 q0 81 -40 130q-43 54 -122 54q-125 0 -242 -127q-102 -109 -144 -242h328l-14 -50h-330q-21 -69 -21 -137q0 -107 53 -170q57 -66 162 -66q156 0 323 177l31 -25q-187 -239 -432 -239q-139 0 -222 77.5t-83 215.5q0 86 25 167h-226l-72 -252q-21 -74 -21 -94q0 -34 35 -46 q17 -6 75 -10l-12 -34h-403z" />
<glyph unicode="&#x466;" horiz-adv-x="1427" d="M-113 0l11 37q76 13 122 46q81 59 142 150l767 1154h37l173 -1169q14 -92 23 -110q33 -62 140 -71l-11 -37h-462l11 37q52 5 72 18q28 18 44 73q14 48 -2 156l-47 324q-94 -43 -136 -108q-31 -48 -60 -149l-39 -136q-35 -122 -32 -142q5 -36 88 -36l-11 -37h-368l11 37 q82 0 108 36q15 21 50 142l39 136q32 111 22 158q-13 64 -86 99l-206 -314q-74 -114 -88 -161q-5 -18 -5 -33q0 -51 62 -63l-11 -37h-358zM529 660q103 -41 147 -144q67 94 223 144l-70 465z" />
<glyph unicode="&#x467;" horiz-adv-x="1110" d="M-106 0l11 37q53 11 91 39q46 35 85 82l614 747h41l195 -734q19 -73 38 -94q23 -26 84 -40l-11 -37h-381l11 37q87 0 107 70q7 25 -7 83l-64 269q-64 -35 -93 -87q-19 -34 -41 -111l-16 -56q-35 -120 -31 -137q7 -31 90 -31l-11 -37h-370l11 37q82 0 106 31q15 19 49 137 l16 56q15 54 15 96q0 72 -43 102l-230 -288q-48 -60 -48 -93q0 -41 72 -41l-11 -37h-279zM431 509q60 -28 93 -143q104 117 169 143l-60 244z" />
<glyph unicode="&#x468;" horiz-adv-x="2087" d="M-64 0l14 37q81 2 111 14q45 18 65 47q33 47 68 168l236 818q30 104 30 154q0 53 -52 72q-25 9 -104 9l12 37h524l-11 -37q-117 2 -163 -71q-25 -40 -61 -164l-116 -403h631l469 706h37l173 -1169q14 -92 23 -110q33 -62 140 -71l-11 -37h-462l11 37q52 5 72 18 q28 18 44 73q14 48 -2 156l-47 324q-94 -43 -136 -108q-31 -48 -60 -149l-39 -136q-35 -122 -32 -142q5 -36 88 -36l-11 -37h-368l11 37q82 0 108 36q15 21 50 142l39 136q32 111 22 158q-13 64 -86 99l-206 -314q-74 -114 -88 -161q-5 -18 -5 -33q0 -51 62 -63l-11 -37 h-358l11 37q76 13 122 46q81 59 142 150l252 379h-605l-99 -346q-32 -112 -32 -144q0 -51 53 -69q29 -10 114 -16l-11 -37h-558zM1189 660q103 -41 147 -144q67 94 223 144l-70 465z" />
<glyph unicode="&#x469;" horiz-adv-x="1600" d="M-58 0l13 34q54 1 73 9q28 12 42 31q23 32 45 110l146 509q19 66 19 101t-34 47q-17 6 -68 6l11 34h381l-10 -34q-41 1 -62 -9q-51 -23 -85 -145l-51 -180h501l322 392h41l195 -734q19 -73 38 -94q23 -26 84 -40l-11 -37h-381l11 37q87 0 107 70q7 25 -7 83l-64 269 q-64 -35 -93 -87q-19 -34 -41 -111l-16 -56q-35 -120 -31 -137q7 -31 90 -31l-11 -37h-370l11 37q82 0 106 31q15 19 49 137l16 56q15 54 15 96q0 72 -43 102l-230 -288q-48 -60 -48 -93q0 -41 72 -41l-11 -37h-279l11 37q53 11 91 39q46 35 85 82l251 305h-474l-80 -279 q-21 -73 -21 -94q0 -34 35 -46q17 -6 75 -10l-12 -34h-403zM921 509q60 -28 93 -143q104 117 169 143l-60 244z" />
<glyph unicode="&#x46a;" horiz-adv-x="1753" d="M-140 0l11 37q151 23 231 124q9 11 91.5 119.5t157.5 204.5q194 246 478 246l-304 625h1237l-666 -625q280 0 351 -246q18 -98 43 -324q22 -101 161 -124l-11 -37h-340l-31 376q-9 108 -65 189q-67 97 -173 97l-119 -415q-37 -129 -14 -167q24 -39 149 -43l-11 -37h-574 l11 37q128 4 176 45q45 38 81 165l119 415q-106 0 -229 -97q-102 -81 -173 -189l-247 -376h-340zM755 1282l261 -546l574 546h-835z" />
<glyph unicode="&#x46b;" horiz-adv-x="1302" d="M-124 0l11 38q95 7 174 98q16 19 117 172q119 180 402 180l-184 393h779l-395 -393q271 0 286 -180q13 -155 19 -173q26 -90 118 -97l-11 -38h-250l-31 283q-16 148 -178 148l-56 -198q-35 -122 -14 -153t101 -42l-11 -38h-438l11 38q95 9 137 56q33 37 62 139l56 198 q-161 0 -262 -148l-193 -283h-250zM590 809l141 -306l304 306h-445z" />
<glyph unicode="&#x46c;" horiz-adv-x="2433" d="M-64 0l14 37q81 2 111 14q45 18 65 47q33 47 68 168l236 818q30 104 30 154q0 53 -52 72q-25 9 -104 9l12 37h524l-11 -37q-117 2 -163 -71q-26 -41 -61 -164l-100 -352h1003l-303 624h1237l-666 -625q280 0 351 -246q18 -98 43 -324q22 -101 161 -124l-11 -37h-340 l-31 376q-9 108 -65 189q-67 97 -173 97l-119 -415q-37 -129 -14 -167q24 -39 149 -43l-11 -37h-574l11 37q128 4 176 45q45 38 81 165l119 415q-106 0 -229 -97q-102 -81 -173 -189l-247 -376h-340l11 37q151 23 231 124q60 80 249 324q90 115 208 178h-754l-115 -397 q-32 -111 -32 -144q0 -51 53 -69q29 -10 114 -16l-11 -37h-558zM1435 1282l261 -546l574 546h-835z" />
<glyph unicode="&#x46d;" horiz-adv-x="1812" d="M-58 0l13 34q54 1 73 9q28 12 42 31q23 32 45 110l146 509q19 66 19 101t-34 47q-17 6 -68 6l11 34h381l-10 -34q-41 1 -62 -9q-50 -23 -85 -145l-58 -203h734l-183 391h779l-395 -393q271 0 286 -180q13 -155 19 -173q26 -90 118 -97l-11 -38h-250l-31 283 q-16 148 -178 148l-56 -198q-35 -122 -14 -153t101 -42l-11 -38h-438l11 38q95 9 137 56q33 37 62 139l56 198q-161 0 -262 -148l-193 -283h-250l11 38q95 7 174 98q16 19 117 172q58 88 151 132h-498l-73 -256q-21 -74 -21 -94q0 -34 35 -46q17 -6 75 -10l-12 -34h-403z M1100 809l141 -306l304 306h-445z" />
<glyph unicode="&#x46e;" horiz-adv-x="1014" d="M-169 -270q1 153 130 271q101 93 225 93q36 0 106.5 -17t106.5 -17q140 0 225 127q74 111 74 258q0 236 -314 236l20 65q186 0 295.5 104t109.5 289q0 174 -177 174q-235 0 -362 -286h-36l113 359h37q9 -41 46 -41q14 0 36 6q86 23 147 31l-69 177q-25 63 -59 63l5 18 h200l-5 -18q-64 0 -64 -42q0 -14 11 -43l56 -150l172 184q71 76 116 76q35 0 35 -34q0 -23 -18 -43t-41 -20q-8 0 -15.5 4t-15.5 4q-17 0 -67 -52l-117 -121q103 -11 175 -69q96 -77 96 -210q0 -131 -100 -241q-89 -99 -223 -145q95 -28 156 -100q65 -76 65 -172 q0 -209 -134.5 -342.5t-343.5 -133.5q-33 0 -98 14t-98 14q-77 0 -135 -67q-76 -88 -76 -197q1 -106 120 -106q40 0 183.5 65t224.5 65q229 0 229 -102q0 -43 -32 -71.5t-76 -28.5q-41 0 -84 70q-32 60 -106 60q-35 0 -183 -65t-238 -65q-229 0 -228 172z" />
<glyph unicode="&#x46f;" horiz-adv-x="799" d="M-211 -273q0 43 14 92q29 102 108 175q85 80 186 80q29 0 85.5 -15t85.5 -15q102 0 165 75q60 71 60 175q0 90 -71 138q-60 41 -155 41q-10 0 -29 -1l11 45q347 0 347 199q0 63 -42.5 98t-106.5 35q-185 0 -278 -198h-39l74 254h34q8 -41 45 -41q16 0 44 9q56 18 104 26 l-70 178q-25 63 -59 63l5 18h200l-5 -18q-64 0 -64 -42q0 -14 11 -43l56 -150l172 184q71 76 116 76q35 0 35 -34q0 -23 -18 -43t-41 -20q-8 0 -15.5 4t-15.5 4q-17 0 -67 -52l-117 -122q66 -9 121 -46q84 -56 84 -148q0 -189 -339 -222q237 -66 237 -227q0 -131 -117 -212 q-103 -71 -237 -71q-30 0 -88 12t-86 12q-58 0 -108 -65q-71 -92 -71 -201q1 -104 83 -104q15 0 135 65t188 65q188 0 189 -96q0 -43 -32 -74.5t-76 -31.5q-52 0 -72 77q-16 53 -71 53q-29 0 -144 -65t-184 -65q-174 0 -177 169z" />
<glyph unicode="&#x470;" horiz-adv-x="1440" d="M219 1319l11 37h260l22 -514q3 -81 32 -150q40 -98 114 -98l151 518q18 62 18 99q0 108 -162 108l9 37h579l-8 -37q-120 -2 -171.5 -40.5t-85.5 -152.5l-157 -531q230 13 319 161q41 68 96 251q51 167 107.5 243t133.5 102q58 20 168 20v-38q-89 -1 -138 -82 q-27 -44 -59 -161q-54 -196 -101 -284q-76 -143 -208 -208q-119 -59 -335 -59l-88 -306q-17 -59 -17 -91q0 -83 71 -99q26 -6 95 -7l-9 -37h-579l9 37q120 0 175 48q50 43 86 163l87 292q-241 0 -269 175q-8 48 -18 236q-10 170 -29 253q-24 105 -109 115z" />
<glyph unicode="&#x471;" horiz-adv-x="1272" d="M112 853l11 38q59 14 106 14q176 0 162 -155l-54 -597q-5 -56 22 -93q30 -41 85 -41l265 862h98l-263 -863q152 0 241 110q61 76 117 251l70 218q99 308 301 308q26 0 52 -8v-37q-88 -1 -133 -138l-77 -235q-56 -171 -113 -262q-80 -129 -206 -192q-115 -58 -265 -58 l-124 -413h-101l125 414q-278 0 -267 183l32 537q5 55 5 95q-7 63 -68 63q-10 0 -21 -1z" />
<glyph unicode="&#x472;" horiz-adv-x="1479" d="M122 443q0 180 89 372q85 180 221 314q263 258 577 258q283 0 402 -231q59 -114 59 -238q0 -232 -130.5 -467t-326.5 -356q-204 -126 -422 -126q-306 0 -418 253q-51 115 -51 221zM329 394q0 -151 71 -250q81 -111 226 -111q188 0 361 199q139 160 223 415 q-86 -45 -108 -54q-89 -37 -168 -37q-70 0 -183 73.5t-156 73.5q-81 0 -226 -37q-40 -143 -40 -272zM390 735q79 42 107 53q90 37 168 37q72 0 185 -73.5t154 -73.5q85 0 226 36q38 140 38 264q0 146 -72 241q-80 104 -221 104q-209 0 -385 -211q-94 -112 -169 -295 q-18 -43 -31 -82z" />
<glyph unicode="&#x473;" d="M60 290q0 155 89 303q87 144 222 226q142 86 273 86q136 0 219.5 -88t83.5 -225q0 -159 -82 -303t-219 -227q-142 -86 -276 -86q-138 0 -224 88t-86 226zM224 224q0 -84 41 -138q46 -60 128 -60q141 0 265 210q57 96 87 192q-103 -59 -169 -59q-42 0 -112.5 48.5 t-100.5 48.5q-44 0 -106 -27q-33 -108 -33 -215zM282 510q100 57 163 57q44 0 115 -48.5t98 -48.5q44 0 105 27q18 82 18 164q0 192 -163 192q-147 0 -270 -210q-40 -67 -66 -133z" />
<glyph unicode="&#x474;" horiz-adv-x="1372" d="M256 1319l10 37h535l-11 -37q-70 -1 -100 -11q-48 -16 -71 -65q-11 -24 -21 -125l-80 -809l689 943q99 135 192 135q52 0 85.5 -33t33.5 -84q0 -47 -25 -81q-28 -36 -73 -36q-28 0 -61.5 23.5t-61.5 23.5q-46 0 -101 -75l-849 -1156h-36l112 1129q8 81 8 116 q0 105 -139 105h-36z" />
<glyph unicode="&#x475;" horiz-adv-x="1137" d="M44 843l289 62q32 -76 50 -151q27 -114 44 -268q9 -81 20 -266l305 444q82 119 106 148q80 93 145 93q100 0 100 -92q0 -40 -26 -69.5t-68 -29.5q-15 0 -40.5 11.5t-37.5 11.5q-50 0 -109 -84l-473 -677h-44q-24 634 -100 790q-25 51 -83 51q-25 0 -71 -9z" />
<glyph unicode="&#x476;" horiz-adv-x="1372" d="M256 1319l10 37h535l-11 -37q-70 -1 -100 -11q-48 -16 -71 -65q-11 -24 -21 -125l-80 -809l689 943q99 135 192 135q52 0 85.5 -33t33.5 -84q0 -47 -25 -81q-28 -36 -73 -36q-28 0 -61.5 23.5t-61.5 23.5q-46 0 -101 -75l-849 -1156h-36l112 1129q8 81 8 116 q0 105 -139 105h-36zM794 1795h103l41 -345h-103zM1004 1795h103l41 -345h-103z" />
<glyph unicode="&#x477;" horiz-adv-x="1137" d="M44 843l289 62q32 -76 50 -151q27 -114 44 -268q9 -81 20 -266l305 444q82 119 106 148q80 93 145 93q100 0 100 -92q0 -40 -26 -69.5t-68 -29.5q-15 0 -40.5 11.5t-37.5 11.5q-50 0 -109 -84l-473 -677h-44q-24 634 -100 790q-25 51 -83 51q-25 0 -71 -9zM474 1390h103 l41 -345h-103zM684 1390h103l41 -345h-103z" />
<glyph unicode="&#x478;" horiz-adv-x="2269" d="M122 443q0 353 238 642q247 302 579 302q194 0 301 -135q99 -127 99 -339q0 -353 -237 -642q-248 -302 -580 -302q-194 0 -300 135q-100 127 -100 339zM329 394q0 -166 40 -250q54 -111 187 -111q255 0 428 336q148 288 148 593q0 166 -40 250q-54 111 -187 111 q-255 0 -428 -336q-148 -288 -148 -593zM1196 -364q0 39 30 71t69 32q38 0 54.5 -37t29.5 -37q33 0 149 118q95 97 142 160l-46 634q-11 154 -42 191q-28 34 -94 34q-21 0 -75 -6l-9 37l293 72q34 -58 47 -108q17 -65 26 -199l34 -492q63 75 174 228q202 277 202 352 q0 21 -43 35q-69 22 -69 93q0 91 84 91q52 0 81 -44q25 -39 25 -93q0 -98 -99 -260q-38 -62 -163 -232q-154 -210 -373 -458q-145 -165 -224 -215q-70 -45 -125 -45q-78 0 -78 78z" />
<glyph unicode="&#x479;" horiz-adv-x="1819" d="M60 290q0 227 165 419q169 196 378 196q127 0 200 -88q70 -85 70 -226q0 -227 -166 -419q-169 -196 -378 -196q-127 0 -199 88q-70 85 -70 226zM224 224q0 -197 130 -197q148 0 260 241q95 206 95 389q0 197 -130 197q-148 0 -260 -241q-95 -206 -95 -389zM746 -364 q0 39 30 71t69 32q38 0 54.5 -37t29.5 -37q33 0 149 118q95 97 142 160l-46 634q-11 154 -42 191q-28 34 -94 34q-21 0 -75 -6l-9 37l293 72q34 -58 47 -108q17 -65 26 -199l34 -492q63 76 174 228q202 277 202 352q0 21 -43 35q-69 22 -69 93q0 91 84 91q52 0 81 -44 q25 -39 25 -93q0 -98 -99 -260q-38 -62 -163 -232q-154 -210 -373 -458q-145 -165 -224 -215q-70 -45 -125 -45q-78 0 -78 78z" />
<glyph unicode="&#x47a;" horiz-adv-x="1602" d="M82 473q0 359 254 620q250 255 614 288q19 74 98 74q73 0 97 -66q493 -34 493 -502q0 -359 -254 -620q-250 -255 -614 -288q-18 -74 -98 -74q-73 0 -97 66q-493 34 -493 502zM284 421q0 -334 291 -379q24 65 95 65t96 -64q291 44 486 320q184 261 184 576q0 334 -291 379 q-24 -65 -95 -65t-96 64q-291 -44 -486 -320q-184 -261 -184 -576z" />
<glyph unicode="&#x47b;" horiz-adv-x="1180" d="M40 309q0 221 164 391t401 199q17 79 99 79q79 0 99 -73q151 -12 235 -98.5t84 -230.5q0 -221 -164 -391t-401 -199q-17 -79 -99 -79q-79 0 -99 73q-151 12 -235 98.5t-84 230.5zM206 270q0 -79 44 -146q45 -71 110 -83q23 68 96 68q76 0 98 -70q179 34 295 213 q107 166 107 363q0 79 -44 146q-45 71 -110 83q-23 -68 -96 -68q-76 0 -98 70q-179 -34 -295 -213q-107 -166 -107 -363z" />
<glyph unicode="&#x47c;" horiz-adv-x="2326" d="M122 525q0 353 262 608q259 254 613 254q279 0 279 -135q0 -64 -41 -109.5t-105 -45.5q-73 0 -74 57q0 29 21.5 67t21.5 50q0 49 -100 49q-296 0 -490 -263q-175 -239 -175 -546q0 -466 346 -466q206 0 468 212q133 -212 338 -212q307 0 485 272q154 236 154 613 q0 390 -322 390q-126 0 -140 -65q-1 -6 -1 -26v-26q0 -47 -37.5 -76.5t-85.5 -29.5q-83 0 -83 73q0 37 26 82q78 135 362 135q226 0 349.5 -126t123.5 -354q0 -449 -230.5 -694t-620.5 -245q-199 0 -362 141q-190 -141 -425 -141q-261 0 -409 147t-148 410zM1054 1694 q157 263 446 263q100 0 321.5 -80t389.5 -80l-102 -103q-134 0 -344.5 97.5t-283.5 97.5q-185 0 -293 -195h-134zM1281 1420q138 61 138 128q0 29 -34 62.5t-34 70.5q0 41 28.5 70.5t70.5 29.5q46 0 75 -32.5t29 -78.5q0 -186 -253 -282z" />
<glyph unicode="&#x47d;" horiz-adv-x="1654" d="M60 300q0 225 175 413q179 192 403 192l-5 -52q-172 0 -294 -165q-111 -151 -111 -329q0 -107 48 -179q56 -82 158 -82q150 0 321 144q89 -144 241 -144q161 0 282 141q98 115 148 289q18 63 18 123q0 92 -56.5 147t-145.5 55l24 52q150 0 234 -89q77 -82 77 -220 q0 -224 -161 -419q-170 -205 -389 -205q-215 0 -310 156q-185 -156 -376 -156q-81 0 -148 41q-70 42 -100 115q-33 80 -33 172zM660 1317q157 263 446 263q100 0 321.5 -80t389.5 -80l-102 -103q-134 0 -344.5 97.5t-283.5 97.5q-185 0 -293 -195h-134zM887 1043 q138 61 138 128q0 29 -34 62.5t-34 70.5q0 41 28.5 70.5t70.5 29.5q46 0 75 -32.5t29 -78.5q0 -186 -253 -282z" />
<glyph unicode="&#x47e;" horiz-adv-x="2326" d="M122 525q0 353 262 608q259 254 613 254q279 0 279 -135q0 -64 -41 -109.5t-105 -45.5q-73 0 -74 57q0 29 21.5 67t21.5 50q0 49 -100 49q-296 0 -490 -263q-175 -239 -175 -546q0 -466 346 -466q186 0 329 107l82 291q21 75 21 115q0 84 -162 84h-28l11 39h564l-10 -39 q-126 -2 -172 -76q-17 -28 -55 -157l-75 -257q109 -107 264 -107q344 0 522 272q154 236 154 613q0 390 -322 390q-126 0 -140 -65q-1 -6 -1 -16v-36q0 -47 -37.5 -76.5t-85.5 -29.5q-83 0 -83 73q0 37 26 82q78 135 362 135q226 0 349.5 -126t123.5 -354 q0 -449 -230.5 -694t-657.5 -245q-199 0 -335 116q-170 -116 -415 -116q-261 0 -409 147t-148 410zM943 1675h914l-90 -195h-34l-47 101h-222l-47 -101h-34l-47 101h-222l-47 -101h-34z" />
<glyph unicode="&#x47f;" horiz-adv-x="1303" d="M164 707q-9 91 15 174h164q-26 -90 -19 -174l39 -499l302 432l-6 67q-9 91 15 174h164q-28 -96 -19 -174l53 -486l165 252q40 62 62 137q9 32 13.5 98t13.5 98q28 99 135 99q65 0 65 -53q0 -16 -6 -37q-12 -43 -209 -340l-333 -503h-41l-62 587l-404 -587h-37zM343 1295 h914l-90 -195h-34l-47 101h-222l-47 -101h-34l-47 101h-222l-47 -101h-34z" />
<glyph unicode="&#x480;" horiz-adv-x="1366" d="M138 505q0 231 122 438t324 324q208 120 418 120q98 0 222 -47q53 -20 78 -20q42 0 102 67h37l-101 -439h-36l-4 110q-2 52 -23 107q-59 155 -267 155q-179 0 -313 -98q-171 -125 -268 -353q-80 -188 -80 -381q0 -191 111 -310q113 -122 303 -122q36 0 75 5l-68 -233 q-32 -110 -32 -144q0 -51 53 -69q29 -10 114 -16l-11 -37h-558l14 37q81 2 111 14q45 18 65 47q31 44 68 168l43 143q-305 23 -432 263q-67 126 -67 271z" />
<glyph unicode="&#x481;" horiz-adv-x="909" d="M56 271q0 159 91 309q86 144 225 233q144 92 283 92q88 0 146 -34q71 -41 71 -123q0 -61 -38 -106q-29 -34 -69 -34q-72 0 -72 70q0 37 39 74q33 32 33 53q0 55 -101 55q-111 0 -213 -83q-86 -71 -145 -182q-82 -154 -82 -308q0 -101 57.5 -161t158.5 -60q33 0 64 8 l-96 -328q-21 -72 -21 -94q0 -34 35 -46q17 -6 75 -10l-12 -34h-403l13 34q54 1 73 9q28 12 42 31q22 32 45 110l67 231q-125 9 -195.5 88.5t-70.5 205.5z" />
<glyph unicode="&#x482;" horiz-adv-x="572" d="M-69 -31l296 561l-196 104l39 73l195 -104l113 216l-194 103l39 73l194 -104l279 531h88l-301 -566l198 -105l-38 -72l-198 104l-113 -216l195 -104l-37 -73l-197 104l-276 -525h-86z" />
<glyph unicode="&#x483;" horiz-adv-x="0" d="M-138 1173q0 46 33 79t79 33h359q-1 7 -1 18q0 46 33 79t79 33t79 -33t33 -79t-33 -79t-79 -33h-359q1 -7 1 -18q0 -46 -33 -79t-79 -33t-79 33t-33 79z" />
<glyph unicode="&#x484;" horiz-adv-x="0" d="M-82 1225v128h114q58 0 162.5 49t161.5 49q214 0 214 -226h-65q0 57 -32 96q-35 42 -91 42q-34 0 -153 -69t-197 -69h-114z" />
<glyph unicode="&#x485;" horiz-adv-x="0" d="M100 1192q0 75 30 129q36 66 106 66q99 0 99 -93q0 -60 -76.5 -102t-76.5 -110q0 -47 42 -98l-28 -24q-96 104 -96 232z" />
<glyph unicode="&#x486;" horiz-adv-x="0" d="M60 982q75 33 122 86q36 40 36 76q0 20 -6 34q-24 22 -55 65q-7 16 -7 39q0 41 29 73t70 32q46 0 75 -35t29 -81q0 -108 -87 -200q-75 -79 -186 -121z" />
<glyph unicode="&#x487;" horiz-adv-x="0" d="M-334 1317q157 263 446 263q103 0 338 -80t373 -80l-102 -103q-122 0 -340.5 97.5t-287.5 97.5q-185 0 -293 -195h-134z" />
<glyph unicode="&#x488;" horiz-adv-x="0" d="M-981 464q0 107 49 171q56 72 162 72q211 0 211 -243h-91q0 149 -120 149t-120 -149h-91zM-861 -92q0 107 49 171q56 72 162 72q211 0 211 -243h-91q0 149 -120 149t-120 -149h-91zM-861 970q0 107 49 171q56 72 162 72q211 0 211 -243h-91q0 149 -120 149t-120 -149h-91 zM-221 -336q0 107 49 171q56 72 162 72q211 0 211 -243h-91q0 149 -120 149t-120 -149h-91zM-221 1214q0 107 49 171q56 72 162 72q211 0 211 -243h-91q0 149 -120 149t-120 -149h-91zM439 -92q0 243 211 243q106 0 162 -72q49 -64 49 -171h-91q0 149 -120 149t-120 -149 h-91zM439 970q0 243 211 243q106 0 162 -72q49 -64 49 -171h-91q0 149 -120 149t-120 -149h-91zM559 464q0 243 211 243q106 0 162 -72q49 -64 49 -171h-91q0 149 -120 149t-120 -149h-91z" />
<glyph unicode="&#x489;" horiz-adv-x="0" d="M-948 605h89q10 -75 116 -75v76h147v-153h-139q-73 0 -133 40q-63 43 -80 112zM-799 -88l63 63q23 -17 48 -17q41 0 87 46l-54 54l104 104l109 -109l-99 -98q-51 -51 -121 -65q-76 -15 -137 22zM-714 1090q-15 76 22 137l63 -63q-17 -23 -17 -48q0 -41 46 -87l54 54 l104 -104l-109 -109l-98 99q-51 51 -65 121zM-93 -60h153v-139q0 -73 -40 -133q-43 -63 -112 -80v89q75 10 75 116h-76v147zM-93 1188v139q0 73 41.5 134.5t110.5 78.5v-89q-75 -10 -75 -116h76v-147h-153zM442 138l108 108l98 -98q52 -52 66 -122q15 -75 -22 -136l-63 63 q17 23 17 48q0 41 -46 87l-54 -54zM442 1063l98 99q51 51 122 65q75 15 136 -22l-63 -63q-23 17 -48 17q-41 0 -87 -46l54 -54l-104 -104zM596 510v153h139q73 0 133 -40q63 -43 80 -112h-89q-10 75 -116 75v-76h-147z" />
<glyph unicode="&#x48a;" horiz-adv-x="1479" d="M-52 0l12 37q108 0 152 46q32 33 66 150l236 798q43 145 43 214q0 49 -55 65q-26 8 -95 9l9 37h539l-13 -37q-118 -4 -166 -68q-27 -36 -70 -177l-238 -789l892 923q0 74 -40 95q-25 13 -112 16l12 37h543l-10 -37q-123 -8 -170 -67q-32 -37 -73 -178l-232 -789 q-38 -129 -38 -167q0 -81 149 -81l-281 -439h-33q82 166 80 253q-3 149 -257 149h-46l12 37q123 0 171 73q20 30 68 192l227 772l-894 -929q-1 -77 51 -97q30 -11 102 -11l-12 -37h-529zM761 1655q0 83 76 83q42 0 67 -37q12 -16 35 -74q47 -118 143 -118q91 0 154 127 q51 102 109 102q67 0 67 -70q0 -97 -139 -156q-109 -47 -221 -47q-91 0 -183 49q-108 57 -108 141z" />
<glyph unicode="&#x48b;" d="M60 691q139 214 277 214q84 0 84 -85q0 -55 -40 -192l-94 -323q-39 -134 -39 -167q0 -42 47 -42q95 0 256 218q102 138 146 232q47 101 93 259l22 76h152l-174 -596q-39 -134 -39 -171q0 -32 24 -32q38 0 141 139l31 -23q-35 -51 -104 -154q-27 -38 -55 -77 q-43 -61 -43 -71q0 -9 9 -37t9 -45q0 -78 -73 -140q-60 -51 -145 -75l-18 35q111 59 111 140q0 24 -7 50q-2 9 -2 15q0 34 54 79q84 69 95 92q-53 -34 -101 -34q-81 0 -81 80q0 67 103 411q-288 -491 -492 -491q-115 0 -115 119q0 68 44 224l87 309q32 114 32 133 q0 34 -30 34q-38 0 -134 -126zM433 1288q0 93 83 93q61 0 106 -93q38 -79 111 -79q63 0 126 57q57 50 83 115h47q-116 -258 -329 -258q-84 0 -150 40q-77 46 -77 125z" />
<glyph unicode="&#x48c;" horiz-adv-x="1208" d="M-58 0l10 37q117 2 162 50q32 35 70 162l257 869h-179l23 74h178l48 164h179l-49 -164h177l-20 -74h-179l-109 -366h136q148 0 227 -24q113 -35 177 -134q56 -86 56 -185q0 -122 -81.5 -228.5t-199.5 -143.5t-278 -37h-605zM317 88q78 -14 171 -14q171 0 283 81 q126 92 126 257q0 84 -44.5 151t-122.5 94q-72 25 -194 25h-45z" />
<glyph unicode="&#x48d;" horiz-adv-x="932" d="M102 207q0 45 29 143l228 769h-168l23 74h167l68 229h149l-68 -229h177l-20 -74h-178l-204 -690q144 152 298 152q99 0 165.5 -63t66.5 -161q0 -164 -144 -276q-133 -105 -301 -105q-119 0 -198 55q-90 62 -90 176zM246 181q0 -67 43.5 -116.5t109.5 -49.5q113 0 193 113 q72 102 72 219q0 62 -34.5 102.5t-95.5 40.5q-113 0 -200.5 -97.5t-87.5 -211.5z" />
<glyph unicode="&#x48e;" horiz-adv-x="1251" d="M-49 0l11 37q120 0 168 60q28 36 69 178l224 772q40 138 40 186q0 78 -154 86l11 37h534q171 0 283 -68q135 -82 135 -243q0 -117 -77 -215q-69 -87 -183 -141l99 -138l-67 -52l-113 158q-96 -30 -202 -30q-94 0 -239 34l-108 -370q-38 -130 -38 -174q0 -71 156 -80 l-10 -37h-539zM507 724q113 -29 182 -29q102 0 186 39l-86 120l68 53l91 -128q48 40 80 96q50 89 50 187q0 219 -250 219q-68 0 -165 -17z" />
<glyph unicode="&#x48f;" d="M-226 -438l10 37q102 4 137 45q24 27 57 142l253 876q23 80 23 103q0 57 -63 57q-29 0 -81 -7v39l343 51l-69 -230q196 230 369 230q99 0 160 -79q55 -72 55 -175q0 -219 -179 -447q-51 -64 -105 -110l103 -144l-67 -52l-105 147q-114 -69 -243 -69q-89 0 -175 50 l-73 -258q-22 -78 -22 -99q0 -45 49 -61q28 -9 103 -9l-9 -37h-471zM220 105q62 -74 167 -74q90 0 179 82l-100 140l67 53l92 -129q86 109 140 276q32 99 32 200q0 66 -27 111q-33 54 -95 54q-122 0 -236 -151q-91 -121 -132 -263z" />
<glyph unicode="&#x490;" horiz-adv-x="901" d="M-61 0l11 37q120 7 156.5 39.5t76.5 169.5l227 767q49 166 49 229q0 40 -32 57.5t-122 19.5l13 37h370q173 0 245.5 16t132 78t103.5 195h37l-103 -358h-434l-304 -1024q-29 -99 -29 -141q0 -44 31.5 -63t122.5 -22l-10 -37h-541z" />
<glyph unicode="&#x491;" horiz-adv-x="645" d="M86 69q0 31 25 116l130 448q35 118 35 150q0 37 -27 60.5t-125 23.5v38h403q98 0 135 27t84 131h37l-71 -218h-260l-181 -641q-20 -70 -20 -89q0 -32 29 -32q50 0 154 144l35 -23q-39 -63 -126 -145.5t-164 -82.5q-93 0 -93 93z" />
<glyph unicode="&#x492;" horiz-adv-x="1165" d="M-74 0l12 37q126 1 173 53q33 36 74 173l124 414h-174l20 74h176l93 311q34 114 34 164q0 64 -56 82q-21 7 -112 11l12 37h1057l-105 -358h-37q10 84 10 118q0 112 -68 147q-46 24 -173 24h-320l-158 -536h372l-20 -74h-373l-122 -414q-32 -109 -32 -134q0 -60 64 -79 q28 -9 114 -13l-10 -37h-575z" />
<glyph unicode="&#x493;" horiz-adv-x="799" d="M2 157q0 114 118 192q59 40 218 100l23 9l-108 159l78 31l107 -158q95 44 135 86q56 60 56 132q0 126 -167 126q-126 0 -264 -100l-30 25q166 146 350 146q107 0 178 -38q91 -48 91 -145q0 -96 -109 -168q-41 -27 -191 -92l-23 -10l114 -167l-79 -29l-110 161 q-126 -62 -166 -110q-54 -66 -54 -119q0 -73 61 -113q52 -34 129 -34q137 0 300 132l27 -26q-174 -171 -413 -171q-108 0 -179 36q-92 47 -92 145z" />
<glyph unicode="&#x494;" horiz-adv-x="1302" d="M-74 0l12 37q126 1 173 53q33 36 74 173l239 799q34 114 34 164q0 64 -56 82q-21 7 -112 11l12 37h1057l-105 -358h-37q10 84 10 118q0 112 -68 147q-46 24 -173 24h-320l-159 -541q197 107 386 107q145 0 227 -110q76 -102 78 -269q3 -318 -195 -601 q-221 -315 -538 -315q-91 0 -176 31q-65 24 -98 31q-69 0 -101 -62h-35l99 331h31q2 -131 100 -200q85 -60 220 -59q211 2 371 316q135 264 146 518q12 278 -221 278q-181 0 -318 -76l-118 -403q-32 -109 -32 -134q0 -60 64 -79q28 -9 114 -13l-10 -37h-575z" />
<glyph unicode="&#x495;" horiz-adv-x="910" d="M-86 0l11 37q93 4 130 52q23 29 54 138l126 442q26 91 26 115q0 59 -105 59l10 38h663l-69 -239h-36q7 42 7 65q0 73 -55 98q-36 16 -120 16h-125l-106 -368q140 48 262 48q132 0 207 -82q71 -78 72 -209q2 -279 -184.5 -465.5t-467.5 -186.5q-184 0 -184 78q0 11 4 23 q24 85 97 85q31 0 75 -58q49 -69 88 -69q157 0 288 201q118 183 117 350q-2 252 -194 252q-75 0 -199 -33l-44 -151q-30 -103 -30 -130q0 -66 140 -69l-14 -37h-444z" />
<glyph unicode="&#x496;" horiz-adv-x="1876" d="M-112 0l11 37q106 0 249 174l273 332q66 80 108 110q60 43 144 50q-112 55 -112 198q0 32 8 119q7 76 7 104q0 104 -41 104q-21 0 -52 -32q-49 -51 -92 -51q-40 0 -70 33.5t-30 73.5q0 56 52 90q46 30 105 30q96 0 149 -71q48 -64 48 -163q0 -39 -9 -115.5t-9 -114.5 q0 -167 213 -167h88l87 295q40 136 40 193q0 90 -148 90l8 37h535l-9 -37q-108 0 -157 -55q-35 -40 -70 -158l-108 -365h70q199 0 293 133q49 69 111 206q66 146 98 191q74 101 175 101q61 0 101 -31q43 -34 43 -94q0 -44 -26.5 -74.5t-70.5 -30.5q-45 0 -100 54 q-26 26 -48 26q-33 0 -64 -57q-3 -5 -36 -84q-65 -155 -120 -234q-87 -125 -199 -160q40 -19 93 -134l133 -291q64 -141 101 -180t118 -45l-128 -439h-37q19 106 19 170q0 140 -64 199q-37 33 -81 33l-230 511q-38 84 -61 111q-41 46 -111 47l-128 -453q-21 -74 -21 -99 q0 -73 154 -80l-12 -37h-528l8 37q119 3 167 67q27 36 69 179l113 386h-28q-96 0 -131 -23q-17 -11 -96 -103l-464 -543h-300z" />
<glyph unicode="&#x497;" horiz-adv-x="1905" d="M-1 142q0 49 29 86.5t77 37.5q74 0 74 -70q0 -24 -27.5 -58.5t-27.5 -58.5q0 -27 22 -45t50 -18q161 0 280 212q104 184 104 358q0 92 -40 156q-48 76 -135 76q-144 0 -279 -164l-27 19q154 232 380 232q129 0 200 -88q65 -82 65 -214q0 -66 -16 -137h150l118 415h151 l-118 -415h155q50 170 190 299q152 140 319 140q88 0 143 -42q60 -46 60 -131q0 -48 -26 -81q-29 -36 -75 -36q-76 0 -76 77q0 30 27 68q18 25 18 42q0 59 -76 59q-145 0 -266 -213q-108 -188 -108 -346q0 -96 41 -162q49 -78 140 -78q143 0 270 163l30 -16 q-51 -83 -157 -239q-42 -56 -42 -68q0 -9 9 -37t9 -45q0 -78 -73 -140q-60 -51 -145 -75l-18 35q111 59 111 138q0 12 -7 52q-2 9 -2 15q0 32 54 79q98 84 123 137q-113 -85 -234 -85q-132 0 -205 94q-68 86 -68 221q0 60 17 125h-152l-119 -416h-149l118 416h-153 q-67 -186 -192 -304q-144 -136 -325 -136q-83 0 -137 41q-59 45 -59 125z" />
<glyph unicode="&#x498;" horiz-adv-x="1014" d="M-2 126l27 26q151 -120 315 -120q152 0 258 133q100 124 100 280q0 236 -314 236l20 65q123 0 197 33q85 38 145 134q63 101 63 226q0 174 -177 174q-235 0 -362 -286h-36l113 359h37q9 -41 46 -41q14 0 36 6q135 36 222 36q136 0 225 -71q95 -77 95 -210 q0 -132 -100 -241q-88 -98 -223 -145q95 -28 156 -100q65 -77 65 -172q0 -176 -142 -327q-125 -133 -324 -150q56 -71 56 -150q0 -95 -69 -149q-64 -50 -161 -50q-103 0 -229 83l21 29q72 -24 122 -24q85 0 145 49q64 53 64 136q0 30 -14 74q-202 1 -377 157z" />
<glyph unicode="&#x499;" horiz-adv-x="799" d="M-92 -295l21 29q72 -24 122 -24q85 0 145 49q64 53 64 136q0 32 -17 82q-195 12 -293 186l34 15q35 -56 103 -92t135 -36q106 0 186 68q85 72 85 176q0 90 -71 138q-61 41 -155 41q-10 0 -29 -1l11 45q347 0 347 199q0 63 -44 99q-40 34 -105 34q-185 0 -278 -198h-39 l74 254h34q8 -41 45 -41q16 0 44 9q98 32 178 32q96 0 170 -49q84 -57 84 -148q0 -189 -339 -222q237 -66 237 -227q0 -159 -188 -243q-75 -34 -162 -39q60 -73 60 -156q0 -95 -69 -149q-64 -50 -161 -50q-103 0 -229 83z" />
<glyph unicode="&#x49a;" horiz-adv-x="1360" d="M-57 0l13 37q112 0 168 53q26 25 65 161l242 852q26 92 26 122q0 62 -50 82q-30 12 -104 12l13 37h562l-9 -37q-141 0 -194 -63q-32 -39 -78 -203l-87 -308q47 -1 68 -1q131 0 184 16q77 23 146 104q59 69 143 254q57 124 101 174q71 80 176 80q59 0 102 -28 q50 -33 50 -89q0 -46 -27 -78q-28 -35 -73 -35q-46 0 -94 64q-25 33 -54 33q-38 0 -73 -55q-7 -12 -42 -88q-79 -170 -130 -241q-92 -128 -212 -163q45 -17 94 -125l165 -361q43 -94 84 -126q46 -35 144 -43l-128 -439h-37q19 106 19 170q0 140 -79 199q-46 33 -97 33 l-207 459q-51 114 -72 143q-52 71 -132 71q-14 0 -42 -3l-120 -419q-26 -91 -26 -130q0 -73 154 -84l-8 -37h-544z" />
<glyph unicode="&#x49b;" horiz-adv-x="958" d="M37 0l198 676q19 65 19 88q0 53 -71 53q-22 0 -78 -8v35l308 61h39l-128 -436q37 -2 42 -2q162 0 254 206q49 110 51 113q35 68 76 96q34 23 78 23q51 0 89 -32t38 -82q0 -36 -25 -65t-61 -29q-42 0 -75 49q-23 35 -41 35q-27 0 -65 -91q-82 -197 -183 -238 q56 -27 108 -112q13 -23 94 -179q41 -79 71 -79q38 0 141 139l31 -23q-35 -51 -104 -154q-27 -38 -55 -77q-43 -61 -43 -71q0 -9 9 -37t9 -45q0 -78 -73 -140q-60 -51 -145 -75l-18 35q111 59 111 137q0 13 -7 53q-2 9 -2 15q0 34 54 79q84 69 95 92q-53 -34 -101 -34 q-42 0 -71 60q-45 93 -131 256q-48 83 -62 97q-36 37 -101 37l-125 -426h-150z" />
<glyph unicode="&#x49c;" horiz-adv-x="1360" d="M-57 0l13 37q112 0 168 53q26 25 65 161l242 852q26 92 26 122q0 62 -50 82q-30 12 -104 12l13 37h562l-9 -37q-141 0 -194 -63q-32 -39 -78 -203l-87 -308q47 -1 68 -1q48 0 92 3l94 332h87l-93 -320q22 5 33 10q125 54 260 349q57 124 101 174q71 80 176 80 q59 0 102 -28q50 -33 50 -89q0 -46 -27 -78q-28 -35 -73 -35q-46 0 -94 64q-25 33 -54 33q-38 0 -73 -55q-7 -12 -42 -88q-79 -170 -130 -241q-92 -128 -212 -163q45 -17 94 -125l165 -361q43 -94 84 -126q46 -35 144 -43l-8 -37h-314l-207 459q-23 51 -38 80l-86 -297h-83 l111 389q-37 42 -108 42q-14 0 -42 -3l-120 -419q-26 -91 -26 -130q0 -73 154 -84l-8 -37h-544z" />
<glyph unicode="&#x49d;" horiz-adv-x="958" d="M37 0l198 676q19 65 19 88q0 53 -71 53q-22 0 -78 -8v35l308 61h39l-128 -436q37 -2 42 -2q26 0 49 5l85 302h87l-73 -252q62 52 106 151q49 110 51 113q35 68 76 96q34 23 78 23q51 0 89 -32t38 -82q0 -36 -25 -65t-61 -29q-42 0 -75 49q-23 35 -41 35q-27 0 -65 -91 q-82 -197 -183 -238q56 -27 118 -132q3 -3 84 -159q35 -67 66 -90q34 -26 104 -34l-12 -37h-239q-98 212 -166 322l-53 -185h-83l75 267q-3 3 -8 7q-26 15 -76 15l-125 -426h-150z" />
<glyph unicode="&#x49e;" horiz-adv-x="1360" d="M-57 0l13 37q112 0 168 53q26 25 65 161l209 737h-178l23 74h176l12 41q26 92 26 122q0 62 -50 82q-30 12 -104 12l13 37h562l-9 -37q-130 0 -175.5 -41.5t-89.5 -198.5l-5 -17h197l-20 -74h-198l-68 -243q47 -1 68 -1q131 0 184 16q77 23 146 104q59 69 143 254 q57 124 101 174q71 80 176 80q59 0 102 -28q50 -33 50 -89q0 -46 -27 -78q-28 -35 -73 -35q-46 0 -94 64q-25 33 -54 33q-38 0 -73 -55q-7 -12 -42 -88q-79 -170 -130 -241q-92 -128 -212 -163q45 -17 94 -125l165 -361q43 -94 84 -126q46 -35 144 -43l-8 -37h-314l-207 459 q-51 114 -72 143q-52 71 -132 71q-14 0 -42 -3l-120 -419q-26 -91 -26 -130q0 -73 154 -84l-8 -37h-544z" />
<glyph unicode="&#x49f;" horiz-adv-x="958" d="M37 0l316 1074h-171l18 82h177q31 106 31 124q0 55 -78 55q-23 0 -70 -7v37l342 57l-78 -266h208l-18 -82h-214l-176 -605q37 -2 42 -2q162 0 254 206q49 110 51 113q35 68 76 96q34 23 78 23q51 0 89 -32t38 -82q0 -36 -25 -65t-61 -29q-42 0 -75 49q-23 35 -41 35 q-27 0 -65 -91q-82 -197 -183 -238q56 -27 103 -103q18 -32 99 -188q35 -67 66 -90q34 -26 104 -34l-12 -37h-239q-174 377 -235 411q-27 15 -76 15l-125 -426h-150z" />
<glyph unicode="&#x4a0;" horiz-adv-x="1535" d="M118 0l13 37q112 0 168 53q26 25 65 161l296 1036q-126 -1 -177 -12q-90 -19 -148.5 -83.5t-101.5 -189.5h-37l102 354h755l-9 -37q-141 0 -194 -63q-32 -39 -78 -203l-87 -308q47 -1 68 -1q131 0 184 16q77 23 146 104q59 69 143 254q57 124 101 174q71 80 176 80 q59 0 102 -28q50 -33 50 -89q0 -46 -27 -78q-28 -35 -73 -35q-46 0 -94 64q-25 33 -54 33q-38 0 -73 -55q-7 -12 -42 -88q-79 -170 -130 -241q-92 -128 -212 -163q45 -17 94 -125l165 -361q43 -94 84 -126q46 -35 144 -43l-8 -37h-314l-207 459q-51 114 -72 143 q-52 71 -132 71q-14 0 -42 -3l-120 -419q-26 -91 -26 -130q0 -73 154 -84l-8 -37h-544z" />
<glyph unicode="&#x4a1;" horiz-adv-x="1080" d="M60 650l79 231h429l-122 -412q37 -2 42 -2q162 0 254 206q49 110 51 113q35 68 76 96q34 23 78 23q51 0 89 -32t38 -82q0 -36 -25 -65t-61 -29q-42 0 -75 49q-23 35 -41 35q-27 0 -65 -91q-82 -197 -183 -238q56 -27 108 -109q13 -26 94 -182q35 -67 66 -90 q34 -26 104 -34l-12 -37h-239q-174 377 -235 411q-27 15 -76 15l-125 -426h-150l224 760h-81q-92 0 -124 -16q-38 -19 -81 -94h-37z" />
<glyph unicode="&#x4a2;" horiz-adv-x="1479" d="M-54 0l13 37q79 2 105 14q41 19 59 46q26 39 64 170l240 819q29 99 29 152q0 55 -51 72q-27 9 -104 9l12 37h535l-11 -37q-65 1 -99 -14q-47 -21 -69 -53q-31 -46 -66 -166l-98 -335h626l99 335q28 95 28 152q0 54 -51 72q-26 9 -102 9l10 37h546l-12 -37q-69 1 -103 -14 q-48 -21 -71 -54q-32 -46 -67 -165l-239 -819q-30 -103 -30 -146q0 -51 55 -70q26 -9 98 -14l-126 -439h-37q19 106 19 170q0 70 -32 129q-37 66 -99 86q-52 17 -264 17l14 37q78 2 104 14q40 18 58 46q25 39 64 170l122 415h-629l-123 -415q-29 -98 -29 -146q0 -52 54 -70 q25 -9 98 -14l-8 -37h-532z" />
<glyph unicode="&#x4a3;" horiz-adv-x="1016" d="M41 0l194 666q22 76 22 97q0 54 -67 54q-16 0 -80 -7v33l307 62h36l-119 -419h345l114 395h154l-201 -690q-16 -55 -16 -73q0 -25 22 -25q37 0 137 128l31 -23q-35 -51 -104 -154q-27 -38 -55 -77q-43 -61 -43 -71q0 -9 9 -37t9 -45q0 -78 -73 -140q-60 -51 -145 -75 l-18 35q111 59 111 137q0 13 -7 53q-2 9 -2 15q0 34 54 79q84 69 95 92q-53 -34 -101 -34q-78 0 -78 93q0 47 38 178l55 189h-346l-127 -436h-151z" />
<glyph unicode="&#x4a4;" horiz-adv-x="1778" d="M-54 0l13 37q79 2 105 14q41 19 59 46q26 39 64 170l240 819q29 99 29 152q0 55 -51 72q-27 9 -104 9l12 37h535l-11 -37q-65 1 -99 -14q-47 -21 -69 -53q-31 -46 -66 -166l-98 -335h626l99 335q28 95 28 152q0 54 -51 72q-26 9 -102 9l10 37h857l-105 -358h-37 q10 84 10 118q0 112 -68 147q-46 24 -173 24h-130l-300 -1020q-30 -102 -30 -146q0 -51 55 -70q26 -9 98 -14l-11 -37h-528l14 37q78 2 104 14q40 18 58 46q25 39 64 170l122 415h-629l-123 -415q-29 -98 -29 -146q0 -52 54 -70q25 -9 98 -14l-8 -37h-532z" />
<glyph unicode="&#x4a5;" horiz-adv-x="1274" d="M41 0l194 666q22 76 22 97q0 54 -67 54q-16 0 -80 -7v33l307 62h36l-119 -419h345l114 395h538l-69 -239h-36q7 42 7 65q0 73 -55 98q-36 16 -120 16h-127l-185 -630q-16 -54 -16 -73q0 -25 22 -25q44 0 147 132l34 -18q-159 -231 -283 -231q-78 0 -78 93q0 47 38 178 l55 189h-346l-127 -436h-151z" />
<glyph unicode="&#x4a6;" horiz-adv-x="2082" d="M-59 0l12 37q107 1 152 43q37 34 69 141l263 883q22 74 22 109q0 67 -55 90q-33 14 -115 16l9 37h1352l-12 -37q-114 -1 -160 -61q-28 -35 -68 -172l-99 -339q196 106 384 106q145 0 227 -110q76 -102 78 -269q3 -318 -195 -601q-221 -315 -538 -315q-91 0 -176 31 q-65 24 -98 31q-69 0 -101 -62h-35l99 331h31q2 -131 100 -200q85 -60 220 -59q211 2 371 316q135 264 146 518q12 278 -221 278q-180 0 -316 -75l-106 -364q-40 -137 -40 -177q0 -84 146 -89l-13 -37h-523l10 37q111 0 162 66q33 42 71 171l298 1013h-624l-290 -999 q-32 -110 -32 -160q0 -91 153 -91l-12 -37h-546z" />
<glyph unicode="&#x4a7;" horiz-adv-x="1415" d="M39 0l182 626q32 110 32 136q0 55 -61 55q-17 0 -42 -4l-38 -6l-6 36l346 62l-133 -455q137 205 201 278q154 177 277 177q52 0 83.5 -33.5t31.5 -85.5q0 -60 -29 -160l-50 -172q139 47 260 47q132 0 207 -82q71 -78 72 -209q2 -279 -184.5 -465.5t-467.5 -186.5 q-184 0 -184 78q0 11 4 23q24 85 97 85q31 0 75 -56q49 -71 88 -71q157 0 288 201q118 183 117 350q-2 252 -194 252q-77 0 -197 -32l-53 -183q-21 -72 -21 -89q0 -33 25 -33q12 0 29 13q52 41 116 128l31 -19q-160 -229 -280 -229q-81 0 -81 83q0 47 34 165l116 402 q22 76 22 117q0 45 -45 45q-28 0 -67 -24q-143 -87 -323 -413q-48 -87 -78 -186l-50 -165h-150z" />
<glyph unicode="&#x4a8;" horiz-adv-x="1366" d="M142 506q0 354 247 613q258 268 637 268l-21 -73q-277 0 -475 -293q-178 -262 -178 -552q0 -162 59 -278q70 -139 200 -139q49 0 105 19q-92 98 -92 294q0 279 147 588q171 361 402 361q218 0 218 -275q0 -274 -126 -552q-137 -304 -351 -428q34 -19 78 -19 q130 0 265 140l32 -29q-134 -182 -317 -182q-101 0 -174 37q-107 -37 -218 -37q-201 0 -324 163q-114 151 -114 374zM806 332q0 -124 38 -198q148 118 275 461q119 321 119 536q0 112 -71 112q-125 0 -251 -380q-110 -335 -110 -531z" />
<glyph unicode="&#x4a9;" horiz-adv-x="909" d="M58 271q0 228 173 427q180 207 403 207l-17 -57q-166 0 -293 -220q-113 -194 -113 -380q0 -184 158 -184q27 0 53 6q-62 59 -62 197q0 175 102 365q117 216 271 216t154 -199q0 -184 -84 -346q-87 -167 -239 -262q18 -7 30 -7q100 0 186 83l23 -26q-100 -115 -226 -115 q-44 0 -93 26q-68 -26 -125 -26q-153 0 -231 86q-70 77 -70 209zM485 228q0 -97 25 -126q114 83 194 285q75 186 75 342q0 75 -48 75q-81 0 -168 -239q-78 -214 -78 -337z" />
<glyph unicode="&#x4aa;" horiz-adv-x="1366" d="M138 505q0 231 122 438t324 324q208 120 418 120q98 0 222 -47q53 -20 78 -20q42 0 102 67h37l-101 -439h-36l-4 110q-2 52 -23 107q-59 155 -267 155q-179 0 -313 -98q-171 -125 -268 -353q-80 -188 -80 -381q0 -191 111 -310q113 -122 303 -122q267 0 449 253h47 q-201 -320 -517 -339q55 -70 55 -149q0 -95 -69 -149q-64 -50 -161 -50q-103 0 -229 83l21 29q72 -24 122 -24q85 0 145 49q64 53 64 136q0 30 -14 74q-334 8 -471 265q-67 126 -67 271z" />
<glyph unicode="&#x4ab;" horiz-adv-x="909" d="M-12 -295l21 29q72 -24 122 -24q85 0 145 49q64 53 64 136q0 32 -17 82q-125 9 -196 88t-71 206q0 159 91 309q86 144 225 233q144 92 283 92q88 0 146 -34q71 -41 71 -123q0 -61 -38 -106q-29 -34 -69 -34q-72 0 -72 70q0 37 39 74q33 32 33 53q0 55 -101 55 q-111 0 -213 -83q-86 -71 -145 -182q-82 -154 -82 -308q0 -101 57.5 -161t158.5 -60q156 0 322 178l29 -26q-189 -227 -404 -241q60 -73 60 -156q0 -95 -69 -149q-64 -50 -161 -50q-103 0 -229 83z" />
<glyph unicode="&#x4ac;" horiz-adv-x="1139" d="M144 0l10 37h26q127 0 173 87q23 43 65 188l281 963h-81q-214 0 -304 -117q-44 -57 -72 -162h-37l95 360h1030l-111 -360h-38q19 79 19 141q0 73 -45 110q-34 28 -175 28h-107l-268 -934q-51 -178 -51 -217q0 -87 145 -87h46l-126 -439h-37q19 106 19 170q0 70 -32 129 q-37 66 -99 86q-52 17 -166 17h-160z" />
<glyph unicode="&#x4ad;" horiz-adv-x="1479" d="M35 0l206 717q7 24 10 43q0 57 -71 57q-13 0 -72 -12l-9 37l345 63l-130 -451q87 160 148 239q162 212 296 212q50 0 83 -32t33 -82q0 -46 -23 -128l-71 -254q163 305 309 428q81 68 160 68q105 0 105 -129q0 -59 -18 -123l-110 -389q-36 -127 -36 -141q0 -31 25 -31 q10 0 35 19q57 44 107 116l33 -21q-27 -45 -81 -121q-26 -41 -83 -121q-41 -51 -41 -68q0 -7 8.5 -35.5t8.5 -46.5q0 -149 -217 -215l-18 35q110 59 110 150q0 10 -4 28.5t-4 26.5q0 34 54 79q83 69 93 91q-56 -33 -106 -33q-35 0 -58.5 24t-23.5 59q0 48 41 193l91 321 q31 108 33 123q3 19 3 37q0 53 -38 53q-42 0 -89 -43q-138 -127 -258 -356q-79 -151 -148 -387h-151l171 605q28 99 28 131q0 53 -38 53q-33 0 -70 -24q-71 -46 -170 -189q-87 -125 -131 -223q-26 -58 -119 -353h-148z" />
<glyph unicode="&#x4ae;" horiz-adv-x="1139" d="M184 0l12 37q85 2 113 14q45 18 67 48q34 46 70 165l119 396l-145 468q-39 124 -71.5 154t-113.5 37l10 37h501l-12 -37q-94 -7 -107 -12q-22 -7 -36 -28t-14 -49q0 -41 29 -140l110 -369l258 361q100 141 100 180q0 22 -21.5 36.5t-122.5 20.5l10 37h426l-8 -37 q-62 -8 -85 -17q-36 -15 -71 -47q-47 -42 -136 -165l-332 -458l-100 -335q-37 -126 -37 -174q0 -31 11.5 -47t40.5 -26q38 -12 116 -13l-10 -37h-571z" />
<glyph unicode="&#x4af;" d="M3 -438l12 41h32q118 0 161 83q8 16 38 120l82 280l-76 648q-11 75 -30 103q-27 40 -93 41l11 38h422l-11 -38q-123 -8 -138 -62q-4 -16 1 -59l54 -563l368 548q36 51 43 75q6 21 -9 41q-11 14 -60 17q-7 1 -26 3l11 38h346l-11 -38q-59 0 -93 -23q-55 -37 -124 -132 l-429 -618l-87 -299q-33 -114 -30 -143q5 -60 102 -60h41l-12 -41h-495z" />
<glyph unicode="&#x4b0;" horiz-adv-x="1139" d="M184 0l12 37q84 2 117 16q42 18 63 46q34 47 70 165l87 290h-340l20 66h340l12 40l-145 468q-33 107 -57 136q-37 47 -128 55l10 37h501l-12 -37q-92 -7 -107 -12q-50 -17 -50 -77q0 -43 29 -140l110 -369l258 361q100 140 100 180q0 48 -144 57l10 37h426l-8 -37 q-63 -8 -85 -17q-34 -14 -71 -47q-47 -43 -136 -165l-336 -470h351l-21 -66h-349l-77 -257q-37 -124 -37 -174q0 -56 52 -73q36 -12 116 -13l-10 -37h-571z" />
<glyph unicode="&#x4b1;" d="M-33 0l21 73h335l5 13l-76 648q-11 75 -30 103q-27 40 -93 41l11 38h422l-11 -38q-123 -8 -138 -62q-4 -16 1 -59l54 -563l368 548q36 51 43 75q6 21 -9 41q-11 14 -60 17q-7 1 -26 3l11 38h346l-11 -38q-59 0 -93 -23q-55 -37 -124 -132l-429 -618l-10 -32h335l-21 -73 h-335l-56 -194q-33 -114 -30 -143q5 -60 102 -60h41l-12 -41h-495l12 41h32q118 0 161 83q8 16 38 120l56 194h-335z" />
<glyph unicode="&#x4b2;" horiz-adv-x="1251" d="M-137 0l11 37q86 8 139 39q77 45 218 187l394 396l-108 391q-50 183 -85.5 223t-127.5 46l10 37h485l-12 -37q-102 0 -126 -34q-13 -18 -13 -40q0 -25 24 -112l92 -334l213 212q124 123 173 203q17 28 17 48q0 52 -120 57l11 37h459l-11 -37q-97 -14 -169 -58 q-60 -37 -198 -178l-352 -360l99 -363q14 -51 52 -161q39 -113 109 -143q38 -16 110 -19l-126 -439h-37q19 106 19 170q0 70 -32 129q-37 66 -99 86q-52 17 -268 17l11 37q145 5 145 83q0 30 -26 123l-95 341l-318 -321q-91 -92 -111 -125q-11 -18 -11 -35q0 -31 30 -49 q13 -8 85 -17l-10 -37h-451z" />
<glyph unicode="&#x4b3;" horiz-adv-x="909" d="M-72 64q0 77 76 77q32 0 68 -32q26 -23 40 -23q11 0 31 16q45 37 128 163q75 114 106 183l-67 257q-42 119 -169 119q-23 0 -53 -2v36l267 47q48 -51 74 -104q18 -38 59 -189l88 132q29 43 85 92q79 69 141 69q94 0 94 -79q0 -38 -15 -52q-28 -25 -64 -25q-19 0 -45 9 q-45 16 -63 16q-73 0 -205 -229l82 -344q26 -110 58 -110q21 0 49 23q50 42 91 107l31 -23q-35 -51 -104 -154q-27 -38 -55 -77q-43 -61 -43 -71q0 -9 9 -37t9 -45q0 -78 -73 -140q-60 -51 -145 -75l-18 35q111 59 111 133q0 16 -7 57q-2 9 -2 15q0 34 54 79q84 69 95 92 q-53 -34 -85 -34q-48 0 -81 63q-21 40 -87 336q-156 -272 -250 -349q-61 -50 -118 -50q-40 0 -68.5 24.5t-28.5 63.5z" />
<glyph unicode="&#x4b4;" horiz-adv-x="1479" d="M-52 0l11 37q108 0 147 38q36 35 86 202l297 998h-58q-164 0 -254 -117q-44 -57 -72 -162h-37l95 360h880l-111 -360h-38q19 79 19 141q0 73 -45 110q-34 28 -175 28h-24l-295 -985q-28 -94 -28 -132q0 -89 163 -89h243q75 0 108 10q52 16 81.5 65t65.5 172l213 726 q38 130 38 195q0 54 -53 72q-26 8 -99 10l11 37h547l-12 -37q-119 -1 -170 -66q-33 -41 -74 -179l-242 -820q-24 -81 -24 -114q0 -101 171 -103l-127 -439h-37q19 106 19 170q0 70 -32 129q-37 66 -99 86q-52 17 -166 17h-923z" />
<glyph unicode="&#x4b5;" d="M60 691q139 214 277 214q37 0 60.5 -23.5t23.5 -61.5q0 -53 -40 -192l-94 -323q-39 -132 -39 -167q0 -42 47 -42q36 0 94 39t161.5 179t146.5 232t93 259l22 76h152l-174 -596q-39 -134 -39 -171q0 -32 24 -32q16 0 39.5 17t101.5 122l31 -23q-10 -16 -34 -49 q-21 -30 -70 -105q-30 -47 -56 -80q-42 -52 -42 -68q0 -5 9 -33q9 -26 9 -49q0 -75 -64 -132.5t-154 -82.5l-18 35q111 59 111 150q0 12 -5 29q-4 19 -4 26q0 23 9 36t45 43q84 69 95 92q-53 -34 -101 -34q-81 0 -81 80q0 67 103 411q-288 -491 -492 -491q-55 0 -85 34 t-30 85q0 69 44 224l87 309q32 112 32 133q0 34 -30 34q-38 0 -134 -126zM367 1106q7 140 60 200t128 60q73 0 178.5 -70t144.5 -70q35 0 57 26q29 33 39 112h30q3 -126 -53 -194t-131 -68q-73 0 -168.5 61t-117.5 71q-17 8 -39 8q-37 0 -59.5 -26t-36.5 -110h-32z" />
<glyph unicode="&#x4b6;" horiz-adv-x="1411" d="M231 1319l10 37h534l-10 -37q-105 -3 -144 -40q-33 -31 -65 -139l-63 -215q-24 -82 -24 -132q0 -165 248 -165q180 0 338 81l109 380q29 101 29 147q0 57 -61 74q-30 9 -108 9l10 37h543l-10 -37q-115 -3 -165 -76q-26 -37 -68 -184l-227 -783q-31 -107 -31 -144 q0 -95 151 -95l-126 -439h-37q19 106 19 170q0 70 -32 129q-37 66 -99 86q-52 17 -166 17h-102l13 37q112 2 160 59q33 39 70 165l107 366q-211 -92 -407 -92q-144 0 -230 56q-103 67 -103 203q0 49 33 169l43 156q20 73 20 105q0 63 -52 83q-31 12 -107 12z" />
<glyph unicode="&#x4b7;" horiz-adv-x="977" d="M86 810l11 40l283 55h37l-97 -341q-21 -74 -21 -93q0 -84 118 -84q96 0 219 80l121 414h153l-203 -696q-16 -55 -16 -71q0 -26 24 -26q40 0 146 134l34 -19q-37 -53 -108 -159q-27 -38 -55 -77q-43 -61 -43 -71q0 -9 9 -37t9 -45q0 -78 -73 -140q-60 -51 -145 -75l-18 35 q111 59 111 138q0 12 -7 46q-2 12 -2 25q0 30 54 75q84 69 95 92q-53 -34 -102 -34q-87 0 -87 86q0 51 34 167l51 174q-129 -87 -258 -87q-77 0 -138 38q-70 44 -70 117q0 40 23 118l27 92q16 55 16 80q0 54 -68 54q-30 0 -64 -5z" />
<glyph unicode="&#x4b8;" horiz-adv-x="1411" d="M231 1319l10 37h534l-10 -37q-105 -3 -144 -40q-33 -31 -65 -139l-63 -215q-24 -82 -24 -132q0 -154 217 -164l128 450h87l-130 -449q150 10 284 79l109 380q29 101 29 147q0 57 -61 74q-30 9 -108 9l10 37h543l-10 -37q-115 -3 -165 -76q-26 -37 -68 -184l-227 -783 q-31 -107 -31 -144q0 -95 151 -95l-10 -37h-532l12 37q112 2 160 59q33 39 70 165l107 366q-149 -65 -288 -84l-87 -301h-83l84 294q-25 -1 -53 -1q-124 0 -210 56q-103 67 -103 203q0 49 33 169l43 156q20 73 20 105q0 63 -52 83q-31 12 -107 12z" />
<glyph unicode="&#x4b9;" horiz-adv-x="977" d="M86 810l11 40l283 55h37l-97 -341q-21 -74 -21 -93q0 -79 104 -84l100 355h87l-100 -344q69 19 146 69l121 414h153l-203 -696q-16 -55 -16 -71q0 -26 24 -26q40 0 146 134l33 -20q-171 -226 -280 -226q-81 0 -81 86q0 51 34 167l51 174q-74 -50 -147 -71l-52 -180h-83 l47 165q-17 -1 -33 -1q-67 0 -128 38q-70 44 -70 117q0 40 23 118l27 92q16 55 16 80q0 54 -68 54q-30 0 -64 -5z" />
<glyph unicode="&#x4ba;" horiz-adv-x="1411" d="M-54 0l10 37q117 3 166 76q24 36 67 184l227 783q31 107 31 144q0 95 -151 95l10 37h532l-12 -37q-112 -2 -160 -59q-33 -38 -70 -165l-107 -366q211 92 407 92q333 0 333 -259q0 -49 -33 -169l-43 -156q-20 -73 -20 -105q0 -62 52 -83q32 -12 107 -12l-10 -37h-534 l10 37q103 3 144 41q34 32 65 138l63 215q24 82 24 132q0 165 -248 165q-180 0 -338 -81l-109 -380q-29 -101 -29 -147q0 -57 61 -74q30 -9 108 -9l-10 -37h-543z" />
<glyph unicode="&#x4bb;" d="M41 0l329 1144l35 124q0 26 -21.5 46t-52.5 20q-18 0 -55 -6l-21 -3v39l346 58l-281 -971q182 274 284 364t195 90q48 0 80 -33t32 -88q0 -66 -28 -160l-122 -419q-23 -76 -23 -84q0 -14 8.5 -23t19.5 -9q13 0 30 13q57 44 113 122l31 -19q-34 -53 -94.5 -116.5t-104 -88 t-77.5 -24.5q-37 0 -60.5 23.5t-23.5 60.5q0 44 35 164l115 400q22 75 22 118q0 20 -12.5 32t-32.5 12q-29 0 -66 -22q-68 -42 -157 -156q-24 -31 -160 -250q-42 -70 -69 -153l-64 -205h-150z" />
<glyph unicode="&#x4bc;" horiz-adv-x="1668" d="M66 780q1 99 68 182q72 89 169 89q91 0 91 -67q0 -17 -6 -40q-27 -95 -119 -95q-13 0 -35 8t-32 8q-62 0 -64 -78q-2 -87 180 -87h65q25 131 88 251q228 436 689 436q322 0 445 -246q54 -108 54 -228q0 -139 -51 -282h-1026q-7 -76 -7 -124q0 -195 89 -324 q103 -147 290 -147q135 0 272 94q118 80 207 205l43 -17q-243 -349 -594 -349q-242 0 -383 165q-132 155 -132 401q0 51 5 96h-84q-224 0 -222 149zM592 700h823q37 127 37 262q0 152 -71 250q-79 111 -226 111q-182 0 -360 -180q-154 -156 -203 -443z" />
<glyph unicode="&#x4bd;" horiz-adv-x="1119" d="M1 506q0 100 65 182q70 89 167 89q91 0 91 -67q0 -17 -6 -40q-27 -95 -119 -95q-13 0 -35 8t-32 8q-62 0 -64 -78q-2 -60 81 -85q61 -18 146 -14q23 81 71 162q86 146 216 234q142 95 301 95q82 0 138 -31q70 -38 70 -114q0 -84 -66 -159q-86 -98 -256 -160 q-113 -41 -315 -64q-7 -50 -7 -83q0 -90 63 -152t153 -62q87 0 180 52q54 29 156 108l21 -29q-237 -235 -452 -235q-130 0 -212 82.5t-82 212.5q0 47 9 94q-19 -1 -38 -1q-244 0 -244 142zM461 426q300 34 425 190q62 77 62 145q0 94 -102 94q-140 0 -254 -151 q-91 -120 -131 -278z" />
<glyph unicode="&#x4be;" horiz-adv-x="1668" d="M66 780q1 100 68 183q71 88 169 88q91 0 91 -67q0 -19 -6 -40q-27 -95 -119 -95q-12 0 -34.5 8t-32.5 8q-62 0 -64 -78q-2 -87 180 -87h65q25 130 88 251q228 436 689 436q322 0 445 -246q54 -108 54 -228q0 -139 -51 -282h-1026q-7 -76 -7 -124q0 -196 89 -324 q102 -147 290 -147q134 0 272 94q118 80 207 205l43 -17q-228 -328 -552 -348l-77 -270h-103l78 272q-218 20 -341 184q-114 152 -114 379q0 51 5 96h-84q-224 0 -222 149zM592 700h823q37 127 37 262q0 152 -71 250q-79 111 -226 111q-182 0 -360 -180q-154 -156 -203 -443 z" />
<glyph unicode="&#x4bf;" horiz-adv-x="1119" d="M1 506q0 100 65 183q69 88 167 88q91 0 91 -67q0 -19 -6 -40q-27 -95 -119 -95q-12 0 -34.5 8t-32.5 8q-62 0 -64 -78q-2 -60 81 -85q60 -14 146 -14q23 80 71 162q87 147 216 234q141 95 301 95q82 0 138 -31q70 -38 70 -114q0 -202 -322 -319q-112 -41 -315 -64 q-7 -50 -7 -83q0 -91 62.5 -152.5t153.5 -61.5q86 0 180 52q57 32 156 108l21 -29q-216 -214 -413 -233l-80 -278h-103l81 281q-88 16 -149 78q-82 82 -82 212q0 47 9 94q-19 -1 -38 -1q-244 0 -244 142zM461 426q300 34 425 190q62 77 62 145q0 94 -102 94 q-140 0 -254 -151q-91 -120 -131 -278z" />
<glyph unicode="&#x4c0;" horiz-adv-x="682" d="M-64 0l14 37q84 2 111 14q44 17 65 47q33 47 68 168l236 818q30 102 30 154q0 26 -13 44t-39.5 27.5t-103.5 9.5l12 37h524l-11 -37q-64 1 -95 -14q-45 -20 -68.5 -57t-60.5 -164l-235 -818q-32 -113 -32 -144q0 -25 12.5 -42.5t40 -27t114.5 -15.5l-11 -37h-558z" />
<glyph unicode="&#x4c1;" horiz-adv-x="1876" d="M-112 0l11 37q57 0 109 33.5t140 140.5l273 332q71 87 121.5 120t130.5 40q-112 55 -112 198q0 32 8 119q7 76 7 104q0 104 -41 104q-21 0 -52 -32q-49 -51 -92 -51q-35 0 -67.5 30.5t-32.5 76.5q0 52 47 86t110 34q80 0 138.5 -59t58.5 -175q0 -38 -9 -118 q-9 -79 -9 -112q0 -88 51 -127.5t162 -39.5h88l87 295q40 135 40 193q0 54 -39.5 72t-108.5 18l8 37h535l-9 -37q-102 0 -146 -43.5t-81 -169.5l-108 -365h70q117 0 181.5 33t111.5 99.5t111 206.5q77 171 132 231.5t141 60.5q65 0 104.5 -35.5t39.5 -89.5q0 -45 -27 -75 t-70 -30q-46 0 -100 54q-27 26 -48 26q-27 0 -44.5 -25t-55.5 -116q-77 -182 -149.5 -273t-169.5 -121q47 -22 81 -108l12 -26l133 -291q66 -143 101.5 -181t118.5 -44l-12 -37h-280l-230 511q-46 102 -80 129.5t-92 28.5l-128 -453q-21 -72 -21 -99q0 -73 154 -80l-12 -37 h-528l8 37q108 3 148 43t88 203l113 386h-28q-92 0 -117.5 -13.5t-109.5 -112.5l-464 -543h-300zM901 1663q0 78 69 78q66 0 117 -124q43 -105 140 -105q65 0 100 32q28 25 55 92q42 104 103 104q72 0 72 -75q0 -93 -123 -156q-103 -53 -205 -53q-124 0 -212 41 q-116 54 -116 166z" />
<glyph unicode="&#x4c2;" horiz-adv-x="1905" d="M-1 142q0 57 32.5 90.5t73.5 33.5q35 0 54.5 -22t19.5 -48q0 -27 -29 -60q-26 -29 -26 -57q0 -26 21 -44.5t51 -18.5q135 0 259.5 181t124.5 389q0 112 -52.5 172t-122.5 60q-144 0 -279 -164l-27 19q154 232 380 232q124 0 194.5 -83t70.5 -219q0 -66 -16 -137h150 l118 415h151l-118 -415h155q51 172 199 305.5t310 133.5q94 0 148.5 -47t54.5 -126q0 -52 -29 -84.5t-72 -32.5q-76 0 -76 77q0 30 27 68q18 25 18 42q0 59 -76 59q-133 0 -253.5 -193t-120.5 -366q0 -114 52 -177t129 -63q143 0 270 163l31 -15q-171 -234 -373 -234 q-131 0 -202 89.5t-71 225.5q0 60 17 125h-152l-119 -416h-149l118 416h-153q-78 -218 -220 -329t-297 -111q-95 0 -145.5 47.5t-50.5 118.5zM811 1283q0 78 69 78q66 0 117 -124q43 -105 140 -105q65 0 100 32q28 25 55 92q42 104 103 104q72 0 72 -75q0 -93 -123 -156 q-103 -53 -205 -53q-124 0 -212 41q-116 54 -116 166z" />
<glyph unicode="&#x4c3;" horiz-adv-x="1360" d="M-57 0l13 37q112 0 168 53q26 25 65 161l242 852q26 92 26 122q0 62 -50 82q-30 12 -104 12l13 37h562l-9 -37q-141 0 -194 -63q-32 -39 -78 -203l-87 -308q47 -1 68 -1q131 0 184 16q77 23 146 104q59 69 143 254q57 124 101 174q71 80 176 80q59 0 102 -28 q50 -33 50 -89q0 -46 -27 -78q-28 -35 -73 -35q-46 0 -94 64q-25 33 -54 33q-38 0 -73 -55q-7 -12 -42 -88q-98 -212 -167 -289q-34 -39 -75 -63q150 0 241.5 -100.5t93.5 -261.5q3 -308 -195 -555q-216 -269 -538 -269q-91 0 -176 31q-65 24 -98 31q-69 0 -101 -62h-35 l99 331h31q2 -131 100 -200q85 -60 220 -59q214 2 371 270q136 230 146 472q5 124 -52 205q-65 93 -189 93h-306l-120 -419q-26 -91 -26 -130q0 -73 154 -84l-8 -37h-544z" />
<glyph unicode="&#x4c4;" horiz-adv-x="958" d="M16 -364q0 11 4 23q24 85 97 85q31 0 77 -62q47 -65 86 -65q158 0 288 194q118 178 117 343q-2 272 -204 272h-168l-126 -426h-150l198 676q19 65 19 88q0 53 -71 53q-22 0 -78 -8v35l308 61h39l-128 -436q37 -2 52 -2q152 0 244 206q49 110 51 113q35 68 76 96 q34 23 78 23q51 0 89 -32t38 -82q0 -36 -25 -65t-61 -29q-42 0 -75 49q-23 35 -41 35q-27 0 -65 -91q-79 -190 -168 -223h56q133 0 207 -77q71 -74 72 -204q2 -276 -183 -452t-469 -176q-184 0 -184 78z" />
<glyph unicode="&#x4c5;" horiz-adv-x="1387" d="M-71 154q0 42 28.5 70t70.5 28q87 0 111 -117q13 -63 45 -63q85 0 192 283q23 61 109 342q133 436 133 530q0 59 -48 78q-24 10 -102 14l10 37h1081l-10 -37q-111 -3 -159 -60q-33 -39 -70 -165l-235 -803q-36 -123 -36 -171q0 -78 152 -83l-126 -439h-37q19 106 19 170 q0 70 -32 129q-37 66 -99 86q-52 17 -166 17h-90l13 37q112 6 157 69q21 31 63 173l298 1008h-484q-39 -219 -162 -619q-140 -454 -227 -571q-84 -113 -196 -113q-80 0 -139 44q-64 48 -64 126z" />
<glyph unicode="&#x4c6;" horiz-adv-x="893" d="M-91 54q0 77 71 77q30 0 63 -27q21 -17 38 -17q54 0 120 168q8 21 68 205q87 269 87 310q0 64 -126 73l10 38h589l-197 -669q-22 -75 -22 -102q0 -34 29 -34q41 0 139 136l34 -22q-7 -9 -29.5 -40t-70.5 -106q-27 -38 -55 -77q-43 -61 -43 -71q0 -9 9 -37t9 -45 q0 -78 -73 -140q-60 -51 -145 -75l-18 35q111 59 111 134q0 16 -7 56q-2 9 -2 15q0 34 54 79q84 69 95 92q-53 -34 -112 -34q-86 0 -86 88q0 44 41 183l169 574h-120q-64 0 -75 -3q-32 -8 -48.5 -46.5t-56.5 -172.5q-89 -297 -116 -361q-109 -262 -235 -262q-99 0 -99 78z " />
<glyph unicode="&#x4c7;" horiz-adv-x="1479" d="M-54 0l13 37q79 2 105 14q41 19 59 46q26 39 64 170l240 819q29 99 29 152q0 55 -51 72q-27 9 -104 9l12 37h535l-11 -37q-65 1 -99 -14q-47 -21 -69 -53q-31 -46 -66 -166l-98 -335h626l99 335q28 95 28 152q0 54 -51 72q-26 9 -102 9l10 37h546l-12 -37q-69 1 -103 -14 q-48 -21 -71 -54q-32 -46 -67 -165l-257 -876q-93 -317 -208 -454q-165 -198 -465 -198q-58 0 -151.5 31t-112.5 31q-69 0 -101 -62h-35l89 331h31q2 -131 100 -200q85 -60 220 -59q162 1 296 210q93 144 154 350l147 492h-629l-123 -415q-29 -98 -29 -146q0 -52 54 -70 q25 -9 98 -14l-8 -37h-532z" />
<glyph unicode="&#x4c8;" horiz-adv-x="1016" d="M-68 -364q0 11 4 23q24 85 97 85q31 0 81 -66q43 -61 82 -61q230 0 350 412l119 407h-346l-127 -436h-151l194 666q22 76 22 97q0 54 -67 54q-16 0 -80 -7v33l307 62h36l-119 -419h345l114 395h154l-242 -836q-141 -487 -589 -487q-184 0 -184 78z" />
<glyph unicode="&#x4c9;" horiz-adv-x="1479" d="M-54 0l13 37q79 2 105 14q41 19 59 46q26 39 64 170l240 819q29 99 29 152q0 55 -51 72q-27 9 -104 9l12 37h535l-11 -37q-65 1 -99 -14q-47 -21 -69 -53q-31 -46 -66 -166l-98 -335h626l99 335q28 95 28 152q0 54 -51 72q-26 9 -102 9l10 37h546l-12 -37q-69 1 -103 -14 q-48 -21 -71 -54q-32 -46 -67 -165l-239 -819q-30 -103 -30 -146q0 -51 55 -70q26 -9 98 -14l-126 -439h-37q19 106 19 170q0 70 -32 129q-37 66 -99 86q-52 17 -166 17h-99l15 37q78 2 104 14q40 18 58 46q25 39 64 170l122 415h-629l-123 -415q-29 -98 -29 -146 q0 -52 54 -70q25 -9 98 -14l-8 -37h-532z" />
<glyph unicode="&#x4ca;" horiz-adv-x="1016" d="M41 0l194 666q22 76 22 97q0 54 -67 54q-16 0 -80 -7v33l307 62h36l-119 -419h345l114 395h154l-201 -690q-16 -55 -16 -73q0 -25 22 -25q44 0 147 132l34 -18q-13 -18 -42 -58q-22 -30 -70 -105q-27 -38 -55 -77q-43 -61 -43 -71q0 -9 9 -37t9 -45q0 -78 -73 -140 q-60 -51 -145 -75l-18 35q111 59 111 134q0 16 -7 56q-2 9 -2 15q0 34 54 79q84 69 95 92q-53 -34 -106 -34q-78 0 -78 93q0 47 38 178l55 189h-346l-127 -436h-151z" />
<glyph unicode="&#x4cb;" horiz-adv-x="1411" d="M231 1319l10 37h534l-10 -37q-105 -3 -144 -40q-33 -31 -65 -139l-63 -215q-24 -82 -24 -132q0 -165 248 -165q180 0 338 81l109 380q29 101 29 147q0 57 -61 74q-30 9 -108 9l10 37h543l-10 -37q-115 -3 -165 -76q-26 -37 -68 -184l-227 -783q-31 -107 -31 -144 q0 -95 151 -95l-12 -37h-148q-218 0 -343 -165q-70 -93 -113 -231h-37l122 433q99 2 143.5 39.5t87.5 184.5l107 366q-211 -92 -407 -92q-144 0 -230 56q-103 67 -103 203q0 49 33 169l43 156q20 73 20 105q0 63 -52 83q-31 12 -107 12z" />
<glyph unicode="&#x4cc;" horiz-adv-x="977" d="M86 810l11 40l283 55h37l-97 -341q-21 -74 -21 -93q0 -84 118 -84q96 0 219 80l121 414h153l-203 -696q-16 -55 -16 -71q0 -26 24 -26q40 0 146 134l33 -20q-171 -226 -280 -226q-25 0 -43 9q-58 -80 -58 -89t9 -37t9 -45q0 -78 -73 -140q-60 -51 -145 -75l-18 35 q111 59 111 140q0 10 -7 50q-2 9 -2 15q0 34 54 79q64 53 93 93q-11 20 -11 51q0 51 34 167l51 174q-129 -87 -258 -87q-77 0 -138 38q-70 44 -70 117q0 40 23 118l27 92q16 55 16 80q0 54 -68 54q-30 0 -64 -5z" />
<glyph unicode="&#x4cd;" horiz-adv-x="1706" d="M-67 0l11 37h27q99 0 143 50q32 36 67 156l295 1011q-37 38 -79 51q-25 8 -95 14l10 37h337l125 -1092l787 1092h331v-37q-109 -7 -127 -14q-69 -26 -120 -202l-251 -860q-22 -75 -22 -118q0 -88 147 -88h24l-283 -439h-33q82 166 80 253q-3 149 -257 149h-86l9 37h27 q126 0 172 83q25 45 68 197l224 786l-791 -1103h-40l-127 1103l-242 -839q-31 -107 -31 -144q0 -51 58 -70q25 -8 100 -13l-11 -37h-447z" />
<glyph unicode="&#x4ce;" horiz-adv-x="1307" d="M-92 51q0 33 23 56.5t56 23.5q29 0 69 -28q20 -14 33 -14q66 0 192 390q84 260 84 299q0 46 -65 46q-35 0 -92 -13l15 32l307 62h42l40 -731l467 707h163l-185 -655q-29 -103 -29 -113q0 -32 29 -32q48 0 141 133l29 -20q-9 -11 -34 -45q-22 -30 -70 -105 q-27 -38 -55 -77q-43 -61 -43 -71q0 -9 9 -37t9 -45q0 -78 -73 -140q-60 -51 -145 -75l-18 35q111 59 111 138q0 12 -7 52q-2 9 -2 15q0 34 54 79q84 69 95 92q-53 -34 -105 -34q-84 0 -84 94q0 44 32 156l156 548l-527 -798h-45l-57 835q-38 -142 -77 -283 q-69 -235 -143 -369q-100 -183 -209 -183q-91 0 -91 75z" />
<glyph unicode="&#x4cf;" horiz-adv-x="569" d="M79 62q0 36 32 148l271 938q33 115 33 132q0 24 -19 39.5t-59 15.5q-23 0 -70 -7v37l342 57l-342 -1190q-25 -89 -25 -109q0 -15 9.5 -25t23.5 -10q19 0 41 17q52 41 109 127l30 -31q-95 -134 -175 -187q-59 -38 -112 -38q-38 0 -63.5 26t-25.5 60z" />
<glyph unicode="&#x4d0;" horiz-adv-x="1251" d="M-100 0l11 37q74 3 130.5 49.5t168.5 198.5l810 1102h35l-103 -1128q-8 -79 -8 -104q0 -40 15 -61q19 -29 51.5 -43t109.5 -14l-11 -37h-534l11 37h23q65 0 106 28q29 19 45 63q11 31 21 146l16 172h-388l-138 -187q-47 -63 -59 -90.5t-12 -51.5q0 -32 26 -55t86 -25 l-11 -37h-401zM464 519h341l52 535zM741 1663q0 78 69 78q66 0 117 -124q43 -105 140 -105q65 0 100 32q28 25 55 92q42 104 103 104q72 0 72 -75q0 -93 -123 -156q-103 -53 -205 -53q-124 0 -212 41q-116 54 -116 166z" />
<glyph unicode="&#x4d1;" d="M48 203q0 159 95.5 335.5t242.5 282.5q115 84 217 84q61 0 101.5 -32t61.5 -106l36 114l159 24l-195 -678l-22 -91q-3 -13 -3 -22q0 -16 10 -28q8 -9 20 -9q13 0 34 16q39 29 104 120l34 -24q-69 -104 -142 -158.5t-135 -54.5q-43 0 -64.5 21.5t-21.5 62.5q0 49 22 129 l21 75q-131 -171 -241 -239q-79 -49 -155 -49q-73 0 -126 60.5t-53 166.5zM208 239q0 -68 34 -107.5t78 -39.5q109 0 237 161q171 214 171 439q0 85 -33 123t-90 38q-64 0 -136 -60q-102 -85 -181.5 -252t-79.5 -302zM421 1283q0 78 69 78q66 0 117 -124q43 -105 140 -105 q65 0 100 32q28 25 55 92q42 104 103 104q72 0 72 -75q0 -93 -123 -156q-103 -53 -205 -53q-124 0 -212 41q-116 54 -116 166z" />
<glyph unicode="&#x4d2;" horiz-adv-x="1251" d="M-100 0l11 37q74 3 130.5 49.5t168.5 198.5l810 1102h35l-103 -1128q-8 -79 -8 -104q0 -40 15 -61q19 -29 51.5 -43t109.5 -14l-11 -37h-534l11 37h23q65 0 106 28q29 19 45 63q11 31 21 146l16 172h-388l-138 -187q-47 -63 -59 -90.5t-12 -51.5q0 -32 26 -55t86 -25 l-11 -37h-401zM464 519h341l52 535zM778 1603q0 45 31.5 76.5t75.5 31.5q45 0 76.5 -31.5t31.5 -76.5q0 -44 -31.5 -75.5t-76.5 -31.5q-44 0 -75.5 31.5t-31.5 75.5zM1134 1603q0 45 31 76.5t76 31.5t76 -31.5t31 -76.5q0 -44 -31 -75.5t-76 -31.5q-44 0 -75.5 31.5 t-31.5 75.5z" />
<glyph unicode="&#x4d3;" d="M48 203q0 159 95.5 335.5t242.5 282.5q115 84 217 84q61 0 101.5 -32t61.5 -106l36 114l159 24l-195 -678l-22 -91q-3 -13 -3 -22q0 -16 10 -28q8 -9 20 -9q13 0 34 16q39 29 104 120l34 -24q-69 -104 -142 -158.5t-135 -54.5q-43 0 -64.5 21.5t-21.5 62.5q0 49 22 129 l21 75q-131 -171 -241 -239q-79 -49 -155 -49q-73 0 -126 60.5t-53 166.5zM208 239q0 -68 34 -107.5t78 -39.5q109 0 237 161q171 214 171 439q0 85 -33 123t-90 38q-64 0 -136 -60q-102 -85 -181.5 -252t-79.5 -302zM454 1232q0 45 31.5 76.5t75.5 31.5q45 0 76.5 -31.5 t31.5 -76.5q0 -44 -31.5 -75.5t-76.5 -31.5q-44 0 -75.5 31.5t-31.5 75.5zM810 1232q0 45 31 76.5t76 31.5t76 -31.5t31 -76.5q0 -44 -31 -75.5t-76 -31.5q-44 0 -75.5 31.5t-31.5 75.5z" />
<glyph unicode="&#x4d4;" horiz-adv-x="1821" d="M-108 0l10 37q62 5 113 37.5t165 174.5l711 885q52 64 64 88t12 44q0 15 -9 27t-28 19t-69 7l14 37h987l-83 -323h-42q9 49 9 82q0 49 -25 83q-34 46 -100 71q-50 20 -206 20h-141l-156 -539h99q124 0 181 36q79 49 117 158h44l-144 -493h-41q18 69 18 111q0 64 -51 97 q-33 20 -148 20h-94l-135 -461q-18 -65 -18 -88q0 -21 21.5 -40t66.5 -19h120q345 0 497 307h39l-131 -378h-999l10 37q88 0 129 29q57 40 92 158l76 259h-417l-145 -179q-78 -97 -100 -139q-14 -27 -14 -55q0 -31 25 -51t89 -22l-11 -37h-402zM509 559h382l208 730z" />
<glyph unicode="&#x4d5;" horiz-adv-x="1366" d="M45 207q0 154 99 333.5t245 284.5q111 80 208 80q67 0 106.5 -40t49.5 -137l34 140l130 21l-24 -97q129 113 255 113q86 0 137 -43.5t51 -102.5q0 -58 -38 -120.5t-102.5 -109.5t-175 -89.5t-233.5 -60.5q-12 -69 -12 -115q0 -89 46 -138t125 -49q68 0 136.5 36 t158.5 131l26 -30q-88 -114 -194.5 -176t-200.5 -62q-111 0 -181.5 71t-70.5 181q0 29 4 72q-137 -198 -196 -245q-98 -79 -203 -79q-75 0 -127.5 60.5t-52.5 170.5zM204 232q0 -58 39 -106q27 -33 67 -33q55 0 134 64q106 84 185 255.5t79 307.5q0 72 -28.5 105t-79.5 33 q-127 0 -261.5 -229.5t-134.5 -396.5zM797 428q214 46 313 145t99 186q0 37 -28 65t-64 28q-48 0 -113.5 -41.5t-113.5 -124.5t-93 -258z" />
<glyph unicode="&#x4d6;" horiz-adv-x="1251" d="M-46 0l13 37q78 2 105 14q40 18 58 46q27 41 64 172l238 818q28 99 28 151q0 38 -26.5 59.5t-103.5 21.5h-21l12 37h974l-84 -327h-37q7 46 7 77q0 53 -26 89q-34 46 -99 70q-48 18 -221 18h-172l-155 -536h127q136 0 197 41.5t105 153.5h37l-139 -492h-40q18 62 18 106 q0 43 -17.5 69t-48 38.5t-128.5 12.5h-129l-131 -449q-19 -65 -19 -99q0 -26 25 -46q17 -14 85 -14h120q195 0 312.5 69t210.5 240h37l-128 -377h-1048zM621 1663q0 78 69 78q66 0 117 -124q43 -105 140 -105q65 0 100 32q28 25 55 92q42 104 103 104q72 0 72 -75 q0 -93 -123 -156q-103 -53 -205 -53q-124 0 -212 41q-116 54 -116 166z" />
<glyph unicode="&#x4d7;" horiz-adv-x="909" d="M64 271q0 149 92 305t231 242.5t286 86.5q106 0 157 -43t51 -102q0 -83 -66 -159q-87 -99 -256 -160q-112 -41 -315 -64q-7 -50 -7 -83q0 -89 63 -151.5t153 -62.5q72 0 138.5 29.5t197.5 130.5l21 -29q-237 -235 -452 -235q-146 0 -220 92t-74 203zM251 426 q148 17 241 58q123 55 184.5 131.5t61.5 145.5q0 42 -26.5 68t-75.5 26q-102 0 -216.5 -108.5t-168.5 -320.5zM401 1283q0 78 69 78q66 0 117 -124q43 -105 140 -105q65 0 100 32q28 25 55 92q42 104 103 104q72 0 72 -75q0 -93 -123 -156q-103 -53 -205 -53q-124 0 -212 41 q-116 54 -116 166z" />
<glyph unicode="&#x4da;" horiz-adv-x="1423" d="M122 443q0 139 51 282h1026q7 76 7 124q0 195 -90 324q-102 147 -289 147q-289 0 -459 -319h-40l114 386h32q6 -62 62 -62q27 0 81 15q169 47 282 47q241 0 382 -165q133 -155 133 -401q0 -216 -104.5 -416t-282.5 -321q-168 -115 -406 -115q-186 0 -292 70 q-97 64 -153 176q-54 108 -54 228zM329 394q0 -151 71 -250q81 -111 226 -111q182 0 360 180q154 156 203 443h-823q-37 -127 -37 -262zM631 1603q0 45 31.5 76.5t75.5 31.5q45 0 76.5 -31.5t31.5 -76.5q0 -44 -31.5 -75.5t-76.5 -31.5q-44 0 -75.5 31.5t-31.5 75.5z M987 1603q0 45 31 76.5t76 31.5t76 -31.5t31 -76.5q0 -44 -31 -75.5t-76 -31.5q-44 0 -75.5 31.5t-31.5 75.5z" />
<glyph unicode="&#x4db;" horiz-adv-x="909" d="M27 121q0 84 66 159q86 98 256 160q113 41 315 64q7 50 7 83q0 90 -63 152t-153 62q-87 0 -180 -52q-54 -29 -156 -108l-21 29q237 235 452 235q130 0 212 -82.5t82 -212.5q0 -154 -96 -312q-91 -152 -228 -237t-285 -85q-82 0 -138 31q-70 38 -70 114zM170 120 q0 -94 102 -94q140 0 254 151q91 120 131 278q-300 -34 -425 -190q-62 -77 -62 -145zM334 1232q0 45 31.5 76.5t75.5 31.5q45 0 76.5 -31.5t31.5 -76.5q0 -44 -31.5 -75.5t-76.5 -31.5q-44 0 -75.5 31.5t-31.5 75.5zM690 1232q0 45 31 76.5t76 31.5t76 -31.5t31 -76.5 q0 -44 -31 -75.5t-76 -31.5q-44 0 -75.5 31.5t-31.5 75.5z" />
<glyph unicode="&#x4dc;" horiz-adv-x="1876" d="M-112 0l11 37q57 0 109 33.5t140 140.5l273 332q71 87 121.5 120t130.5 40q-112 55 -112 198q0 32 8 119q7 76 7 104q0 104 -41 104q-21 0 -52 -32q-49 -51 -92 -51q-35 0 -67.5 30.5t-32.5 76.5q0 52 47 86t110 34q80 0 138.5 -59t58.5 -175q0 -38 -9 -118 q-9 -79 -9 -112q0 -88 51 -127.5t162 -39.5h88l87 295q40 135 40 193q0 54 -39.5 72t-108.5 18l8 37h535l-9 -37q-102 0 -146 -43.5t-81 -169.5l-108 -365h70q117 0 181.5 33t111.5 99.5t111 206.5q77 171 132 231.5t141 60.5q65 0 104.5 -35.5t39.5 -89.5q0 -45 -27 -75 t-70 -30q-46 0 -100 54q-27 26 -48 26q-27 0 -44.5 -25t-55.5 -116q-77 -182 -149.5 -273t-169.5 -121q47 -22 81 -108l12 -26l133 -291q66 -143 101.5 -181t118.5 -44l-12 -37h-280l-230 511q-46 102 -80 129.5t-92 28.5l-128 -453q-21 -72 -21 -99q0 -73 154 -80l-12 -37 h-528l8 37q108 3 148 43t88 203l113 386h-28q-92 0 -117.5 -13.5t-109.5 -112.5l-464 -543h-300zM928 1603q0 45 31.5 76.5t75.5 31.5q45 0 76.5 -31.5t31.5 -76.5q0 -44 -31.5 -75.5t-76.5 -31.5q-44 0 -75.5 31.5t-31.5 75.5zM1284 1603q0 45 31 76.5t76 31.5t76 -31.5 t31 -76.5q0 -44 -31 -75.5t-76 -31.5q-44 0 -75.5 31.5t-31.5 75.5z" />
<glyph unicode="&#x4dd;" horiz-adv-x="1905" d="M-1 142q0 57 32.5 90.5t73.5 33.5q35 0 54.5 -22t19.5 -48q0 -27 -29 -60q-26 -29 -26 -57q0 -26 21 -44.5t51 -18.5q135 0 259.5 181t124.5 389q0 112 -52.5 172t-122.5 60q-144 0 -279 -164l-27 19q154 232 380 232q124 0 194.5 -83t70.5 -219q0 -66 -16 -137h150 l118 415h151l-118 -415h155q51 172 199 305.5t310 133.5q94 0 148.5 -47t54.5 -126q0 -52 -29 -84.5t-72 -32.5q-76 0 -76 77q0 30 27 68q18 25 18 42q0 59 -76 59q-133 0 -253.5 -193t-120.5 -366q0 -114 52 -177t129 -63q143 0 270 163l31 -15q-171 -234 -373 -234 q-131 0 -202 89.5t-71 225.5q0 60 17 125h-152l-119 -416h-149l118 416h-153q-78 -218 -220 -329t-297 -111q-95 0 -145.5 47.5t-50.5 118.5zM838 1232q0 45 31.5 76.5t75.5 31.5q45 0 76.5 -31.5t31.5 -76.5q0 -44 -31.5 -75.5t-76.5 -31.5q-44 0 -75.5 31.5t-31.5 75.5z M1194 1232q0 45 31 76.5t76 31.5t76 -31.5t31 -76.5q0 -44 -31 -75.5t-76 -31.5q-44 0 -75.5 31.5t-31.5 75.5z" />
<glyph unicode="&#x4de;" horiz-adv-x="1014" d="M-2 126l27 26q151 -120 315 -120q163 0 260.5 137.5t97.5 275.5q0 91 -61 163.5t-253 72.5l20 65q114 0 196.5 33t145.5 133.5t63 226.5q0 174 -177 174q-235 0 -362 -286h-36l113 359h37q9 -41 46 -41q14 0 36 6q135 36 222 36q160 0 240 -85.5t80 -195.5 q0 -123 -89 -229t-234 -157q95 -28 158 -103t63 -169q0 -175 -142.5 -327t-383.5 -152q-124 0 -207.5 38t-174.5 119zM448 1603q0 45 31.5 76.5t75.5 31.5q45 0 76.5 -31.5t31.5 -76.5q0 -44 -31.5 -75.5t-76.5 -31.5q-44 0 -75.5 31.5t-31.5 75.5zM804 1603q0 45 31 76.5 t76 31.5t76 -31.5t31 -76.5q0 -44 -31 -75.5t-76 -31.5q-44 0 -75.5 31.5t-31.5 75.5z" />
<glyph unicode="&#x4df;" horiz-adv-x="799" d="M-50 163l34 15q32 -51 98 -89.5t140 -38.5q113 0 192 73.5t79 170.5q0 77 -58 128t-168 51q-10 0 -29 -1l11 45q180 0 263.5 52.5t83.5 146.5q0 57 -39.5 95t-109.5 38q-185 0 -278 -198h-39l74 254h34q8 -41 45 -41q14 0 44 9q96 32 178 32q108 0 181 -58t73 -139 q0 -189 -339 -222q237 -66 237 -227q0 -69 -49.5 -136t-138.5 -107t-196 -40q-218 0 -323 187zM268 1232q0 45 31.5 76.5t75.5 31.5q45 0 76.5 -31.5t31.5 -76.5q0 -44 -31.5 -75.5t-76.5 -31.5q-44 0 -75.5 31.5t-31.5 75.5zM624 1232q0 45 31 76.5t76 31.5t76 -31.5 t31 -76.5q0 -44 -31 -75.5t-76 -31.5q-44 0 -75.5 31.5t-31.5 75.5z" />
<glyph unicode="&#x4e0;" horiz-adv-x="1014" d="M-2 126l27 26q151 -120 315 -120q152 0 258 133q100 124 100 280q0 266 -304 266l20 65l517 508h-293q-143 0 -216 -55q-68 -52 -114 -182h-38l112 309h837l-11 -36l-571 -557q128 -11 204 -114q65 -90 65 -201q0 -207 -162 -346q-154 -133 -364 -133q-119 0 -207 38 q-80 35 -175 119z" />
<glyph unicode="&#x4e1;" horiz-adv-x="909" d="M-150 -203l41 25q24 -65 83 -118q67 -60 140 -60q185 0 319 140q138 142 138 347q0 105 -87 162t-234 57l10 36l466 425h-310q-98 0 -130 -12q-81 -30 -130 -172h-40l79 254h768l-11 -37l-483 -439q115 -22 181 -103t66 -194q0 -243 -157 -399q-152 -151 -377 -151 q-143 0 -239 89q-72 67 -93 150z" />
<glyph unicode="&#x4e2;" horiz-adv-x="1479" d="M-52 0l12 37q105 0 144 37t74 159l236 798q43 145 43 214q0 30 -23.5 51t-126.5 23l9 37h539l-13 -37q-108 -4 -148 -45t-88 -200l-238 -789l892 923q0 65 -26.5 86.5t-125.5 24.5l12 37h543l-10 -37q-116 -8 -156.5 -49t-86.5 -196l-232 -789q-38 -128 -38 -167 q0 -81 149 -81l-10 -37h-526l11 37q110 0 147.5 41t91.5 224l227 772l-894 -929q-1 -10 -1 -19q0 -49 32.5 -69t121.5 -20l-12 -37h-529zM731 1503l36 128h600l-35 -128h-601z" />
<glyph unicode="&#x4e3;" d="M60 691q75 116 159 171q64 43 118 43q37 0 60.5 -23.5t23.5 -60.5q0 -54 -40 -193l-94 -323q-39 -132 -39 -167q0 -19 12.5 -30.5t33.5 -11.5q33 0 86 33t141.5 146.5t146 213t122.5 316.5l22 76h152l-174 -596q-39 -133 -39 -168q0 -18 6.5 -26.5t17.5 -8.5 q17 0 37.5 15.5t103.5 123.5l30 -23q-79 -125 -162 -184q-55 -38 -106 -38q-39 0 -61 22t-22 57q0 34 13 90q16 74 91 322q-170 -279 -284.5 -385t-212.5 -106q-46 0 -78 32t-32 81q0 75 44 230l87 309q32 111 32 138q0 12 -8.5 20.5t-18.5 8.5q-21 0 -42 -15t-95 -111z M360 1114l36 128h600l-35 -128h-601z" />
<glyph unicode="&#x4e4;" horiz-adv-x="1479" d="M-52 0l12 37q105 0 144 37t74 159l236 798q43 145 43 214q0 30 -23.5 51t-126.5 23l9 37h539l-13 -37q-108 -4 -148 -45t-88 -200l-238 -789l892 923q0 65 -26.5 86.5t-125.5 24.5l12 37h543l-10 -37q-116 -8 -156.5 -49t-86.5 -196l-232 -789q-38 -128 -38 -167 q0 -81 149 -81l-10 -37h-526l11 37q110 0 147.5 41t91.5 224l227 772l-894 -929q-1 -10 -1 -19q0 -49 32.5 -69t121.5 -20l-12 -37h-529zM728 1603q0 45 31.5 76.5t75.5 31.5q45 0 76.5 -31.5t31.5 -76.5q0 -44 -31.5 -75.5t-76.5 -31.5q-44 0 -75.5 31.5t-31.5 75.5z M1084 1603q0 45 31 76.5t76 31.5t76 -31.5t31 -76.5q0 -44 -31 -75.5t-76 -31.5q-44 0 -75.5 31.5t-31.5 75.5z" />
<glyph unicode="&#x4e5;" d="M60 691q75 116 159 171q64 43 118 43q37 0 60.5 -23.5t23.5 -60.5q0 -54 -40 -193l-94 -323q-39 -132 -39 -167q0 -19 12.5 -30.5t33.5 -11.5q33 0 86 33t141.5 146.5t146 213t122.5 316.5l22 76h152l-174 -596q-39 -133 -39 -168q0 -18 6.5 -26.5t17.5 -8.5 q17 0 37.5 15.5t103.5 123.5l30 -23q-79 -125 -162 -184q-55 -38 -106 -38q-39 0 -61 22t-22 57q0 34 13 90q16 74 91 322q-170 -279 -284.5 -385t-212.5 -106q-46 0 -78 32t-32 81q0 75 44 230l87 309q32 111 32 138q0 12 -8.5 20.5t-18.5 8.5q-21 0 -42 -15t-95 -111z M384 1232q0 45 31.5 76.5t75.5 31.5q45 0 76.5 -31.5t31.5 -76.5q0 -44 -31.5 -75.5t-76.5 -31.5q-44 0 -75.5 31.5t-31.5 75.5zM740 1232q0 45 31 76.5t76 31.5t76 -31.5t31 -76.5q0 -44 -31 -75.5t-76 -31.5q-44 0 -75.5 31.5t-31.5 75.5z" />
<glyph unicode="&#x4e6;" horiz-adv-x="1479" d="M122 443q0 190 91.5 375.5t218.5 310t271 191.5t306 67q135 0 239 -58.5t163 -173t59 -237.5q0 -218 -126.5 -457.5t-330.5 -365.5t-422 -126q-157 0 -262.5 69.5t-156 183.5t-50.5 221zM329 394q0 -142 73 -251.5t224 -109.5q91 0 178.5 45t182.5 154q119 137 200 349.5 t81 396.5q0 136 -73 240.5t-220 104.5q-100 0 -195.5 -49.5t-189.5 -162t-169 -294.5q-92 -224 -92 -423zM759 1603q0 45 31.5 76.5t75.5 31.5q45 0 76.5 -31.5t31.5 -76.5q0 -44 -31.5 -75.5t-76.5 -31.5q-44 0 -75.5 31.5t-31.5 75.5zM1115 1603q0 45 31 76.5t76 31.5 t76 -31.5t31 -76.5q0 -44 -31 -75.5t-76 -31.5q-44 0 -75.5 31.5t-31.5 75.5z" />
<glyph unicode="&#x4e7;" d="M60 290q0 147 84.5 295t226 234t273.5 86t217.5 -87t85.5 -226q0 -150 -79.5 -297t-221.5 -233t-276 -86q-137 0 -223.5 87.5t-86.5 226.5zM224 224q0 -95 48 -146.5t121 -51.5q141 0 264.5 209.5t123.5 425.5q0 93 -45.5 142.5t-117.5 49.5q-147 0 -270.5 -210.5 t-123.5 -418.5zM437 1231q0 45 31.5 76.5t75.5 31.5q45 0 76.5 -31.5t31.5 -76.5q0 -44 -31.5 -75.5t-76.5 -31.5q-44 0 -75.5 31.5t-31.5 75.5zM793 1231q0 45 31 76.5t76 31.5t76 -31.5t31 -76.5q0 -44 -31 -75.5t-76 -31.5q-44 0 -75.5 31.5t-31.5 75.5z" />
<glyph unicode="&#x4e8;" horiz-adv-x="1479" d="M122 443q0 180 89 372q85 180 221 314q263 258 577 258q283 0 402 -231q59 -114 59 -238q0 -232 -130.5 -467t-326.5 -356q-204 -126 -422 -126q-306 0 -418 253q-51 115 -51 221zM329 394q0 -151 71 -250q81 -111 226 -111q188 0 361 199q119 136 200 350q19 50 34 100 h-848q-44 -149 -44 -288zM396 751h844q28 118 28 227q0 146 -72 241q-80 104 -221 104q-209 0 -385 -211q-94 -112 -169 -295q-11 -27 -25 -66z" />
<glyph unicode="&#x4e9;" d="M60 290q0 155 89 303q87 144 222 226q142 86 273 86q136 0 219.5 -88t83.5 -225q0 -159 -82 -303t-219 -227q-142 -86 -276 -86q-138 0 -224 88t-86 226zM224 224q0 -84 41 -138q46 -60 128 -60q141 0 265 210q58 98 89 200h-491q-32 -107 -32 -212zM273 486h487 q21 89 21 175q0 192 -163 192q-147 0 -270 -210q-46 -78 -75 -157z" />
<glyph unicode="&#x4ea;" horiz-adv-x="1479" d="M122 443q0 180 89 372q85 180 221 314q263 258 577 258q283 0 402 -231q59 -114 59 -238q0 -232 -130.5 -467t-326.5 -356q-204 -126 -422 -126q-306 0 -418 253q-51 115 -51 221zM329 394q0 -151 71 -250q81 -111 226 -111q188 0 361 199q119 136 200 350q19 50 34 100 h-848q-44 -149 -44 -288zM396 751h844q28 118 28 227q0 146 -72 241q-80 104 -221 104q-209 0 -385 -211q-94 -112 -169 -295q-11 -27 -25 -66zM759 1603q0 45 31.5 76.5t75.5 31.5q45 0 76.5 -31.5t31.5 -76.5q0 -44 -31.5 -75.5t-76.5 -31.5q-44 0 -75.5 31.5t-31.5 75.5z M1115 1603q0 45 31 76.5t76 31.5t76 -31.5t31 -76.5q0 -44 -31 -75.5t-76 -31.5q-44 0 -75.5 31.5t-31.5 75.5z" />
<glyph unicode="&#x4eb;" d="M60 290q0 155 89 303q87 144 222 226q142 86 273 86q136 0 219.5 -88t83.5 -225q0 -159 -82 -303t-219 -227q-142 -86 -276 -86q-138 0 -224 88t-86 226zM224 224q0 -84 41 -138q46 -60 128 -60q141 0 265 210q58 98 89 200h-491q-32 -107 -32 -212zM273 486h487 q21 89 21 175q0 192 -163 192q-147 0 -270 -210q-46 -78 -75 -157zM437 1231q0 45 31.5 76.5t75.5 31.5q45 0 76.5 -31.5t31.5 -76.5q0 -44 -31.5 -75.5t-76.5 -31.5q-44 0 -75.5 31.5t-31.5 75.5zM793 1231q0 45 31 76.5t76 31.5t76 -31.5t31 -76.5q0 -44 -31 -75.5 t-76 -31.5q-44 0 -75.5 31.5t-31.5 75.5z" />
<glyph unicode="&#x4ec;" horiz-adv-x="1341" d="M30 304l32 21q228 -269 475 -269q194 0 348.5 156.5t203.5 443.5h-484l20 69h474q7 76 7 124q0 200 -99 335.5t-280 135.5q-289 0 -459 -319h-40l114 386h32q6 -62 62 -62q30 0 81 15q172 47 282 47q238 0 376.5 -160t138.5 -406q0 -225 -109.5 -423.5t-278 -313.5 t-370.5 -115q-160 0 -286 76t-240 259zM528 1603q0 45 31.5 76.5t75.5 31.5q45 0 76.5 -31.5t31.5 -76.5q0 -44 -31.5 -75.5t-76.5 -31.5q-44 0 -75.5 31.5t-31.5 75.5zM884 1603q0 45 31 76.5t76 31.5t76 -31.5t31 -76.5q0 -44 -31 -75.5t-76 -31.5q-44 0 -75.5 31.5 t-31.5 75.5z" />
<glyph unicode="&#x4ed;" horiz-adv-x="903" d="M15 232l36 14q93 -192 244 -192q236 0 335 382h-333l14 50h329q7 46 7 84q0 121 -54.5 200.5t-155.5 79.5q-182 0 -286 -225h-36l78 280h36q12 -40 53 -40q17 0 51 11q84 29 156 29q137 0 231.5 -93.5t94.5 -263.5q0 -213 -144.5 -392.5t-333.5 -179.5q-117 0 -202 71.5 t-120 184.5zM268 1232q0 45 31.5 76.5t75.5 31.5q45 0 76.5 -31.5t31.5 -76.5q0 -44 -31.5 -75.5t-76.5 -31.5q-44 0 -75.5 31.5t-31.5 75.5zM624 1232q0 45 31 76.5t76 31.5t76 -31.5t31 -76.5q0 -44 -31 -75.5t-76 -31.5q-44 0 -75.5 31.5t-31.5 75.5z" />
<glyph unicode="&#x4ee;" horiz-adv-x="1378" d="M225 142q0 41 27 71.5t70 30.5q82 0 102 -105q18 -94 81 -94q81 0 168 144l-237 889q-41 158 -81 196.5t-114 44.5l11 37h505l-11 -37q-163 0 -163 -92q0 -23 15 -82l198 -765l464 765q55 90 55 115q0 59 -142 59l11 37h406l-11 -37q-80 -3 -128.5 -40t-127.5 -167 l-460 -757q-115 -190 -203 -288t-205 -98q-105 0 -167.5 56t-62.5 117zM694 1503l36 128h600l-35 -128h-601z" />
<glyph unicode="&#x4ef;" horiz-adv-x="909" d="M-164 -364q0 39 32.5 71t70.5 32q20 0 33 -9q8 -5 17.5 -28.5t17.5 -31.5q5 -5 12 -5q6 0 21 10q55 34 128 108q96 98 142 160l-56 634q-14 157 -42 191t-94 34q-21 0 -75 -6l-9 37l293 72q34 -58 47 -108.5t26 -198.5l44 -492q60 72 174 228q55 76 136 207q49 80 60 112 q6 16 6 33q0 11 -7 18t-36.5 16.5t-49 35t-19.5 58.5q0 41 24 66t60 25q44 0 75 -36.5t31 -100.5q0 -79 -54 -180.5t-208 -311.5t-373 -458q-151 -171 -224 -215.5t-125 -44.5q-31 0 -54.5 23.5t-23.5 54.5zM326 1114l36 128h600l-35 -128h-601z" />
<glyph unicode="&#x4f0;" horiz-adv-x="1378" d="M225 142q0 41 27 71.5t70 30.5q82 0 102 -105q18 -94 81 -94q81 0 168 144l-237 889q-41 158 -81 196.5t-114 44.5l11 37h505l-11 -37q-163 0 -163 -92q0 -23 15 -82l198 -765l464 765q55 90 55 115q0 59 -142 59l11 37h406l-11 -37q-80 -3 -128.5 -40t-127.5 -167 l-460 -757q-115 -190 -203 -288t-205 -98q-105 0 -167.5 56t-62.5 117zM686 1603q0 45 31.5 76.5t75.5 31.5q45 0 76.5 -31.5t31.5 -76.5q0 -44 -31.5 -75.5t-76.5 -31.5q-44 0 -75.5 31.5t-31.5 75.5zM1042 1603q0 45 31 76.5t76 31.5t76 -31.5t31 -76.5q0 -44 -31 -75.5 t-76 -31.5q-44 0 -75.5 31.5t-31.5 75.5z" />
<glyph unicode="&#x4f1;" horiz-adv-x="909" d="M-164 -364q0 39 32.5 71t70.5 32q20 0 33 -9q8 -5 17.5 -28.5t17.5 -31.5q5 -5 12 -5q6 0 21 10q55 34 128 108q96 98 142 160l-56 634q-14 157 -42 191t-94 34q-21 0 -75 -6l-9 37l293 72q34 -58 47 -108.5t26 -198.5l44 -492q60 72 174 228q55 76 136 207q49 80 60 112 q6 16 6 33q0 11 -7 18t-36.5 16.5t-49 35t-19.5 58.5q0 41 24 66t60 25q44 0 75 -36.5t31 -100.5q0 -79 -54 -180.5t-208 -311.5t-373 -458q-151 -171 -224 -215.5t-125 -44.5q-31 0 -54.5 23.5t-23.5 54.5zM348 1232q0 45 31.5 76.5t75.5 31.5q45 0 76.5 -31.5t31.5 -76.5 q0 -44 -31.5 -75.5t-76.5 -31.5q-44 0 -75.5 31.5t-31.5 75.5zM704 1232q0 45 31 76.5t76 31.5t76 -31.5t31 -76.5q0 -44 -31 -75.5t-76 -31.5q-44 0 -75.5 31.5t-31.5 75.5z" />
<glyph unicode="&#x4f2;" horiz-adv-x="1378" d="M225 142q0 41 27 71.5t70 30.5q82 0 102 -105q18 -94 81 -94q81 0 168 144l-237 889q-41 158 -81 196.5t-114 44.5l11 37h505l-11 -37q-163 0 -163 -92q0 -23 15 -82l198 -765l464 765q55 90 55 115q0 59 -142 59l11 37h406l-11 -37q-80 -3 -128.5 -40t-127.5 -167 l-460 -757q-115 -190 -203 -288t-205 -98q-105 0 -167.5 56t-62.5 117zM796 1465l106 344h225l-298 -344h-33zM1082 1465l109 344h225l-302 -344h-32z" />
<glyph unicode="&#x4f3;" horiz-adv-x="909" d="M-164 -364q0 39 32.5 71t70.5 32q20 0 33 -9q8 -5 17.5 -28.5t17.5 -31.5q5 -5 12 -5q6 0 21 10q55 34 128 108q96 98 142 160l-56 634q-14 157 -42 191t-94 34q-21 0 -75 -6l-9 37l293 72q34 -58 47 -108.5t26 -198.5l44 -492q60 72 174 228q55 76 136 207q49 80 60 112 q6 16 6 33q0 11 -7 18t-36.5 16.5t-49 35t-19.5 58.5q0 41 24 66t60 25q44 0 75 -36.5t31 -100.5q0 -79 -54 -180.5t-208 -311.5t-373 -458q-151 -171 -224 -215.5t-125 -44.5q-31 0 -54.5 23.5t-23.5 54.5zM439 1058l106 344h225l-298 -344h-33zM725 1058l109 344h225 l-302 -344h-32z" />
<glyph unicode="&#x4f4;" horiz-adv-x="1411" d="M231 1319l10 37h534l-10 -37q-104 -3 -140 -35.5t-69 -143.5l-63 -215q-24 -82 -24 -132q0 -165 248 -165q180 0 338 81l109 380q29 100 29 147t-36 65t-133 18l10 37h543l-10 -37q-105 -3 -145.5 -49t-87.5 -211l-227 -783q-31 -105 -31 -144q0 -95 151 -95l-10 -37 h-532l12 37q98 2 142.5 39.5t87.5 184.5l107 366q-211 -92 -407 -92q-176 0 -254.5 73.5t-78.5 185.5q0 49 33 169l43 156q20 72 20 105q0 51 -32.5 73t-126.5 22zM668 1603q0 45 31.5 76.5t75.5 31.5q45 0 76.5 -31.5t31.5 -76.5q0 -44 -31.5 -75.5t-76.5 -31.5 q-44 0 -75.5 31.5t-31.5 75.5zM1024 1603q0 45 31 76.5t76 31.5t76 -31.5t31 -76.5q0 -44 -31 -75.5t-76 -31.5q-44 0 -75.5 31.5t-31.5 75.5z" />
<glyph unicode="&#x4f5;" horiz-adv-x="977" d="M86 810l11 40l283 55h37l-97 -341q-21 -72 -21 -93q0 -84 118 -84q96 0 219 80l121 414h153l-203 -696q-16 -58 -16 -71q0 -26 24 -26q40 0 146 134l33 -20q-171 -226 -280 -226q-81 0 -81 86q0 53 34 167l51 174q-129 -87 -258 -87q-84 0 -146 44t-62 111q0 40 23 118 l27 92q16 55 16 80q0 54 -68 54q-30 0 -64 -5zM354 1232q0 45 31.5 76.5t75.5 31.5q45 0 76.5 -31.5t31.5 -76.5q0 -44 -31.5 -75.5t-76.5 -31.5q-44 0 -75.5 31.5t-31.5 75.5zM710 1232q0 45 31 76.5t76 31.5t76 -31.5t31 -76.5q0 -44 -31 -75.5t-76 -31.5 q-44 0 -75.5 31.5t-31.5 75.5z" />
<glyph unicode="&#x4f6;" horiz-adv-x="1165" d="M-74 0l12 37q126 1 173 53q33 36 74 173l239 799q34 114 34 164q0 64 -56 82q-21 7 -112 11l12 37h1057l-105 -358h-37q10 84 10 118q0 112 -68 147q-46 24 -173 24h-320l-301 -1024q-32 -109 -32 -134q0 -51 39.5 -69.5t138.5 -23.5l-126 -438h-37q19 106 19 170 q0 71 -32 129q-36 66 -99 86q-52 17 -166 17h-144z" />
<glyph unicode="&#x4f7;" horiz-adv-x="799" d="M2 157q0 114 118 193q62 41 218 99q131 49 189 89q102 71 102 170q0 126 -167 126q-126 0 -264 -100l-30 25q166 146 350 146q107 0 178 -38q91 -48 91 -145q0 -96 -109 -168q-44 -29 -191 -92q-318 -136 -318 -274q0 -73 61 -113q52 -34 129 -34q137 0 300 132l27 -26 q-74 -73 -161 -115q-90 -104 -90 -136q0 -11 9 -39t9 -43q0 -78 -73 -140q-59 -51 -145 -75l-18 35q111 59 111 138q0 14 -7 52q-2 11 -2 15q0 34 54 79q80 66 94 90q-92 -32 -194 -32q-108 0 -179 36q-92 47 -92 145z" />
<glyph unicode="&#x4f8;" horiz-adv-x="1786" d="M-58 0l10 37q110 2 150 36.5t82 175.5l240 814q38 131 38 172q0 84 -137 84l11 37h529l-11 -37q-113 -3 -156 -43.5t-99 -227.5l-89 -296h136q174 0 261 -36t143 -122t56 -185q0 -119 -81.5 -227t-199.5 -145t-278 -37h-605zM317 88q78 -14 171 -14q212 0 310.5 104.5 t98.5 233.5q0 87 -47.5 153.5t-119.5 91.5t-194 25h-45zM888 1603q0 45 31.5 76.5t75.5 31.5q45 0 76.5 -31.5t31.5 -76.5q0 -44 -31.5 -75.5t-76.5 -31.5q-44 0 -75.5 31.5t-31.5 75.5zM1056 0l14 37q89 2 123.5 16.5t62.5 62t58 150.5l236 818q30 102 30 148 q0 49 -31.5 68t-124.5 19l12 37h524l-11 -37q-87 0 -130 -29.5t-93 -205.5l-236 -818q-31 -109 -31 -146q0 -40 32 -59t134 -24l-11 -37h-558zM1244 1603q0 45 31 76.5t76 31.5t76 -31.5t31 -76.5q0 -44 -31 -75.5t-76 -31.5q-44 0 -75.5 31.5t-31.5 75.5z" />
<glyph unicode="&#x4f9;" horiz-adv-x="1387" d="M102 207q0 45 29 143l103 343q13 45 13 78q0 49 -57 49q-24 0 -85 -11l10 35l298 61h32l-140 -476q144 152 298 152q96 0 164 -62t68 -162q0 -150 -131.5 -265.5t-313.5 -115.5q-148 0 -218 70.5t-70 160.5zM246 181q0 -68 44 -117t109 -49q101 0 183 101t82 231 q0 68 -38 105.5t-92 37.5q-106 0 -197 -95.5t-91 -213.5zM558 1232q0 45 31.5 76.5t75.5 31.5q45 0 76.5 -31.5t31.5 -76.5q0 -44 -31.5 -75.5t-76.5 -31.5q-44 0 -75.5 31.5t-31.5 75.5zM901 64q0 35 25 121l131 448q32 110 32 136q0 52 -63 52q-22 0 -86 -11v39l314 56h30 l-198 -701q-20 -70 -20 -90q0 -31 30 -31q50 0 153 144l35 -23q-163 -228 -289 -228q-46 0 -70 27t-24 61zM914 1232q0 45 31 76.5t76 31.5t76 -31.5t31 -76.5q0 -44 -31 -75.5t-76 -31.5q-44 0 -75.5 31.5t-31.5 75.5z" />
<glyph unicode="&#x4fa;" horiz-adv-x="1165" d="M-74 0l12 37q126 1 173 53q33 36 74 173l124 414h-174l20 74h176l93 311q34 114 34 164q0 64 -56 82q-22 7 -112 11l12 37h1057l-105 -358h-37q10 84 10 118q0 112 -68 147q-46 24 -173 24h-320l-158 -536h372l-20 -74h-373l-122 -414q-32 -109 -32 -134q0 -60 64 -79 q30 -9 114 -13l-44 -147q-99 -332 -321 -332q-54 0 -93 31.5t-39 84.5q0 62 32 108q37 51 96 51q65 0 65 -62q0 -33 -21.5 -67.5t-21.5 -46.5q0 -33 40 -33q117 0 202 269l34 107h-514z" />
<glyph unicode="&#x4fb;" horiz-adv-x="799" d="M2 157q0 113 118 192q53 36 218 100l23 9l-108 159l78 31l107 -158q96 44 135 86q56 60 56 132q0 126 -167 126q-126 0 -264 -100l-30 25q166 146 350 146q106 0 178 -38q91 -48 91 -145q0 -96 -109 -168q-40 -26 -191 -92l-23 -10l114 -167l-79 -29l-110 161 q-127 -62 -166 -110q-54 -65 -54 -119q0 -73 61 -113q52 -34 129 -34q137 0 300 132l27 -26l-72 -257q-93 -332 -320 -332q-54 0 -93 31.5t-39 84.5q0 62 32 108q37 51 96 51q65 0 65 -62q0 -33 -21.5 -67.5t-21.5 -46.5q0 -33 40 -33q126 0 201 269l52 186 q-146 -103 -332 -103q-271 0 -271 181z" />
<glyph unicode="&#x4fc;" horiz-adv-x="1251" d="M-137 0l11 37q86 8 139 39q77 45 218 187l394 396l-108 391q-50 183 -85.5 223t-127.5 46l10 37h485l-12 -37q-102 0 -126 -34q-13 -18 -13 -40q0 -25 24 -112l92 -334l213 212q124 123 173 203q17 28 17 48q0 52 -120 57l11 37h459l-11 -37q-97 -14 -169 -58 q-60 -37 -198 -178l-352 -360l153 -567q33 -122 33 -189q0 -174 -136 -294q-131 -115 -309 -115q-129 0 -129 76q0 44 31 74t76 30q31 0 89 -23.5t89 -23.5q52 0 100 34q65 46 65 108q0 24 -65 260l-135 491l-318 -321q-91 -92 -111 -125q-11 -18 -11 -35q0 -31 30 -49 q13 -8 85 -17l-10 -37h-451z" />
<glyph unicode="&#x4fd;" horiz-adv-x="909" d="M-72 64q0 77 76 77q32 0 68 -32q26 -23 40 -23q11 0 31 16q45 37 128 163q75 114 106 183l-67 257q-42 119 -169 119q-23 0 -53 -2v36l267 47q48 -51 74 -104q18 -38 59 -189l88 132q29 43 85 92q79 69 141 69q94 0 94 -79q0 -38 -15 -52q-28 -25 -64 -25q-19 0 -45 9 q-45 16 -63 16q-73 0 -205 -229l97 -389q27 -108 27 -189q0 -165 -125 -287t-297 -122q-129 0 -129 80q0 95 107 95q31 0 89 -23.5t89 -23.5q59 0 103 31q55 39 55 116q0 64 -52 260l-75 282q-156 -272 -250 -349q-61 -50 -118 -50q-40 0 -68.5 24.5t-28.5 63.5z" />
<glyph unicode="&#x4fe;" horiz-adv-x="1251" d="M-137 0l11 37q86 8 139 39q77 45 218 187l396 384l-2 7h-393l23 74h351l-89 322q-50 183 -85.5 223t-127.5 46l10 37h485l-12 -37q-102 0 -126 -34q-13 -18 -13 -40q0 -25 24 -112l92 -334l213 212q124 123 173 203q17 28 17 48q0 52 -120 57l11 37h459l-11 -37 q-112 -16 -189 -71q-58 -42 -178 -165l-351 -348l2 -7h387l-20 -74h-351l80 -294q14 -51 52 -161q39 -113 109 -143q38 -16 110 -19l-11 -37h-532l11 37q145 5 145 83q0 30 -26 123l-95 341l-318 -321q-91 -92 -111 -125q-11 -18 -11 -35q0 -31 30 -49q13 -8 85 -17l-10 -37 h-451z" />
<glyph unicode="&#x4ff;" horiz-adv-x="909" d="M-72 64q0 77 76 77q32 0 68 -32q26 -23 40 -23q11 0 31 16q45 37 128 163q75 114 106 183l-4 14h-262l23 74h220l-44 169q-42 119 -169 119q-23 0 -53 -2v36l267 47q48 -51 74 -104q18 -38 59 -189l88 132q29 43 85 92q79 69 141 69q94 0 94 -79q0 -38 -15 -52 q-28 -25 -64 -25q-19 0 -45 9q-45 16 -63 16q-73 0 -205 -229l2 -9h251l-20 -74h-213l62 -261q26 -110 58 -110q21 0 49 23q55 46 94 120l35 -18q-63 -118 -160 -196q-55 -44 -93 -44q-56 0 -89 63q-21 40 -87 336q-156 -272 -250 -349q-61 -50 -118 -50q-40 0 -68.5 24.5 t-28.5 63.5z" />
<glyph unicode="&#x2000;" horiz-adv-x="978" />
<glyph unicode="&#x2001;" horiz-adv-x="1957" />
<glyph unicode="&#x2002;" horiz-adv-x="978" />
<glyph unicode="&#x2003;" horiz-adv-x="1957" />
<glyph unicode="&#x2004;" horiz-adv-x="652" />
<glyph unicode="&#x2005;" horiz-adv-x="489" />
<glyph unicode="&#x2006;" horiz-adv-x="326" />
<glyph unicode="&#x2007;" horiz-adv-x="326" />
<glyph unicode="&#x2008;" horiz-adv-x="244" />
<glyph unicode="&#x2009;" horiz-adv-x="391" />
<glyph unicode="&#x200a;" horiz-adv-x="108" />
<glyph unicode="&#x2010;" horiz-adv-x="682" d="M54 378l41 133h518l-41 -133h-518z" />
<glyph unicode="&#x2011;" horiz-adv-x="682" d="M54 378l41 133h518l-41 -133h-518z" />
<glyph unicode="&#x2012;" horiz-adv-x="682" d="M54 378l41 133h518l-41 -133h-518z" />
<glyph unicode="&#x2013;" d="M-18 453v73h1059v-73h-1059z" />
<glyph unicode="&#x2014;" horiz-adv-x="1821" d="M-19 453v74l1859 -1v-74z" />
<glyph unicode="&#x2018;" horiz-adv-x="682" d="M434 1066q0 89 70 180t203 141l20 -31q-76 -33 -117 -79.5t-41 -82.5q0 -19 6 -34q3 -8 27 -32t28 -33q7 -17 7 -39q0 -44 -30 -75t-69 -31q-41 0 -72.5 33t-31.5 83z" />
<glyph unicode="&#x2019;" horiz-adv-x="682" d="M401 982q75 33 122 86q36 40 36 76q0 19 -6 34q-4 8 -28 32t-27 33q-7 16 -7 39q0 43 29.5 74t69.5 31q41 0 72.5 -33t31.5 -83q0 -89 -70 -180t-203 -141z" />
<glyph unicode="&#x201a;" horiz-adv-x="682" d="M65 -225q75 34 122 86q36 40 36 77q0 18 -6 33q-4 8 -28 32t-27 33q-7 17 -7 39q0 43 29.5 74t69.5 31q41 0 72.5 -33t31.5 -83q0 -89 -70 -180t-203 -141z" />
<glyph unicode="&#x201c;" horiz-adv-x="1139" d="M394 1063q0 59 31 121t92 113q42 35 146 90l23 -31q-76 -31 -130 -93q-26 -30 -26 -73q0 -20 5 -33q3 -7 25.5 -33.5t28.5 -39.5q7 -17 7 -34q0 -42 -30 -73.5t-72 -31.5q-41 0 -70.5 32.5t-29.5 85.5zM852 1062q0 86 62 168t211 150l20 -24q-101 -56 -129 -92.5 t-28 -70.5q0 -21 7 -36q3 -8 25.5 -34t27.5 -36q7 -17 7 -35q0 -44 -30 -75.5t-72 -31.5t-71.5 31.5t-29.5 85.5z" />
<glyph unicode="&#x201d;" horiz-adv-x="1139" d="M373 982q101 55 129 91t28 70q0 20 -7 35q-3 8 -25.5 34t-27.5 36q-7 16 -7 34q0 43 30 74t71 31q43 0 72.5 -31.5t29.5 -86.5q0 -197 -273 -323zM832 983q75 30 129 92q27 30 27 71q0 20 -6 33q-2 7 -24.5 33t-28.5 38q-8 17 -8 35q0 41 30.5 72t72.5 31 q41 0 70.5 -32.5t29.5 -85.5q0 -60 -31 -122t-92 -112q-42 -35 -147 -91z" />
<glyph unicode="&#x201e;" horiz-adv-x="1139" d="M30 -225q101 55 129 91t28 70q0 20 -7 36q-3 7 -25.5 33t-27.5 36q-7 16 -7 34q0 43 30 74.5t71 31.5q43 0 72.5 -32t29.5 -87q0 -197 -273 -323zM489 -224q75 30 129 92q27 30 27 71q0 20 -6 33q-2 7 -24.5 33t-28.5 38q-8 17 -8 35q0 41 30.5 72t72.5 31 q41 0 70.5 -32.5t29.5 -85.5q0 -60 -31 -121.5t-91 -112.5q-43 -35 -148 -91z" />
<glyph unicode="&#x2022;" horiz-adv-x="717" d="M173 677q0 104 73 177.5t178 73.5q104 0 177.5 -73.5t73.5 -177.5t-73.5 -177.5t-177.5 -73.5t-177.5 73.5t-73.5 177.5z" />
<glyph unicode="&#x2026;" horiz-adv-x="1821" d="M266 83q0 47 32.5 79t78.5 32q47 0 79 -32.5t32 -78.5t-32.5 -78.5t-78.5 -32.5t-78.5 32.5t-32.5 78.5zM795 83q0 47 32.5 79t78.5 32q47 0 79 -32.5t32 -78.5t-32.5 -78.5t-78.5 -32.5t-78.5 32.5t-32.5 78.5zM1324 83q0 47 32.5 79t78.5 32q47 0 79 -32.5t32 -78.5 t-32.5 -78.5t-78.5 -32.5t-78.5 32.5t-32.5 78.5z" />
<glyph unicode="&#x202f;" horiz-adv-x="391" />
<glyph unicode="&#x2039;" horiz-adv-x="682" d="M116 443l467 477h55l-341 -477l111 -474h-43z" />
<glyph unicode="&#x203a;" horiz-adv-x="682" d="M46 -31l340 478l-110 473h43l249 -473l-468 -478h-54z" />
<glyph unicode="&#x205f;" horiz-adv-x="489" />
<glyph unicode="&#x20ac;" d="M17 576l22 78h90l5 16q8 30 21 67h-92l22 78h101q102 237 274 391q198 178 427 178q171 0 314 -88l-85 -299h-39q11 57 11 105q0 216 -220 216q-158 0 -298 -167q-109 -130 -190 -336h532l-22 -78h-538q-15 -42 -27 -83h542l-22 -78h-540q-31 -122 -31 -228 q0 -288 207 -288q134 0 244 69q66 41 182 156l25 -20q-125 -136 -212 -194q-142 -95 -303 -95q-331 0 -331 381q0 101 25 219h-94z" />
<glyph unicode="&#x2122;" horiz-adv-x="2007" d="M190 1155l21 201h728l22 -201h-34q-10 72 -52.5 106.5t-141.5 34.5h-75v-579q0 -84 20 -106.5t86 -25.5v-36h-374v36q65 6 82.5 27.5t17.5 103.5v580h-76q-95 0 -135 -31.5t-55 -109.5h-34zM1030 549v36q56 0 75.5 10t28.5 31t9 90v466q0 76 -8.5 96t-28.5 30.5t-76 10.5 v37h286l273 -572l265 572h279v-37q-56 -1 -74.5 -11t-27.5 -32t-9 -92v-468q0 -85 19 -106t92 -25v-36h-398v36q59 1 79.5 12t30 32t9.5 86v492l-307 -658h-32l-308 649v-482q0 -68 8.5 -88.5t27 -31.5t57.5 -11h36v-36h-306z" />
<glyph unicode="&#x25fc;" horiz-adv-x="905" d="M0 0v905h905v-905h-905z" />
</font>
</defs>
</svg>
